<svg width="750" height="1050" viewBox="0 0 750 1050" fill="none" xmlns="http://www.w3.org/2000/svg">
<rect width="750" height="1050" fill="white"/>
<path d="M0 50C0 22.3858 22.3858 0 50 0H700C727.614 0 750 22.3858 750 50V1000C750 1027.61 727.614 1050 700 1050H50C22.3858 1050 0 1027.61 0 1000V50Z" fill="white"/>
<path d="M114.2 171.3C127.6 171.3 138.3 163.7 138.3 148.8V100H126.8V148.8C126.8 156 122.3 160.1 114.3 160.1C107.9 160.1 103.9 157.7 101.6 152.7L91.7 158.5C95.8 167 104 171.3 114.2 171.3Z" fill="#1C1C1E"/>
<path d="M635.8 878.7C622.4 878.7 611.7 886.3 611.7 901.2V950H623.2V901.2C623.2 894 627.7 889.9 635.7 889.9C642.1 889.9 646.1 892.3 648.4 897.3L658.3 891.5C654.2 883 646 878.7 635.8 878.7Z" fill="#1C1C1E"/>
<g clip-path="url(#clip0_63_6977)">
<path d="M230 446.068L255.863 559.5H496.561L519.864 446.068C424.35 430.704 325.521 430.704 230.003 446.068H230Z" fill="#1C1C1E"/>
<path d="M255.605 613.795H492.469L494.264 572.311H255.864L255.605 613.795Z" fill="#1C1C1E"/>
</g>
<path d="M635.406 102.883C635.406 102.883 600.618 116.16 600.618 139.939C600.618 149.965 608.745 158.091 618.77 158.091C623.631 158.091 628.045 156.172 631.302 153.061C629.604 159.222 627.47 165.179 625.186 167.249H644.867C642.584 165.179 640.45 159.222 638.752 153.061C642.007 156.174 646.421 158.091 651.287 158.091C661.31 158.091 669.436 149.965 669.436 139.939C669.439 115.991 635.408 102.883 635.408 102.883H635.406Z" fill="#1C1C1E"/>
<path d="M114.594 947.117C114.594 947.117 149.382 933.84 149.382 910.061C149.382 900.035 141.255 891.909 131.23 891.909C126.369 891.909 121.955 893.828 118.698 896.939C120.396 890.778 122.53 884.821 124.814 882.751H105.133C107.416 884.821 109.55 890.778 111.248 896.939C107.993 893.826 103.579 891.909 98.7128 891.909C88.6899 891.909 80.5641 900.035 80.5641 910.061C80.5609 934.009 114.592 947.117 114.592 947.117H114.594Z" fill="#1C1C1E"/>
<defs>
<clipPath id="clip0_63_6977">
<rect width="290" height="290" fill="white" transform="translate(230 379.5)"/>
</clipPath>
</defs>
</svg>
