<svg width="750" height="1050" viewBox="0 0 750 1050" fill="none" xmlns="http://www.w3.org/2000/svg">
<rect width="750" height="1050" fill="white"/>
<path d="M0 50C0 22.3858 22.3858 0 50 0H700C727.614 0 750 22.3858 750 50V1000C750 1027.61 727.614 1050 700 1050H50C22.3858 1050 0 1027.61 0 1000V50Z" fill="white"/>
<path d="M527.873 482.8C527.873 438.353 491.843 402.323 447.409 402.323C415.801 402.323 388.472 420.534 375.312 447.028C362.125 420.529 334.819 402.323 303.203 402.323C258.773 402.323 222.735 438.353 222.735 482.8C222.735 588.983 373.626 647.1 373.626 647.1C373.631 647.096 527.873 588.244 527.873 482.8Z" fill="#FF3B30"/>
<path d="M135.1 170H147.5L122.2 100H108.4L83 170H95.5L100.4 155.9H130.2L135.1 170ZM104.2 145.1L115.3 113.5L126.4 145.1H104.2Z" fill="#FF3B30"/>
<path d="M669.52 125.584C669.52 115.548 661.384 107.412 651.35 107.412C644.213 107.412 638.042 111.524 635.071 117.507C632.093 111.523 625.927 107.412 618.788 107.412C608.755 107.412 600.618 115.548 600.618 125.584C600.618 149.561 634.69 162.684 634.69 162.684C634.691 162.683 669.52 149.394 669.52 125.584Z" fill="#FF3B30"/>
<path d="M80.4804 924.416C80.4804 934.452 88.616 942.588 98.6496 942.588C105.787 942.588 111.958 938.476 114.929 932.493C117.907 938.477 124.073 942.588 131.212 942.588C141.245 942.588 149.382 934.452 149.382 924.416C149.382 900.439 115.31 887.316 115.31 887.316C115.309 887.317 80.4804 900.606 80.4804 924.416Z" fill="#FF3B30"/>
<path d="M614.9 880H602.5L627.8 950H641.6L667 880H654.5L649.6 894.1H619.8L614.9 880ZM645.8 904.9L634.7 936.5L623.6 904.9H645.8Z" fill="#FF3B30"/>
</svg>
