<svg width="750" height="1050" viewBox="0 0 750 1050" fill="none" xmlns="http://www.w3.org/2000/svg">
<rect width="750" height="1050" fill="white"/>
<path d="M0 50C0 22.3858 22.3858 0 50 0H700C727.614 0 750 22.3858 750 50V1000C750 1027.61 727.614 1050 700 1050H50C22.3858 1050 0 1027.61 0 1000V50Z" fill="white"/>
<path d="M245.125 242.294L298.956 296.125L245.125 349.956L191.294 296.125L245.125 242.294Z" fill="#FF3B30"/>
<path d="M244.875 806.706L191.044 752.875L244.875 699.044L298.706 752.875L244.875 806.706Z" fill="#FF3B30"/>
<path d="M375.125 394.627L428.956 448.458L375.125 502.289L321.294 448.458L375.125 394.627Z" fill="#FF3B30"/>
<path d="M374.875 654.373L321.044 600.542L374.875 546.711L428.706 600.542L374.875 654.373Z" fill="#FF3B30"/>
<path d="M505.125 242.294L558.956 296.125L505.125 349.956L451.294 296.125L505.125 242.294Z" fill="#FF3B30"/>
<path d="M504.875 806.706L451.044 752.875L504.875 699.044L558.706 752.875L504.875 806.706Z" fill="#FF3B30"/>
<path d="M115.05 123.5H113.75L129.75 100H116.65L94.45 133.3C91.75 137.2 90.25 142 90.25 147.4C90.25 161.5 100.45 171.3 115.05 171.3C129.55 171.3 139.75 161.5 139.75 147.4C139.75 133.3 129.55 123.5 115.05 123.5ZM115.05 160.4C107.35 160.4 101.75 155.4 101.75 147.4C101.75 139.4 107.35 134.4 115.05 134.4C122.65 134.4 128.25 139.4 128.25 147.4C128.25 155.3 122.65 160.4 115.05 160.4Z" fill="#FF3B30"/>
<path d="M634.95 926.5H636.25L620.25 950H633.35L655.55 916.7C658.25 912.8 659.75 908 659.75 902.6C659.75 888.5 649.55 878.7 634.95 878.7C620.45 878.7 610.25 888.5 610.25 902.6C610.25 916.7 620.45 926.5 634.95 926.5ZM634.95 889.6C642.65 889.6 648.25 894.6 648.25 902.6C648.25 910.6 642.65 915.6 634.95 915.6C627.35 915.6 621.75 910.6 621.75 902.6C621.75 894.7 627.35 889.6 634.95 889.6Z" fill="#FF3B30"/>
<path d="M635.08 100.823L669.336 135.079L635.08 169.335L600.824 135.079L635.08 100.823Z" fill="#FF3B30"/>
<path d="M114.92 949.177L80.6644 914.921L114.92 880.665L149.177 914.921L114.92 949.177Z" fill="#FF3B30"/>
</svg>
