<svg width="750" height="1050" viewBox="0 0 750 1050" fill="none" xmlns="http://www.w3.org/2000/svg">
<rect width="750" height="1050" fill="white"/>
<path d="M0 50C0 22.3858 22.3858 0 50 0H700C727.614 0 750 22.3858 750 50V1000C750 1027.61 727.614 1050 700 1050H50C22.3858 1050 0 1027.61 0 1000V50Z" fill="white"/>
<path d="M375.125 315.294L428.956 369.125L375.125 422.956L321.294 369.125L375.125 315.294Z" fill="#FF3B30"/>
<path d="M375.125 470.794L428.956 524.625L375.125 578.456L321.294 524.625L375.125 470.794Z" fill="#FF3B30"/>
<path d="M374.875 733.706L321.044 679.875L374.875 626.044L428.706 679.875L374.875 733.706Z" fill="#FF3B30"/>
<path d="M121.9 128.6L136.1 109.8V100H93.1V110.8H122.4L107.3 130.7L111.9 137.6H114.5C122.4 137.6 127.5 141.8 127.5 148.8C127.5 155.8 122.4 160.1 114.5 160.1C107.5 160.1 102.8 157 100.8 151.1L91 156.8C94.9 166.6 104.2 171.3 114.5 171.3C127.4 171.3 139 163.5 139 148.8C139 137.9 131.5 130.9 121.9 128.6Z" fill="#FF3B30"/>
<path d="M628.1 921.4L613.9 940.2V950H656.9V939.2H627.6L642.7 919.3L638.1 912.4H635.5C627.6 912.4 622.5 908.2 622.5 901.2C622.5 894.2 627.6 889.9 635.5 889.9C642.5 889.9 647.2 893 649.2 898.9L659 893.2C655.1 883.4 645.8 878.7 635.5 878.7C622.6 878.7 611 886.5 611 901.2C611 912.1 618.5 919.1 628.1 921.4Z" fill="#FF3B30"/>
<path d="M635.08 100.823L669.336 135.079L635.08 169.335L600.823 135.079L635.08 100.823Z" fill="#FF3B30"/>
<path d="M114.92 949.177L80.6644 914.921L114.92 880.665L149.177 914.921L114.92 949.177Z" fill="#FF3B30"/>
</svg>
