<svg width="750" height="1050" viewBox="0 0 750 1050" fill="none" xmlns="http://www.w3.org/2000/svg">
<rect width="750" height="1050" fill="white"/>
<path d="M0 50C0 22.3858 22.3858 0 50 0H700C727.614 0 750 22.3858 750 50V1000C750 1027.61 727.614 1050 700 1050H50C22.3858 1050 0 1027.61 0 1000V50Z" fill="white"/>
<path d="M375.639 318.529C375.639 318.529 320.971 339.393 320.971 376.76C320.971 392.515 333.741 405.285 349.495 405.285C357.135 405.285 364.071 402.27 369.188 397.38C366.521 407.062 363.168 416.423 359.579 419.675H390.506C386.918 416.423 383.565 407.063 380.896 397.38C386.012 402.272 392.948 405.285 400.594 405.285C416.345 405.285 429.114 392.515 429.114 376.76C429.119 339.128 375.641 318.529 375.641 318.529H375.639Z" fill="#1C1C1E"/>
<path d="M375.639 474.029C375.639 474.029 320.971 494.893 320.971 532.26C320.971 548.015 333.741 560.785 349.495 560.785C357.135 560.785 364.071 557.77 369.188 552.88C366.521 562.562 363.168 571.923 359.579 575.175H390.506C386.918 571.923 383.565 562.563 380.896 552.88C386.012 557.772 392.948 560.785 400.594 560.785C416.345 560.785 429.114 548.015 429.114 532.26C429.119 494.628 375.641 474.029 375.641 474.029H375.639Z" fill="#1C1C1E"/>
<path d="M374.361 730.471C374.361 730.471 429.029 709.607 429.029 672.24C429.029 656.485 416.259 643.715 400.505 643.715C392.865 643.715 385.929 646.73 380.812 651.62C383.479 641.938 386.832 632.577 390.421 629.325H359.494C363.082 632.577 366.435 641.937 369.104 651.62C363.988 646.728 357.052 643.715 349.406 643.715C333.655 643.715 320.886 656.485 320.886 672.24C320.881 709.872 374.359 730.471 374.359 730.471H374.361Z" fill="#1C1C1E"/>
<path d="M121.9 128.6L136.1 109.8V100H93.1V110.8H122.4L107.3 130.7L111.9 137.6H114.5C122.4 137.6 127.5 141.8 127.5 148.8C127.5 155.8 122.4 160.1 114.5 160.1C107.5 160.1 102.8 157 100.8 151.1L91 156.8C94.9 166.6 104.2 171.3 114.5 171.3C127.4 171.3 139 163.5 139 148.8C139 137.9 131.5 130.9 121.9 128.6Z" fill="#1C1C1E"/>
<path d="M628.1 921.4L613.9 940.2V950H656.9V939.2H627.6L642.7 919.3L638.1 912.4H635.5C627.6 912.4 622.5 908.2 622.5 901.2C622.5 894.2 627.6 889.9 635.5 889.9C642.5 889.9 647.2 893 649.2 898.9L659 893.2C655.1 883.4 645.8 878.7 635.5 878.7C622.6 878.7 611 886.5 611 901.2C611 912.1 618.5 919.1 628.1 921.4Z" fill="#1C1C1E"/>
<path d="M635.406 102.883C635.406 102.883 600.618 116.16 600.618 139.939C600.618 149.965 608.745 158.091 618.77 158.091C623.631 158.091 628.045 156.172 631.302 153.061C629.604 159.222 627.47 165.179 625.186 167.249H644.867C642.584 165.179 640.45 159.222 638.752 153.061C642.007 156.174 646.421 158.091 651.287 158.091C661.31 158.091 669.436 149.965 669.436 139.939C669.439 115.991 635.408 102.883 635.408 102.883H635.406Z" fill="#1C1C1E"/>
<path d="M114.594 947.117C114.594 947.117 149.382 933.84 149.382 910.061C149.382 900.035 141.255 891.909 131.23 891.909C126.369 891.909 121.955 893.828 118.698 896.939C120.396 890.778 122.53 884.821 124.814 882.751H105.133C107.416 884.821 109.55 890.778 111.248 896.939C107.993 893.826 103.579 891.909 98.7128 891.909C88.6899 891.909 80.5641 900.035 80.5641 910.061C80.5609 934.009 114.592 947.117 114.592 947.117H114.594Z" fill="#1C1C1E"/>
</svg>
