<svg width="750" height="1050" viewBox="0 0 750 1050" fill="none" xmlns="http://www.w3.org/2000/svg">
<rect width="750" height="1050" fill="white"/>
<path d="M0 50C0 22.3858 22.3858 0 50 0H700C727.614 0 750 22.3858 750 50V1000C750 1027.61 727.614 1050 700 1050H50C22.3858 1050 0 1027.61 0 1000V50Z" fill="white"/>
<path d="M245.125 242.294L298.956 296.125L245.125 349.956L191.294 296.125L245.125 242.294Z" fill="#FF3B30"/>
<path d="M245.125 394.627L298.956 448.458L245.125 502.289L191.294 448.458L245.125 394.627Z" fill="#FF3B30"/>
<path d="M244.875 654.373L191.044 600.542L244.875 546.711L298.706 600.542L244.875 654.373Z" fill="#FF3B30"/>
<path d="M244.875 806.706L191.044 752.875L244.875 699.044L298.706 752.875L244.875 806.706Z" fill="#FF3B30"/>
<path d="M375.125 315.294L428.956 369.125L375.125 422.956L321.294 369.125L375.125 315.294Z" fill="#FF3B30"/>
<path d="M374.875 733.706L321.044 679.875L374.875 626.044L428.706 679.875L374.875 733.706Z" fill="#FF3B30"/>
<path d="M505.125 242.294L558.956 296.125L505.125 349.956L451.294 296.125L505.125 242.294Z" fill="#FF3B30"/>
<path d="M505.125 394.627L558.956 448.458L505.125 502.289L451.294 448.458L505.125 394.627Z" fill="#FF3B30"/>
<path d="M504.875 654.373L451.044 600.542L504.875 546.711L558.706 600.542L504.875 654.373Z" fill="#FF3B30"/>
<path d="M504.875 806.706L451.044 752.875L504.875 699.044L558.706 752.875L504.875 806.706Z" fill="#FF3B30"/>
<path d="M98.4 101.3L80 107.8L82.8 117.6L96.9 113.6V171.3H108.4V101.3H98.4Z" fill="#FF3B30"/>
<path d="M147.407 172.6C165.007 172.6 174.907 157.9 174.907 136.3C174.907 114.7 165.007 100 147.407 100C129.807 100 119.907 114.7 119.907 136.3C119.907 157.9 129.807 172.6 147.407 172.6ZM147.407 161.4C137.107 161.4 131.407 152.4 131.407 136.3C131.407 120.2 137.107 111.2 147.407 111.2C157.807 111.2 163.407 120.2 163.407 136.3C163.407 152.4 157.807 161.4 147.407 161.4Z" fill="#FF3B30"/>
<path d="M651.6 948.7L670 942.2L667.2 932.4L653.1 936.4V878.7H641.6V948.7H651.6Z" fill="#FF3B30"/>
<path d="M602.593 877.4C584.993 877.4 575.093 892.1 575.093 913.7C575.093 935.3 584.993 950 602.593 950C620.193 950 630.093 935.3 630.093 913.7C630.093 892.1 620.193 877.4 602.593 877.4ZM602.593 888.6C612.893 888.6 618.593 897.6 618.593 913.7C618.593 929.8 612.893 938.8 602.593 938.8C592.193 938.8 586.593 929.8 586.593 913.7C586.593 897.6 592.193 888.6 602.593 888.6Z" fill="#FF3B30"/>
<path d="M635.08 100.823L669.336 135.079L635.08 169.335L600.823 135.079L635.08 100.823Z" fill="#FF3B30"/>
<path d="M114.92 949.177L80.6644 914.921L114.92 880.665L149.177 914.921L114.92 949.177Z" fill="#FF3B30"/>
</svg>
