<svg width="750" height="1050" viewBox="0 0 750 1050" fill="none" xmlns="http://www.w3.org/2000/svg">
<rect width="750" height="1050" fill="white"/>
<path d="M0 50C0 22.3858 22.3858 0 50 0H700C727.614 0 750 22.3858 750 50V1000C750 1027.61 727.614 1050 700 1050H50C22.3858 1050 0 1027.61 0 1000V50Z" fill="white"/>
<path d="M114.2 171.3C127.6 171.3 138.3 163.7 138.3 148.8V100H126.8V148.8C126.8 156 122.3 160.1 114.3 160.1C107.9 160.1 103.9 157.7 101.6 152.7L91.7 158.5C95.8 167 104 171.3 114.2 171.3Z" fill="#FF3B30"/>
<path d="M635.8 878.7C622.4 878.7 611.7 886.3 611.7 901.2V950H623.2V901.2C623.2 894 627.7 889.9 635.7 889.9C642.1 889.9 646.1 892.3 648.4 897.3L658.3 891.5C654.2 883 646 878.7 635.8 878.7Z" fill="#FF3B30"/>
<g clip-path="url(#clip0_63_7429)">
<path d="M230 446.068L255.863 559.5H496.561L519.864 446.068C424.35 430.704 325.521 430.704 230.003 446.068H230Z" fill="#FF3B30"/>
<path d="M255.605 613.795H492.469L494.264 572.311H255.864L255.605 613.795Z" fill="#FF3B30"/>
</g>
<path d="M635.08 100.823L669.336 135.079L635.08 169.335L600.823 135.079L635.08 100.823Z" fill="#FF3B30"/>
<path d="M114.92 949.177L80.6644 914.921L114.92 880.665L149.177 914.921L114.92 949.177Z" fill="#FF3B30"/>
<defs>
<clipPath id="clip0_63_7429">
<rect width="290" height="290" fill="white" transform="translate(230 379.5)"/>
</clipPath>
</defs>
</svg>
