<svg width="750" height="1050" viewBox="0 0 750 1050" fill="none" xmlns="http://www.w3.org/2000/svg">
<g clip-path="url(#clip0_131_5761)">
<path d="M0 50C0 22.3858 22.3858 0 50 0H700C727.614 0 750 22.3858 750 50V1000C750 1027.61 727.614 1050 700 1050H50C22.3858 1050 0 1027.61 0 1000V50Z" fill="#FFFCF5"/>
<path fill-rule="evenodd" clip-rule="evenodd" d="M1825.94 -623.485V1778.92C1825.94 1841.4 1775.35 1892 1712.94 1892H61.7688C-0.634068 1892 -51.228 1841.4 -51.228 1778.92V-623.485C-51.228 -685.96 -0.634068 -736.562 61.7688 -736.562H1712.94C1775.35 -736.562 1825.94 -685.96 1825.94 -623.485Z" fill="#27374D"/>
<path fill-rule="evenodd" clip-rule="evenodd" d="M1712.94 -736.562H61.7688C-0.634068 -736.562 -51.228 -685.96 -51.228 -623.485V733.439L1825.94 421.342V-623.485C1825.94 -685.96 1775.35 -736.562 1712.94 -736.562Z" fill="#5DA9C9"/>
<path fill-rule="evenodd" clip-rule="evenodd" d="M757.893 575.995C741.484 568.063 724.364 562.045 706.861 558.107C700.516 556.684 694.39 554.77 688.429 552.581C647.024 534.528 615.787 497.875 603.595 453.509C594.406 411.933 574.053 372.38 542.335 339.611L541.186 338.353C540.202 337.314 539.163 336.438 538.178 335.454C536.92 334.305 535.717 333.101 534.459 331.953C532.873 330.476 531.226 328.944 529.536 327.467C526.801 325.06 524.17 322.817 521.496 320.629C521.004 320.191 520.511 319.808 520.019 319.425C516.792 316.799 513.455 314.283 510.119 311.821L509.627 311.493C483.427 292.729 454.274 279.818 423.973 272.98C396.351 266.798 372.011 252.684 352.758 233.263C333.997 213.897 320.269 189.444 313.541 162.31C303.696 122.429 283.349 84.6275 252.5 53.2263L252.117 52.8434L251.297 51.9134C230.074 30.3046 205.68 13.674 179.645 1.91226C163.236 -6.02009 146.116 -12.0925 128.613 -16.0313C122.268 -17.4537 116.142 -19.3137 110.18 -21.5566C94.1544 -28.5589 79.6053 -38.3513 67.0798 -50.3319C65.4936 -51.8637 64.1262 -53.286 62.7588 -54.7083C45.8577 -72.6519 33.2776 -94.8077 26.55 -119.316C17.2516 -161.439 -3.47825 -201.484 -35.9131 -234.526C-39.2496 -237.918 -42.6954 -241.146 -46.196 -244.264C-47.897 -245.796 -49.5324 -247.273 -51.228 -248.75V733.439L782.944 594.322L783.873 589.015C783.873 589.015 780.045 587.484 779.443 587.155C772.387 583.053 765.222 579.332 757.893 575.995Z" fill="#F0BA3C"/>
<path fill-rule="evenodd" clip-rule="evenodd" d="M142.887 495.359C161.046 495.359 175.814 480.588 175.814 462.426C175.814 444.263 161.046 429.493 142.887 429.493C124.728 429.493 109.96 444.263 109.96 462.426C109.96 480.588 124.728 495.359 142.887 495.359ZM142.887 407.61C173.079 407.61 197.693 432.228 197.693 462.426C197.693 492.678 173.079 517.241 142.887 517.241C112.695 517.241 88.0815 492.678 88.0815 462.426C88.0815 432.228 112.695 407.61 142.887 407.61Z" fill="black"/>
<path fill-rule="evenodd" clip-rule="evenodd" d="M614.042 20.0738C607.15 -16.798 616.339 -60.0703 635.866 -95.5197C654.134 -128.726 637.446 -168.771 601.516 -179.876C588.22 -184.034 575.317 -183.815 563.503 -180.478C567.769 -222.328 487.53 -285.458 441.803 -256.355C387.326 -221.671 369.769 -159.361 358.222 -94.9726C346.189 -27.9579 384.974 49.7244 357.571 114.715C344.991 144.475 323.003 169.257 308.345 197.868C291.061 231.676 282.796 267.673 282.796 305.693C282.796 342.455 301.502 447.272 302.93 483.979C303.586 501.814 238.498 571.618 218.041 616.641C197.585 661.609 201.961 693.229 201.961 693.229L490.921 643.721C490.921 643.721 557.814 559.091 563.393 528.401C568.371 501.102 538.944 392.621 538.78 365.651C545.89 339.118 561.643 286.108 574.442 262.366C593.197 227.573 626.895 197.375 637.835 159.136C650.847 113.675 622.574 65.972 614.042 20.0738Z" fill="#F53636"/>
<path fill-rule="evenodd" clip-rule="evenodd" d="M120.9 1080.71C149.178 1105.49 168.158 1139.63 193.756 1167.15C217.767 1192.91 244.131 1217.26 273.339 1236.95C312.446 1263.37 357.079 1279.46 401.711 1295.38C401.601 1259.27 376.66 1165.51 376.49 1140.72C383.661 1114.14 399.359 1061.13 412.158 1037.38C430.918 1002.59 464.611 972.394 475.551 934.155C488.568 888.694 460.34 840.991 451.758 795.092C444.866 758.221 454.055 714.948 473.581 679.499C491.905 646.293 475.222 606.303 439.287 595.143C425.941 590.985 413.033 591.204 401.218 594.596C405.485 552.691 336.075 488.138 290.404 517.241C235.927 551.925 207.485 615.657 195.944 680.046C183.91 747.061 231.441 847.61 204.039 912.601C191.459 942.415 166.025 949.582 151.366 978.248C134.137 1012 120.627 1042.58 120.518 1080.38L120.9 1080.71Z" fill="#F53636"/>
<path fill-rule="evenodd" clip-rule="evenodd" d="M61.829 1891.56H1712.94C1775.41 1891.56 1826 1840.9 1826 1778.48V421.506L-51.228 733.657V1778.48C-51.228 1840.9 -0.634058 1891.56 61.829 1891.56Z" fill="#5DA9C9"/>
<path fill-rule="evenodd" clip-rule="evenodd" d="M53.8981 715.932C51.4367 726.327 54.1168 737.924 61.3367 746.294C64.1262 760.572 74.7318 772.498 92.5136 770.31C96.0688 769.872 99.6788 769.435 103.234 768.997C84.1997 782.674 65.3788 796.733 46.7876 811.121C44.3809 812.981 42.1384 814.676 39.8958 816.427C33.9339 821.077 30.4881 826.384 29.1207 831.799C24.745 827.259 19.4942 824.305 14.0245 822.828C10.4146 811.011 5.9295 799.687 -0.087085 789.184C-2.22024 777.312 -3.91582 765.277 -5.28322 753.242C-6.48654 741.808 -11.9015 733.384 -19.1815 728.077L-51.228 733.384V1701.73C-41.4921 1705.4 -30.0059 1705.29 -20.981 1700.86C-11.1357 1703.81 0.131699 1702.99 8.7737 1697.79C9.15657 1698.72 9.48475 1699.65 9.92232 1700.58C15.2825 1712.89 25.7295 1717.6 36.5594 1717.05C36.8328 1744.95 69.5959 1756.33 88.9036 1743.75C88.6247 1749.93 88.302 1756.16 87.9738 1762.4C86.7705 1786.69 113.626 1799 133.262 1793.64C133.153 1796.59 133.043 1799.6 132.934 1802.55C132.163 1823.18 145.952 1833.52 161.157 1834.28C160.774 1838.39 160.446 1842.49 160.118 1846.59C156.946 1883.96 216.4 1891.29 225.042 1855.4C229.467 1836.91 233.958 1818.37 238.443 1799.87C254.305 1816.34 287.232 1816.18 294.397 1787.51C316.494 1698.45 326.941 1607.09 325.191 1515.35C324.923 1499.59 314.908 1488.87 300.961 1483.51C281.981 1476.23 267.536 1480.88 256.329 1492.21C257.368 1468.25 257.259 1444.34 255.125 1420.6C252.992 1397.13 233.849 1385.04 214.645 1389.42C215.744 1359.98 216.893 1330.55 217.987 1301.18C223.839 1301.5 229.91 1299.81 235.763 1295.38C238.005 1293.68 240.193 1291.93 242.436 1290.18L243.038 1289.69C268.471 1269.99 292.92 1249.21 316.221 1227.21C354.672 1195.05 393.725 1163.65 433.38 1132.96C481.075 1102.27 525.932 1066.65 570.285 1030.87C592.546 1012.88 574.989 978.958 551.797 974.089C605.29 927.152 658.893 880.324 712.768 833.824C728.193 820.475 725.622 803.024 715.175 791.317C734.428 775.288 753.681 759.205 772.934 743.176C791.312 727.858 782.834 702.913 766.097 691.917L766.535 691.534C776.599 687.267 786.663 683.054 796.672 678.787C819.426 669.159 816.965 643.611 803.072 628.622C818.988 626.105 834.905 623.589 850.822 621.072C870.458 617.954 877.677 596.892 873.192 579.715L53.8981 715.932Z" fill="#F0BA3C"/>
<path fill-rule="evenodd" clip-rule="evenodd" d="M-50.5717 1790.47C-46.7484 1827.78 -24.8699 1859.67 6.20297 1877.28L7.67977 1877.72C-24.0987 1860.33 -46.5789 1828.16 -50.5717 1790.47ZM-51.228 1778.92C-51.228 1782.59 -50.9545 1786.14 -50.6264 1789.65C-51.0092 1785.98 -51.228 1782.26 -51.228 1778.49V1778.92ZM-51.228 1763.5V733.658L-48.5479 733.165C-39.4191 744.216 -31.1545 756.087 -23.9893 768.888L-23.7213 769.381C-22.3484 771.842 -21.1451 774.359 -19.8324 776.821L-19.5589 776.711C-16.8788 782.127 -14.4175 787.707 -12.071 793.342C-10.2059 797.664 -8.46108 802.095 -6.87489 806.581C8.39082 850.236 10.0864 895.368 0.569264 937.383C-3.75173 962.438 -1.78267 987.821 5.8748 1011.29C6.47645 1013.15 7.13281 1015.06 7.84386 1016.92C14.1339 1033.23 23.1041 1048.33 34.6997 1061.51C39.1301 1066.05 43.8339 1070.32 48.9699 1074.31C63.1362 1085.36 76.05 1098.11 87.5362 1112.28C106.078 1134 121.065 1159.43 131.074 1188.04L131.457 1189.25L131.621 1189.69C146.171 1231.26 148.468 1274.15 140.427 1314.42C135.012 1341.82 136.976 1369.83 145.733 1395.33C154.867 1421.09 170.948 1444.23 193.264 1461.57C217.768 1480.67 238.662 1504.74 254.36 1532.91L254.688 1533.4C256.657 1537.01 258.626 1540.73 260.431 1544.45C260.704 1545.06 260.978 1545.66 261.251 1546.2C262.728 1549.32 264.145 1552.5 265.572 1555.67C266.502 1557.86 267.323 1559.94 268.143 1562.01C268.799 1563.55 269.401 1565.13 270.003 1566.72C270.489 1568.03 271.042 1569.29 271.479 1570.6C271.698 1571.15 271.862 1571.7 272.026 1572.24C286.794 1615.41 288.381 1659.88 278.973 1701.4C271.151 1746.76 283.841 1793.2 313.596 1827.17C318.081 1831.71 322.785 1836.04 327.92 1839.97C342.087 1851.03 355.001 1863.77 366.487 1877.94C370.206 1882.32 373.761 1886.86 377.147 1891.56H61.829C59.2036 1891.56 56.6875 1891.34 54.1715 1891.12L56.0859 1891.73C58.0003 1891.78 59.8599 1892 61.829 1892H609.557C609.606 1871.76 607.095 1851.79 602.173 1832.53C588.061 1777.5 608.189 1719.46 651.126 1682.2C682.084 1655.29 706.533 1620 720.48 1578.21C730.107 1549.49 733.826 1520.22 732.459 1491.66C732.076 1473.39 729.669 1455.39 725.239 1438C723.653 1431.76 722.504 1425.41 721.793 1419.12C719.058 1374.04 737.436 1329.51 771.403 1298.5C804.27 1271.42 830.25 1235.31 845.024 1192.15C845.242 1191.6 845.407 1191.05 845.625 1190.51C846.063 1189.19 846.386 1187.88 846.774 1186.51C847.266 1184.93 847.753 1183.29 848.245 1181.64C848.852 1179.51 849.454 1177.38 850.001 1175.24C850.876 1171.69 851.751 1168.3 852.462 1164.96C852.572 1164.3 852.736 1163.7 852.845 1163.1C853.715 1159 854.431 1154.89 855.088 1150.79L855.142 1150.24C859.956 1118.35 858.205 1086.51 850.548 1056.42C843.492 1029.01 844.969 1000.84 853.496 974.911C862.253 949.363 877.787 926.004 898.899 907.732C929.912 880.817 954.307 845.477 968.309 803.681L968.418 803.244L968.856 802.04C978.482 773.32 980.506 744.107 980.834 715.496C981.819 634.969 990.674 556.739 992.971 546.673L786.22 570.634L782.944 594.322C781.412 601.379 773.208 648.043 767.136 664.729C755.213 697.552 736.889 729.828 728.132 740.277C699.915 774.031 656.809 798.211 618.417 812.708C592.273 822.555 569.574 839.076 552.563 859.974C535.553 881.364 524.395 907.24 521.441 935.358C518.209 966.267 508.806 996.738 493.273 1024.97L492.999 1025.46C490.975 1029.07 488.842 1032.68 486.654 1036.24C486.271 1036.78 485.943 1037.28 485.615 1037.82C483.755 1040.72 481.786 1043.62 479.817 1046.47C478.505 1048.44 477.186 1050.24 475.824 1052.05C474.84 1053.41 473.855 1054.78 472.816 1056.09C471.941 1057.19 471.175 1058.34 470.3 1059.43L469.206 1060.74C440.381 1096.08 403.461 1120.98 363.26 1134.93C320.651 1152.27 287.943 1187.61 274.871 1230.82C273.339 1237.01 272.191 1243.3 271.534 1249.75C269.675 1267.64 281.489 1141.93 281.489 1141.93C261.415 1109.76 179.754 1064.03 145.405 965.009C123.417 901.66 155.742 811.778 119.916 705.594L108.211 707.563C76.9798 677.913 33.9339 636.829 13.2588 577.254C-8.72909 513.959 38.1455 468.772 2.31954 362.588C2.31954 362.588 -30.9357 330.366 -51.228 296.941V1763.5Z" fill="black"/>
<path fill-rule="evenodd" clip-rule="evenodd" d="M-51.228 314.118C-45.9772 319.041 -40.617 323.856 -34.9286 328.341C-19.8324 341.69 -8.01804 358.703 -0.743443 377.467C4.67148 391.855 7.1875 406.68 6.91402 421.506C6.91402 422.49 6.91402 423.475 6.85932 424.46C6.36706 429.274 5.60131 433.924 4.61678 438.246C1.93667 449.788 0.131695 461.66 -0.913002 473.64C-3.58765 497.601 -2.8766 521.891 1.28032 546.071C2.15545 551.104 3.08529 555.535 4.12451 560.13L4.56208 561.881C7.02341 572.33 9.70353 581.356 12.6024 589.507C18.7284 606.521 26.5499 622.768 35.9577 637.977C51.7649 664.017 72.1119 687.212 96.2329 706.304C107.774 716.534 117.34 728.952 124.511 742.629C133.7 760.846 138.349 781.087 137.693 801.328C137.2 806.471 136.38 811.394 135.341 815.99C131.403 832.948 129.209 850.892 128.887 869.164C128.558 877.424 128.613 885.849 129.105 894.164L129.16 895.532C129.16 896.407 129.209 897.282 129.269 898.103L129.433 899.689C130.637 916.046 133.481 932.404 137.802 948.268C139.711 955.325 141.631 961.617 143.764 967.47C145.788 973.05 148.03 978.739 150.437 984.21C167.278 1023.22 193.756 1057.73 226.951 1084.05C242.053 1097.34 253.867 1114.36 261.142 1133.17C261.361 1133.78 261.525 1134.32 261.689 1134.92H284.771C283.786 1131.75 282.796 1128.58 281.598 1125.41C272.956 1103.14 259.009 1083.06 241.178 1067.42L240.74 1067.03C210.274 1042.96 185.989 1011.34 170.51 975.457C168.268 970.369 166.189 965.227 164.324 960.085C162.465 954.833 160.665 949.089 158.915 942.524C154.922 927.972 152.351 912.983 151.203 898.103L151.093 896.626C151.038 895.969 151.038 895.313 150.984 894.657L150.929 892.961C150.492 885.302 150.437 877.588 150.765 869.82C151.038 852.861 153.062 836.395 156.617 820.913C157.925 815.278 158.915 809.315 159.516 803.079L159.571 802.422C160.009 790.223 158.751 778.078 156.016 766.262L156.617 766.098C153.773 754.336 149.398 742.957 143.764 732.235C135.286 715.604 123.69 700.451 109.415 687.868L108.977 687.54C87.4268 670.527 69.1583 649.957 54.8279 626.817C46.5141 613.195 39.5676 598.698 34.098 583.49L33.6605 582.231C23.7604 554.824 19.166 526.103 19.877 496.617C19.877 489.505 20.2544 482.503 20.9162 475.555C21.9008 466.638 23.3776 457.83 25.4013 449.077C27.1516 441.473 28.2455 433.814 28.6831 426.046L28.7925 425.335L28.8472 424.679C28.9019 422.873 28.9019 421.068 28.9019 419.263V418.168C28.9019 417.512 28.8472 416.801 28.8472 416.09C28.6831 406.571 27.5345 396.997 25.4013 387.369L25.0732 387.424C23.6511 381.516 21.9008 375.553 19.7129 369.699C11.1256 347.434 -2.8766 327.411 -20.7076 311.711L-21.1451 311.383C-32.0297 302.794 -42.0391 293.166 -51.228 282.826V314.118Z" fill="#F53636"/>
<path fill-rule="evenodd" clip-rule="evenodd" d="M120.135 1079.07C148.413 1103.91 242.326 1140.23 267.924 1167.75C279.355 1180.06 271.862 1244.06 277.326 1294.94C283.288 1350.63 302.383 1393.41 317.643 1403.75C356.751 1430.12 390.936 1374.43 400.945 1293.74C400.836 1257.63 375.894 1163.86 375.779 1139.08C382.895 1112.5 398.593 1059.49 411.392 1035.74C430.153 1000.95 463.9 970.808 474.84 932.514C487.803 887.053 459.579 839.35 450.987 793.451C444.1 756.58 453.284 713.307 472.816 677.858C478.887 666.862 481.075 655.045 479.981 643.831L490.155 642.08C490.155 642.08 557.048 557.45 562.627 526.815C567.604 499.462 538.178 390.98 538.014 364.065C545.124 337.478 560.877 284.468 573.676 260.726C592.436 225.933 626.129 195.735 637.069 157.496C650.086 112.035 621.863 64.3314 613.27 18.4332C606.384 -18.4385 615.567 -61.7109 635.099 -97.1603C653.368 -130.367 636.686 -170.357 600.75 -181.517C587.459 -185.674 574.545 -185.456 562.736 -182.118C566.997 -223.968 486.763 -287.099 441.092 -257.996C386.56 -223.312 369.002 -161.002 357.462 -96.6132C345.434 -29.5985 384.208 48.0838 356.805 113.074C344.28 142.834 322.237 167.616 307.633 196.282C290.295 230.09 282.036 266.087 282.036 304.053C282.036 340.87 300.791 445.631 302.164 482.339C302.437 489.396 292.428 504.495 279.027 523.04C231.442 558.873 205.959 618.338 195.178 678.405C183.145 745.42 230.676 846.024 203.273 910.959C190.693 940.774 165.259 947.995 150.601 976.606C133.371 1010.36 119.856 1040.94 119.807 1078.8L120.135 1079.07Z" fill="#F53636"/>
<path fill-rule="evenodd" clip-rule="evenodd" d="M-52 731.525L-49.3144 731.087C-40.1802 742.137 -31.9265 754.009 -24.7558 766.81L-24.4823 767.302C-23.1149 769.709 -21.9116 772.226 -20.5989 774.742L-20.3254 774.633C-17.6453 780.049 -15.184 785.629 -12.8321 791.263C-10.9779 795.585 -9.22211 799.962 -7.63592 804.502C7.62431 848.157 9.31989 893.235 -0.197242 935.304C-4.51824 960.359 -2.54918 985.743 5.10829 1009.21C5.70448 1011.07 6.3663 1012.99 7.07735 1014.79C13.3674 1031.15 22.3376 1046.25 33.9332 1059.43C38.3636 1063.92 43.062 1068.24 48.2089 1072.23C62.3752 1083.23 75.2835 1096.03 86.7697 1110.2C105.312 1131.92 120.293 1157.36 130.308 1185.97L130.691 1187.17L130.855 1187.61C145.404 1229.18 147.701 1272.07 139.661 1312.34C134.246 1339.74 136.215 1367.7 144.966 1393.25C154.101 1419.01 170.181 1442.15 192.497 1459.5C217.001 1478.59 237.895 1502.66 253.648 1530.83L253.921 1531.32C255.94 1534.94 257.859 1538.65 259.664 1542.37C259.938 1542.98 260.211 1543.52 260.479 1544.13C260.917 1545.06 261.36 1546.04 261.797 1546.97C262.891 1543.52 263.985 1540.08 265.019 1536.63C272.135 1512.56 278.152 1488.16 283.02 1463.54C285.754 1449.87 288.046 1436.14 290.24 1422.35C290.294 1421.69 290.404 1421.04 290.458 1420.44C291.06 1414.69 291.771 1408.89 292.373 1403.15C293.297 1393.85 294.014 1384.49 294.67 1375.14C288.27 1371.15 283.238 1364.47 281.051 1354.68C270.549 1307.47 259.883 1243.74 275.636 1194.12C278.152 1166.93 280.722 1139.85 280.722 1139.85C260.649 1107.68 178.987 1061.89 144.638 962.93C122.65 899.581 154.97 809.699 119.15 703.515L107.445 705.485C76.2133 675.779 33.1674 634.75 12.4923 575.175C-9.49559 511.881 37.379 466.693 1.55304 360.509C1.55304 360.509 -31.7022 328.288 -52 294.862V731.525Z" fill="black"/>
<path fill-rule="evenodd" clip-rule="evenodd" d="M228.707 843.617C227.886 831.527 225.644 819.437 221.815 807.784L221.596 807.237C214.322 788.364 209.563 768.779 207.321 748.866C206.883 745.201 206.5 741.536 206.281 737.816L206.227 736.831C206.002 732.619 205.898 728.351 205.898 724.139C205.898 723.1 205.898 722.06 205.898 721.021C205.959 717.848 206.063 714.73 206.227 711.611C206.336 709.642 206.44 707.673 206.555 705.758C206.713 703.679 206.938 701.655 207.151 699.631C207.868 692.847 208.743 686.119 210.061 679.444L210.329 678.186C215.744 649.52 226.355 622.386 241.943 597.386C245.22 591.806 248.835 586.445 252.5 581.193C258.183 573.589 264.259 566.258 270.823 559.365C276.292 553.621 281.215 547.494 285.591 540.929L285.81 540.546L286.192 539.999C286.898 538.905 287.56 537.811 288.216 536.662C291.17 531.848 293.85 526.76 296.251 521.563L295.983 521.071C298.062 516.421 299.867 511.552 301.453 506.629L301.617 506.191L301.726 505.808C303.531 499.9 305.063 493.827 306.157 487.591C306.704 484.254 307.141 480.917 307.469 477.525C307.962 474.079 308.29 470.851 308.399 468.116C308.514 465.982 308.558 463.849 308.558 461.715C308.618 446.014 306.211 430.259 301.289 415.16L301.064 414.613C291.225 389.12 285.919 362.315 285.317 335.29C285.044 319.152 286.411 302.904 289.474 286.82L289.748 285.562C295.163 256.842 305.774 229.762 321.417 204.762C324.699 199.182 328.254 193.821 331.973 188.569C337.607 180.965 343.673 173.634 350.291 166.741C355.766 160.997 360.689 154.87 365.01 148.305L365.283 147.922L365.666 147.375C366.377 146.281 367.033 145.132 367.69 144.038C370.643 139.169 373.324 134.136 375.675 128.885L375.342 128.228C377.316 123.688 379.121 119.092 380.593 114.388C380.593 114.388 386.937 89.2776 387.38 76.3123C387.49 74.1788 387.545 72.0453 387.545 69.9117C387.599 54.1564 385.193 38.4558 380.27 23.3023L380.051 22.7553C370.206 -2.68292 364.955 -29.4888 364.299 -56.5682C364.025 -72.6518 365.393 -88.8994 368.51 -105.038L368.729 -106.296C374.193 -134.962 384.81 -162.041 400.393 -187.042C403.68 -192.622 407.29 -197.983 410.954 -203.235C416.588 -210.839 422.714 -218.169 429.278 -225.062C434.747 -230.806 439.67 -236.988 443.991 -243.553L444.264 -243.881L444.642 -244.428C445.358 -245.522 446.015 -246.671 446.671 -247.765C449.619 -252.634 452.305 -257.667 454.711 -262.919C449.734 -272.109 440.266 -286.114 440.108 -286.825C438.024 -277.744 436.875 -276.486 432.888 -268.335C432.231 -266.967 431.52 -265.599 430.809 -264.232C429.879 -262.481 428.84 -260.731 427.801 -258.98C426.816 -257.339 425.717 -255.807 424.629 -254.221C422.113 -250.938 419.542 -247.82 416.916 -245.085C408.274 -236.058 400.343 -226.211 393.069 -215.872C379.121 -196.943 367.69 -176.21 359.212 -153.781C357.407 -148.966 355.93 -144.754 354.508 -140.268L354.016 -138.463C350.843 -128.233 348.491 -119.097 346.905 -110.618C343.514 -92.8382 341.983 -74.8947 342.365 -57.0059C342.748 -26.5894 348.491 3.66293 359.54 32.3835C364.135 46.3882 366.049 61.2682 365.502 76.0388C364.463 97.1005 358.173 117.725 346.96 135.34C343.897 139.552 340.719 143.382 337.497 146.773C325.464 159.411 314.47 173.798 304.893 189.335C303.799 191.031 302.82 192.672 301.836 194.313C300.14 197.048 298.499 199.783 296.913 202.573C295.764 204.598 294.67 206.676 293.576 208.755C293.139 209.466 292.756 210.232 292.373 210.943L291.717 212.147C291.279 212.913 290.896 213.679 290.513 214.445L289.802 215.867C289.195 217.18 288.599 218.493 288.003 219.806C287.505 220.845 287.013 221.939 286.521 223.033C283.348 230.036 280.449 237.148 277.933 244.423L277.66 245.189C275.74 250.715 273.935 256.295 272.409 261.984C270.385 269.041 268.908 275.442 267.76 281.569C266.611 287.368 265.681 293.385 264.97 299.348C259.665 341.526 264.916 384.689 280.121 424.187C286.357 443.334 287.888 464.013 284.606 483.926C283.944 487.755 283.075 491.53 282.036 495.25L281.871 495.852C280.832 499.517 279.684 503.127 278.316 506.683L278.152 507.066C277.003 510.075 275.636 512.975 274.214 515.874C273.776 516.804 273.284 517.789 272.786 518.719C271.534 521.18 270.166 523.587 268.684 525.94L267.973 527.198C264.916 531.356 261.743 535.185 258.461 538.577C252.007 545.415 245.827 552.746 240.029 560.459C238.99 561.827 238.005 563.249 237.015 564.617C235.489 566.75 233.958 568.829 232.481 571.017C230.676 573.643 228.98 576.269 227.339 578.95C226.847 579.661 226.355 580.372 225.917 581.138L225.042 582.56C224.55 583.272 224.112 584.037 223.62 584.803L223.122 585.624L222.526 586.609C221.049 589.016 219.627 591.423 218.205 593.884C217.653 594.814 217.111 595.745 216.564 596.729C215.744 598.261 214.918 599.847 214.103 601.434L213.611 602.309L213.337 602.747L212.735 603.95L212.243 604.826C211.095 607.123 209.946 609.476 208.852 611.828C208.3 613.031 207.703 614.126 207.211 615.329C205.023 620.143 202.945 624.957 201.085 629.881L200.752 630.647C199.772 633.273 198.897 635.734 198.077 638.141C197.798 639.017 197.475 639.947 197.202 640.822C196.819 641.916 196.436 643.065 196.053 644.159L195.561 645.965C195.282 646.785 195.069 647.606 194.795 648.481C194.522 649.466 194.193 650.396 193.92 651.38C191.568 659.477 189.763 666.862 188.445 673.81C186.7 683.055 185.442 692.355 184.731 701.655L184.567 702.749C184.02 710.955 183.746 719.216 183.911 727.421C184.293 757.838 190.031 788.09 201.14 816.811C205.68 830.87 207.589 845.696 207.102 860.466C206.336 875.62 202.835 890.445 196.819 904.176C196.436 905.051 196.053 905.927 195.67 906.747C194.905 908.334 194.133 909.811 193.373 911.343C192.06 913.804 190.693 916.266 189.216 918.673L188.779 919.384C185.716 923.542 182.538 927.371 179.316 930.763C165.97 944.768 154.046 960.523 144.146 977.427C143.49 978.412 142.943 979.451 142.341 980.436C141.248 982.296 140.099 984.101 139.06 986.016C137.692 988.368 136.434 990.721 135.116 993.128C134.739 993.894 134.301 994.605 133.918 995.371L133.262 996.574C132.824 997.34 132.441 998.106 132.059 998.872L131.402 1000.29C130.527 1002.1 129.707 1003.9 128.886 1005.71C128.285 1007.02 127.628 1008.34 127.027 1009.7C125.823 1012.38 124.669 1015.17 123.581 1017.91C123.253 1018.73 122.87 1019.61 122.541 1020.43C121.283 1023.71 120.08 1027.05 118.931 1030.38L118.658 1031.15C118.002 1033.12 117.4 1035.03 116.744 1037C123.854 1041.38 130.035 1047.29 134.52 1054.78C136.872 1045.65 139.711 1036.67 143.107 1027.92L143.321 1027.43C144.584 1024.31 145.897 1021.14 147.264 1018.07L147.866 1016.76C150.054 1011.89 152.46 1007.13 154.971 1002.37C155.961 1000.57 156.945 998.763 157.985 996.903C159.024 995.152 160.063 993.401 161.157 991.596C162.415 989.572 163.618 987.493 164.931 985.414C173.846 970.972 183.911 957.843 194.844 946.3C198.843 942.142 202.726 937.492 206.391 932.404L206.774 931.857L206.992 931.474C217.056 915.774 223.839 898.323 227.175 879.449C229.144 867.578 229.637 855.543 228.707 843.617ZM758.768 54.1017C748.922 28.6635 743.617 1.85764 742.955 -25.2218C742.736 -41.3053 744.103 -57.5529 747.172 -73.6912L747.445 -74.9494C752.86 -103.615 763.466 -130.695 779.115 -155.695C779.115 -155.75 766.097 -162.971 760.026 -167.129C750.673 -152.468 744.164 -139.01 737.928 -122.434C736.123 -117.675 734.647 -113.408 733.224 -108.922L732.672 -107.171C729.505 -96.8865 727.208 -87.8053 725.622 -79.2711C722.225 -61.4917 720.699 -43.5482 721.076 -25.6594C721.465 4.75704 727.208 35.0094 738.257 63.7299C742.796 77.7346 744.765 92.6147 744.218 107.385C743.124 128.447 736.889 149.071 725.676 166.686C722.613 170.844 719.441 174.728 716.159 178.12C704.175 190.702 693.132 205.09 683.615 220.626C682.74 221.994 681.919 223.362 681.099 224.729C673.77 236.108 668.245 246.83 663.153 258.811C660.807 264.282 658.674 269.916 656.704 275.551L656.322 276.645C654.407 282.116 652.602 287.696 651.071 293.276C649.102 300.388 647.57 306.788 646.422 312.86C645.328 318.714 644.398 324.732 643.687 330.695C638.321 372.873 643.577 416.036 658.832 455.533C665.073 474.68 666.599 495.359 663.323 515.272C662.612 519.102 661.737 522.876 660.752 526.596L660.588 527.143C659.543 530.863 658.345 534.474 656.978 538.03L656.869 538.358C655.665 541.367 654.353 544.321 652.93 547.22C652.438 548.15 651.995 549.135 651.508 550.065C650.25 552.527 648.828 554.934 647.406 557.286L646.695 558.49C643.632 562.702 640.4 566.531 637.172 569.923C630.724 576.707 624.543 584.092 618.691 591.806C617.706 593.173 616.722 594.596 615.737 595.963C614.206 598.097 612.619 600.176 611.143 602.364C609.392 604.935 607.697 607.616 606.001 610.296C605.564 611.007 605.066 611.719 604.579 612.484C603.868 613.579 603.212 614.727 602.555 615.822L601.844 616.97L601.62 617.353C600.586 618.83 599.815 620.307 598.891 621.784C598.562 622.332 598.234 622.879 597.906 623.426C590.522 635.844 584.834 647.77 579.473 661.993C577.668 666.807 576.192 671.02 574.764 675.506L574.223 677.311C571.05 687.541 568.753 696.677 567.167 705.156C563.776 722.936 562.239 740.879 562.627 758.768C563.01 789.184 568.753 819.437 579.802 848.157C584.396 862.162 586.31 877.042 585.764 891.813C584.992 906.911 581.552 921.791 575.481 935.523C575.098 936.343 574.764 937.273 574.332 938.094C573.621 939.68 572.855 941.157 572.089 942.634C570.777 945.151 569.409 947.613 567.878 949.965L567.435 950.731C564.432 954.888 561.26 958.718 558.033 962.11C544.681 976.114 532.763 991.87 522.808 1008.77C522.207 1009.76 521.66 1010.74 521.113 1011.67C519.964 1013.59 518.815 1015.45 517.727 1017.42C516.846 1018.95 515.966 1020.54 515.151 1022.07C514.276 1023.65 513.4 1025.19 512.58 1026.72L511.978 1027.92C511.541 1028.69 511.152 1029.45 510.775 1030.22L510.064 1031.64C502.844 1046.36 496.937 1061.89 492.616 1077.76C490.641 1084.81 489.115 1091.22 487.967 1097.34C486.873 1103.14 485.943 1109.16 485.232 1115.12C479.926 1157.3 485.123 1200.46 500.383 1240.02C506.613 1259.11 508.15 1279.79 504.868 1299.7C502.024 1315.51 496.39 1330.17 488.076 1343.3C485.013 1347.46 481.841 1351.29 478.559 1354.73C465.213 1368.74 453.344 1384.49 443.389 1401.4C439.451 1407.63 435.896 1414.03 432.559 1420.49L460.236 1415.89C460.837 1414.86 461.439 1413.82 462.095 1412.78C471.339 1397.08 482.224 1382.63 494.421 1369.83C498.408 1365.62 502.297 1360.97 505.962 1355.94L506.29 1355.39C516.299 1339.74 523.082 1322.29 526.413 1303.36C530.302 1279.84 528.442 1255.44 521.113 1232.9L520.894 1232.36C506.892 1196.14 502.024 1156.53 506.946 1117.8C507.603 1112.28 508.418 1106.75 509.462 1101.45C510.502 1095.92 511.924 1090.12 513.729 1083.56C517.667 1069 523.082 1054.78 529.64 1041.38L530.302 1040.01C530.63 1039.46 530.903 1038.86 531.226 1038.31L531.997 1036.78C534.404 1032.24 536.974 1027.7 539.655 1023.27L539.868 1022.89C541.131 1020.86 542.335 1018.78 543.647 1016.76C552.508 1002.32 562.572 989.134 573.566 977.646C577.559 973.488 581.443 968.784 585.107 963.751L585.49 963.204L585.703 962.821C595.773 947.12 602.501 929.669 605.892 910.741C607.806 898.924 608.353 886.889 607.423 874.963C606.603 862.873 604.355 850.783 600.526 839.131L600.313 838.584C593.038 819.71 588.28 800.126 585.982 780.213C585.599 776.547 585.211 772.827 584.992 769.162L584.943 768.177C584.724 763.965 584.615 759.698 584.555 755.486C584.555 754.446 584.615 753.352 584.615 752.313C584.615 749.194 584.779 746.076 584.888 742.958C584.992 740.989 585.107 739.019 585.271 737.05C585.435 735.026 585.654 733.001 585.873 730.923C586.529 724.194 587.459 717.465 588.772 710.791L588.991 709.478C594.406 680.812 605.017 653.733 620.66 628.732L620.386 628.568L621.152 627.255C622.191 625.559 623.34 623.863 624.379 622.167C625.965 619.651 627.551 617.189 629.192 614.782C630.56 612.758 631.976 610.789 633.459 608.764C634.334 607.561 635.154 606.357 636.079 605.154C641.335 598.206 646.914 591.587 652.876 585.405C656.869 581.193 660.752 576.488 664.417 571.455L664.745 570.908C666.44 568.337 667.972 565.656 669.449 562.921L669.777 562.319C671.139 559.803 672.457 557.286 673.655 554.66C676.231 549.135 678.364 543.61 680.169 537.975L680.333 537.537L680.388 537.154C682.248 531.246 683.779 525.174 684.873 518.938C685.42 515.6 685.803 512.263 686.131 508.926C686.623 505.48 687.006 502.198 687.061 499.462C687.17 497.329 687.28 495.195 687.28 493.062C687.28 477.361 684.928 461.606 679.95 446.452L679.786 445.905C669.941 420.467 664.635 393.661 663.979 366.636C663.76 350.498 665.128 334.25 668.191 318.112L668.464 316.854C673.879 288.188 684.49 261.109 700.133 236.108L699.854 235.944C700.626 234.741 701.337 233.537 702.102 232.333C710.963 217.891 721.027 204.707 732.021 193.219C736.014 189.061 739.897 184.356 743.562 179.323L743.945 178.776C750.508 168.492 755.595 157.332 759.315 145.734C759.315 145.734 765.659 120.624 766.097 107.659C766.152 105.525 766.261 103.392 766.261 101.258C766.316 85.5029 763.904 69.8024 758.986 54.6488L758.768 54.1017ZM464.776 982.898L465.153 982.351L465.377 981.968C475.441 966.267 482.169 948.816 485.56 929.888C487.474 918.071 488.021 906.036 487.092 894.11C486.271 882.02 484.029 869.93 480.194 858.278L479.981 857.731C472.706 838.857 467.948 819.273 465.651 799.36C465.268 795.694 464.879 791.974 464.666 788.309L464.611 787.324C464.398 783.112 464.283 778.845 464.229 774.633C464.229 773.593 464.283 772.499 464.283 771.46C464.283 768.341 464.442 765.223 464.557 762.105C464.666 760.136 464.776 758.166 464.94 756.197C465.104 754.173 465.323 752.148 465.541 750.07C466.198 743.341 467.127 736.612 468.44 729.938L468.659 728.625C474.074 699.959 484.685 672.88 500.328 647.879L500.055 647.715L500.82 646.402C501.86 644.706 503.008 643.01 504.047 641.314C505.634 638.798 507.22 636.336 508.861 633.929C510.228 631.905 511.65 629.936 513.127 627.911C514.002 626.708 514.817 625.504 515.752 624.301C521.003 617.353 526.582 610.734 532.544 604.552C536.537 600.34 540.42 595.635 544.085 590.602L544.413 590.055C546.109 587.484 547.635 584.803 549.117 582.068L549.44 581.466C550.813 578.95 552.125 576.433 553.329 573.807C555.899 568.282 558.033 562.757 559.838 557.122L560.002 556.685L560.056 556.302C561.916 550.393 563.447 544.321 564.541 538.085C565.088 534.748 565.471 531.41 565.799 528.073C566.292 524.627 566.675 521.345 566.729 518.609C566.839 516.476 566.948 514.342 566.948 512.209C566.948 496.508 564.596 480.753 559.619 465.599L559.455 465.052C549.609 439.614 544.304 412.808 543.647 385.783C543.429 369.645 544.796 353.397 547.859 337.259L548.133 336.001C553.542 307.335 564.159 280.256 579.802 255.255L579.528 255.091C580.294 253.888 581.005 252.684 581.771 251.481C590.631 237.038 600.696 223.854 611.684 212.366C615.682 208.208 619.566 203.503 623.23 198.471L623.613 197.923C630.177 187.639 635.264 176.479 638.983 164.881C638.983 164.881 645.328 139.771 645.765 126.806C645.82 124.672 645.929 122.539 645.929 120.405C645.984 104.65 643.577 88.9494 638.655 73.7959L638.436 73.2488C628.591 47.8106 623.28 21.0047 622.623 -6.07471C622.41 -22.1582 623.772 -38.4059 626.84 -54.5441L627.114 -55.8024C632.529 -84.4682 643.134 -111.548 658.783 -136.548C658.783 -136.603 645.765 -143.824 639.688 -147.982C630.335 -133.321 623.832 -119.863 617.597 -103.287C615.786 -98.5276 614.315 -94.2606 612.893 -89.7747L612.346 -88.0241C609.168 -77.7394 606.871 -68.6582 605.29 -60.1241C601.899 -42.3447 600.367 -24.4012 600.75 -6.51236C601.133 23.9041 606.871 54.1564 617.925 82.877C622.465 96.8817 624.428 111.762 623.887 126.532C622.793 147.594 616.557 168.218 605.345 185.833C602.282 189.991 599.109 193.875 595.828 197.267C583.844 209.849 572.801 224.237 563.283 239.773C562.408 241.141 561.588 242.509 560.767 243.876C553.438 255.255 547.914 265.978 542.822 277.958C540.475 283.429 538.342 289.063 536.373 294.698L535.985 295.792C534.076 301.263 532.271 306.843 530.739 312.423C528.77 319.535 527.239 325.935 526.09 332.008C524.996 337.861 524.066 343.879 523.355 349.842C517.995 392.02 523.246 435.183 538.506 474.68C544.741 493.828 546.273 514.506 542.991 534.419C542.28 538.249 541.405 542.023 540.42 545.743L540.256 546.29C539.217 550.01 538.014 553.621 536.646 557.177L536.537 557.505C535.328 560.514 534.021 563.468 532.599 566.367C532.107 567.297 531.664 568.282 531.177 569.212C529.919 571.674 528.497 574.081 527.075 576.433L526.363 577.637C523.3 581.849 520.068 585.679 516.846 589.07C510.392 595.854 504.212 603.239 498.359 610.953C497.374 612.32 496.39 613.743 495.405 615.11C493.868 617.244 492.288 619.323 490.811 621.511C489.055 624.082 487.365 626.763 485.664 629.443C485.232 630.154 484.74 630.866 484.247 631.631C483.536 632.726 482.88 633.874 482.224 634.969L481.513 636.117L481.288 636.5C480.255 637.977 479.489 639.454 478.559 640.932C478.231 641.479 477.897 642.026 477.574 642.573C470.19 654.991 464.502 666.917 459.142 681.14C457.337 685.954 455.86 690.167 454.432 694.653L453.891 696.458C450.719 706.688 448.421 715.824 446.835 724.303C443.444 742.083 441.913 760.026 442.295 777.915C442.678 808.332 448.421 838.584 459.47 867.304C464.064 881.309 465.979 896.189 465.432 910.96C464.666 926.058 461.22 940.939 455.149 954.67C454.766 955.49 454.432 956.42 454 957.241C453.284 958.827 452.524 960.304 451.758 961.781C450.445 964.298 449.078 966.76 447.546 969.112L447.109 969.878C444.1 974.036 440.928 977.865 437.701 981.257C424.355 995.261 412.431 1011.02 402.477 1027.92C401.875 1028.91 401.328 1029.89 400.781 1030.82C399.632 1032.73 398.484 1034.59 397.39 1036.56C396.515 1038.1 395.64 1039.68 394.819 1041.21C393.944 1042.8 393.069 1044.33 392.248 1045.86L391.647 1047.07C391.209 1047.83 390.826 1048.6 390.443 1049.37L389.732 1050.79C382.512 1065.5 376.605 1081.04 372.284 1096.9C370.315 1103.96 368.784 1110.36 367.635 1116.49C366.541 1122.29 365.611 1128.31 364.9 1134.27C359.595 1176.45 364.791 1219.61 380.051 1259.16C386.286 1278.25 387.818 1298.93 384.536 1318.85C381.692 1334.66 376.058 1349.32 367.744 1362.45C364.681 1366.6 361.509 1370.43 358.222 1373.88C344.881 1387.83 333.012 1403.64 323.058 1420.54C329.069 1424.7 333.833 1429.79 337.443 1435.48L339.904 1435.04C340.506 1434 341.107 1432.96 341.764 1431.92C351.007 1416.22 361.887 1401.78 374.089 1388.98C378.082 1384.77 381.966 1380.12 385.63 1375.08L385.958 1374.54C395.968 1358.89 402.75 1341.44 406.087 1322.51C409.964 1298.99 408.11 1274.59 400.781 1252.05L400.562 1251.5C386.56 1215.29 381.692 1175.68 386.615 1136.95C387.271 1131.42 388.086 1125.9 389.131 1120.59C390.17 1115.07 391.592 1109.27 393.397 1102.7C397.335 1088.15 402.75 1073.93 409.308 1060.53L409.964 1059.16C410.298 1058.61 410.572 1058.01 410.9 1057.46L411.666 1055.93C414.067 1051.39 416.643 1046.85 419.318 1042.42L419.542 1042.03C420.8 1040.01 422.003 1037.93 423.316 1035.91C432.177 1021.47 442.241 1008.28 453.235 996.793C457.227 992.635 461.111 987.931 464.776 982.898ZM336.786 956.967L337.115 956.42L337.333 956.037C347.398 940.282 354.18 922.885 357.516 903.957C359.485 892.086 359.978 880.051 359.048 868.18C358.222 856.035 355.979 844 352.156 832.293L351.992 831.746C344.663 812.872 339.904 793.287 337.662 773.429C337.229 769.709 336.841 766.044 336.617 762.324L336.568 761.394C336.349 757.127 336.24 752.914 336.24 748.647C336.24 747.608 336.24 746.569 336.24 745.529C336.294 742.411 336.404 739.293 336.568 736.12C336.677 734.205 336.786 732.236 336.896 730.266C337.06 728.187 337.273 726.163 337.497 724.139C338.209 717.41 339.138 710.681 340.396 703.953L340.67 702.694C346.085 674.029 356.696 646.949 372.339 621.949C375.621 616.369 379.176 611.007 382.835 605.756C385.575 602.09 387.326 599.793 390.279 596.292L389.623 595.963C394.327 589.891 399.244 584.092 404.495 578.567C408.493 574.355 412.377 569.704 416.041 564.672L416.424 564.124C418.065 561.499 419.651 558.818 421.128 556.137L421.401 555.536C422.763 553.019 424.082 550.448 425.285 547.822C427.856 542.352 429.989 536.826 431.848 531.137L431.958 530.699L432.062 530.371C433.872 524.463 435.404 518.39 436.498 512.154C437.099 508.817 437.482 505.48 437.81 502.088C438.303 498.642 438.631 495.359 438.74 492.679C438.85 490.545 438.904 488.357 438.904 486.223C438.959 470.523 436.552 454.767 431.624 439.669L431.411 439.122C421.566 413.629 416.315 386.823 415.653 359.798C415.385 343.66 416.752 327.467 419.87 311.329L420.089 310.07C425.558 281.405 436.115 254.325 451.758 229.325C455.04 223.745 458.595 218.383 462.314 213.132C465.049 209.466 466.799 207.169 469.693 203.668L469.097 203.394C473.746 197.431 478.614 191.742 483.646 186.435C487.639 182.223 491.522 177.573 495.187 172.485L495.569 171.938C502.133 161.653 507.274 150.548 510.939 138.896C510.939 138.896 517.339 113.786 517.727 100.875C517.831 98.687 517.886 96.5535 517.886 94.4199C517.94 78.7194 515.588 62.9641 510.611 47.8653L510.447 47.3182C500.547 21.8253 495.296 -4.98062 494.64 -32.0053C494.366 -48.1435 495.788 -64.3911 498.846 -80.4747L499.125 -81.7329C504.54 -110.399 515.151 -137.478 530.739 -162.479C534.076 -168.059 537.625 -173.42 541.296 -178.672C544.03 -182.337 545.781 -184.635 548.679 -188.136C548.133 -188.245 530.192 -198.639 529.317 -199.022C528.114 -197.436 524.613 -192.95 523.459 -191.363C509.462 -172.435 498.031 -151.702 489.553 -129.218C487.748 -124.458 486.326 -120.191 484.849 -115.705L484.357 -113.955C481.184 -103.725 478.832 -94.5888 477.246 -86.0547C473.855 -68.33 472.378 -50.3865 472.706 -32.4976C473.084 -2.02648 478.832 28.2258 489.936 56.8917C494.476 70.9511 496.39 85.7765 495.898 100.547C494.804 121.664 488.568 142.233 477.301 159.903C474.293 164.061 471.066 167.89 467.839 171.336C455.805 183.919 444.811 198.306 435.24 213.843C434.146 215.539 433.161 217.235 432.177 218.876C430.476 221.611 428.84 224.292 427.309 227.082C426.16 229.106 425.006 231.185 423.917 233.209C423.535 233.975 423.097 234.741 422.714 235.506L422.058 236.655C421.675 237.421 421.237 238.187 420.854 239.008L420.198 240.375C419.542 241.688 418.995 243.001 418.393 244.259C417.846 245.353 417.354 246.502 416.802 247.596C413.635 254.599 410.79 261.711 408.274 268.932L408.001 269.698C406.087 275.278 404.282 280.858 402.75 286.492C400.781 293.549 399.244 299.95 398.101 306.077C396.952 311.93 396.022 317.948 395.311 323.856C390.006 366.035 395.257 409.197 410.457 448.75C416.698 467.897 418.229 488.576 414.947 508.434C414.291 512.318 413.41 516.093 412.377 519.813L412.213 520.36C411.173 524.025 410.025 527.636 408.657 531.192L408.493 531.575C407.345 534.583 405.977 537.537 404.61 540.382C404.117 541.367 403.62 542.297 403.133 543.282C401.875 545.689 400.508 548.096 399.085 550.448L398.32 551.706C395.257 555.864 392.084 559.693 388.857 563.14C382.354 569.923 376.168 577.309 370.37 585.022C369.331 586.335 368.401 587.703 367.416 589.07C365.885 591.204 364.299 593.337 362.822 595.58C361.017 598.151 359.371 600.777 357.68 603.458C357.243 604.169 356.696 604.88 356.258 605.646L355.383 607.069C354.891 607.834 354.453 608.6 353.961 609.366L353.469 610.187L352.648 611.5C351.445 613.524 350.242 615.493 349.038 617.517C348.491 618.502 347.944 619.487 347.398 620.472C346.577 621.949 345.757 623.426 344.936 624.957C344.329 626.106 343.673 627.255 343.077 628.459C342.639 629.224 342.256 629.99 341.873 630.811L341.162 632.233L340.998 632.671C340.287 634.093 339.57 635.516 338.92 636.938C338.318 638.251 337.711 639.564 337.06 640.932C335.2 645.089 333.45 649.301 331.809 653.569C331.59 654.116 331.317 654.663 331.098 655.21C329.293 659.969 327.871 664.236 326.449 668.722L325.902 670.473C322.73 680.757 320.378 689.839 318.791 698.373C315.4 716.097 313.923 734.096 314.246 751.93C314.634 782.401 320.378 812.653 331.481 841.319C336.021 855.379 337.935 870.258 337.443 885.029C336.677 900.128 333.171 915.008 327.16 928.739C326.777 929.56 326.394 930.435 326.011 931.31C325.3 932.842 324.48 934.374 323.714 935.851C322.401 938.367 321.034 940.829 319.557 943.181L319.12 943.947C316.106 948.05 312.884 951.88 309.657 955.271C296.311 969.276 284.442 985.086 274.487 1001.99C273.612 1003.36 272.786 1004.78 271.917 1006.2C271.26 1007.35 270.549 1008.45 269.893 1009.59C268.033 1012.88 266.228 1016.16 264.478 1019.5L264.259 1019.93L263.603 1021.14C263.22 1021.9 262.777 1022.67 262.4 1023.43L261.743 1024.86C261.415 1025.46 261.196 1026.06 260.868 1026.66C260.54 1027.37 260.212 1028.14 259.884 1028.85C253.484 1042.36 248.233 1056.48 244.295 1070.92C242.326 1078.03 240.795 1084.43 239.646 1090.5C238.497 1096.36 237.568 1102.38 236.856 1108.34C231.551 1150.46 236.802 1193.68 252.062 1233.18C258.243 1252.32 259.769 1273 256.492 1292.86C253.703 1308.73 248.069 1323.39 239.701 1336.52C236.692 1340.67 233.465 1344.5 230.238 1347.9C225.972 1352.38 221.924 1357.03 218.041 1361.85C218.479 1372.13 218.588 1382.41 218.369 1392.86C220.502 1391.39 222.69 1390.02 224.987 1388.76C231.442 1379.62 238.443 1370.98 246.045 1362.99C250.038 1358.84 253.922 1354.13 257.586 1349.1L257.969 1348.55C267.973 1332.96 274.706 1315.51 278.097 1296.58C281.981 1273 280.121 1248.66 272.737 1226.12L272.573 1225.57C258.516 1189.36 253.703 1149.75 258.571 1110.96C259.227 1105.49 260.102 1099.97 261.142 1094.61C262.181 1089.08 263.548 1083.28 265.408 1076.77C266.228 1073.65 267.158 1070.59 268.143 1067.58C271.206 1058.06 274.761 1048.82 278.918 1039.79C280.778 1035.63 282.796 1031.64 284.934 1027.7C285.531 1026.61 286.138 1025.51 286.739 1024.42C288.484 1021.3 290.295 1018.13 292.149 1015.06C293.194 1013.37 294.178 1011.67 295.272 1009.98C304.188 995.535 314.246 982.351 325.191 970.863C329.184 966.705 333.067 962 336.786 956.967Z" fill="black"/>
<path fill-rule="evenodd" clip-rule="evenodd" d="M-34.8793 330.147C-19.8324 343.495 -7.96881 360.509 -0.688747 379.273C4.67148 393.661 7.18751 408.486 6.96872 423.311C6.96872 424.296 6.91403 425.281 6.91403 426.265C6.36706 431.079 5.65601 435.729 4.61679 440.051C1.93667 451.594 0.186394 463.52 -0.852834 475.446C-3.53295 499.407 -2.87659 523.696 1.32955 547.876C2.21015 552.909 3.08529 557.341 4.17922 561.936L4.61679 563.741C7.07811 574.135 9.70353 583.216 12.6571 591.313C18.7831 608.326 26.6047 624.574 35.9577 639.782C51.8196 665.822 72.1119 689.018 96.2329 708.11C107.828 718.34 117.4 730.758 124.566 744.435C133.645 762.542 138.349 782.674 137.747 802.806C137.2 807.729 136.489 812.489 135.45 816.865C132.442 829.666 130.473 843.069 129.598 856.691C129.209 861.45 128.996 866.21 128.941 870.969C128.558 879.23 128.668 887.655 129.105 895.97L129.16 897.338C129.209 898.213 129.209 899.088 129.324 899.963L129.434 901.495C130.637 917.852 133.481 934.209 137.851 950.074C139.711 957.131 141.685 963.477 143.813 969.276C145.788 974.91 148.03 980.545 150.492 986.016C167.338 1025.02 193.756 1059.54 226.951 1085.85C242.053 1099.15 253.922 1116.22 261.197 1134.98C261.415 1135.58 261.525 1136.18 261.744 1136.73H262.126C266.83 1150.3 269.122 1164.19 268.909 1178.14C268.909 1179.13 268.909 1180.11 268.854 1181.1C268.307 1185.86 267.596 1190.51 266.557 1194.83C263.871 1206.43 262.126 1218.3 261.087 1230.28C258.407 1254.24 259.063 1278.47 263.275 1302.71C264.145 1307.74 265.08 1312.12 266.119 1316.71L266.557 1318.52C269.018 1328.97 271.638 1337.99 274.592 1346.14C280.723 1363.16 288.545 1379.35 297.952 1394.56C313.76 1420.65 334.052 1443.79 358.222 1462.94C369.769 1473.12 379.34 1485.53 386.5 1499.21C395.64 1517.43 400.344 1537.67 399.687 1557.91C399.195 1563.05 398.375 1567.98 397.281 1572.57C393.343 1589.53 391.209 1607.53 390.881 1625.75C390.498 1634.01 390.602 1642.43 391.04 1650.8L391.1 1652.11C391.155 1652.99 391.209 1653.86 391.264 1654.74L391.374 1656.27C392.632 1672.63 395.416 1688.99 399.797 1704.85C401.711 1711.96 403.62 1718.25 405.759 1724.11C407.722 1729.69 409.965 1735.32 412.432 1740.79C429.278 1779.85 455.696 1814.37 488.952 1840.63C503.993 1853.98 515.862 1870.99 523.137 1889.76C523.355 1890.36 523.459 1890.96 523.684 1891.56H546.711C545.781 1888.33 544.742 1885.16 543.593 1881.99C534.951 1859.72 520.949 1839.7 503.173 1824L502.735 1823.67C472.215 1799.6 447.929 1767.93 432.45 1732.09C430.208 1727.01 428.184 1721.81 426.324 1716.67C424.41 1711.42 422.66 1705.73 420.904 1699.16C416.917 1684.55 414.346 1669.62 413.197 1654.74L413.088 1653.21C413.033 1652.55 412.979 1651.9 412.979 1651.24L412.924 1649.6C412.486 1641.94 412.432 1634.23 412.7 1626.4C413.033 1609.44 415.002 1592.98 418.612 1577.55C419.925 1571.92 420.904 1565.9 421.511 1559.66L421.566 1559C421.949 1546.86 420.691 1534.72 418.011 1522.84L418.612 1522.68C415.768 1510.92 411.338 1499.54 405.704 1488.82C397.281 1472.19 385.685 1457.03 371.409 1444.51L370.972 1444.12C349.422 1427.11 331.098 1406.54 316.762 1383.45C308.514 1369.83 301.562 1355.33 296.093 1340.07L295.655 1338.87C285.755 1311.41 281.106 1282.69 281.872 1253.2C281.872 1246.14 282.255 1239.14 282.856 1232.14C283.901 1223.28 285.318 1214.41 287.391 1205.66C289.146 1198.06 290.24 1190.4 290.678 1182.63L290.787 1181.97V1181.32C290.842 1179.51 290.842 1177.71 290.842 1175.85L290.897 1174.81C290.842 1174.09 290.842 1173.38 290.787 1172.73C290.623 1163.21 289.529 1153.58 287.341 1143.95L287.068 1144.06C285.646 1138.1 283.901 1132.19 281.708 1126.34C273.066 1104.02 259.118 1083.99 241.287 1068.35L240.85 1067.97C210.384 1043.89 186.099 1012.22 170.62 976.388C168.377 971.3 166.299 966.158 164.439 961.015C162.579 955.709 160.774 950.019 159.024 943.455C155.031 928.903 152.461 913.913 151.312 899.033L151.203 897.502C151.148 896.9 151.148 896.243 151.093 895.587L151.038 893.891C150.601 886.232 150.546 878.519 150.869 870.751C150.929 866.593 151.093 862.435 151.367 858.332C152.242 846.078 154.047 834.152 156.672 822.719C157.985 817.139 158.969 811.121 159.571 804.885V804.228L159.68 803.353C160.118 791.427 158.915 779.556 156.344 768.013L156.672 767.903C155.628 763.472 154.26 759.151 152.734 754.829C146.827 736.557 137.364 719.325 124.73 704.39L123.854 704.554C119.424 699.302 114.666 694.269 109.469 689.729L109.032 689.346C87.476 672.332 69.1583 651.763 54.8279 628.622C46.5688 615.055 39.6224 600.558 34.1473 585.295L33.7097 584.037C23.8152 556.629 19.166 527.909 19.9317 498.422C19.9317 491.365 20.3146 484.308 20.9163 477.361C21.9555 468.498 23.3776 459.636 25.456 450.883C27.2063 443.279 28.3002 435.62 28.7378 427.852L28.7925 427.141L28.8472 426.484C28.9019 424.679 28.9019 422.874 28.9019 421.068V419.974C28.9019 419.318 28.9019 418.606 28.8472 417.895C28.6831 408.377 27.5892 398.803 25.4013 389.175L25.1279 389.229C23.7003 383.321 21.9555 377.358 19.7676 371.505C11.1256 349.239 -2.8219 329.217 -20.6529 313.517L-21.0904 313.188C-31.975 304.599 -42.0391 294.971 -51.228 284.632V315.924C-45.9225 320.847 -40.5623 325.661 -34.8793 330.147Z" fill="#F53636"/>
<path fill-rule="evenodd" clip-rule="evenodd" d="M710 31.9999H40C35.5817 31.9999 32 35.5816 32 39.9999V1010C32 1014.42 35.5817 1018 40 1018H710C714.418 1018 718 1014.42 718 1010V39.9999C718 35.5816 714.418 31.9999 710 31.9999ZM0 2.86102e-06V1050H750V0L0 2.86102e-06Z" fill="#FFFCF5"/>
</g>
<defs>
<clipPath id="clip0_131_5761">
<rect width="750" height="1050" fill="white"/>
</clipPath>
</defs>
</svg>
