<svg width="750" height="1050" viewBox="0 0 750 1050" fill="none" xmlns="http://www.w3.org/2000/svg">
<rect width="750" height="1050" fill="white"/>
<path d="M0 50C0 22.3858 22.3858 0 50 0H700C727.614 0 750 22.3858 750 50V1000C750 1027.61 727.614 1050 700 1050H50C22.3858 1050 0 1027.61 0 1000V50Z" fill="white"/>
<path d="M40 50C40 44.4772 44.4772 40 50 40H700C705.523 40 710 44.4772 710 50V1000C710 1005.52 705.523 1010 700 1010H50C44.4771 1010 40 1005.52 40 1000V50Z" fill="#8D79C6"/>
<mask id="mask0_130_13898" style="mask-type:alpha" maskUnits="userSpaceOnUse" x="40" y="40" width="670" height="970">
<path d="M40 50C40 44.4772 44.4772 40 50 40H700C705.523 40 710 44.4772 710 50V1000C710 1005.52 705.523 1010 700 1010H50C44.4771 1010 40 1005.52 40 1000V50Z" fill="#8D79C6"/>
</mask>
<g mask="url(#mask0_130_13898)">
<path fill-rule="evenodd" clip-rule="evenodd" d="M26.7309 -2.3812L-3.91016 15.3094V50.6906L26.7309 68.3812L57.3719 50.6906V15.3094L26.7309 -2.3812ZM61.3719 13L26.7309 -7L-7.91016 13V53L26.7309 73L61.3719 53V13Z" fill="white"/>
<path fill-rule="evenodd" clip-rule="evenodd" d="M104.013 -2.3812L73.3719 15.3094V50.6906L104.013 68.3812L134.654 50.6906V15.3094L104.013 -2.3812ZM138.654 13L104.013 -7L69.3719 13V53L104.013 73L138.654 53V13Z" fill="white"/>
<path fill-rule="evenodd" clip-rule="evenodd" d="M181.295 -2.3812L150.654 15.3094V50.6906L181.295 68.3812L211.936 50.6906V15.3094L181.295 -2.3812ZM215.936 13L181.295 -7L146.654 13V53L181.295 73L215.936 53V13Z" fill="white"/>
<path fill-rule="evenodd" clip-rule="evenodd" d="M258.577 -2.3812L227.936 15.3094V50.6906L258.577 68.3812L289.218 50.6906V15.3094L258.577 -2.3812ZM293.218 13L258.577 -7L223.936 13V53L258.577 73L293.218 53V13Z" fill="white"/>
<path fill-rule="evenodd" clip-rule="evenodd" d="M335.859 -2.3812L305.218 15.3094V50.6906L335.859 68.3812L366.5 50.6906V15.3094L335.859 -2.3812ZM370.5 13L335.859 -7L301.218 13V53L335.859 73L370.5 53V13Z" fill="white"/>
<path fill-rule="evenodd" clip-rule="evenodd" d="M413.141 -2.3812L382.5 15.3094V50.6906L413.141 68.3812L443.782 50.6906V15.3094L413.141 -2.3812ZM447.782 13L413.141 -7L378.5 13V53L413.141 73L447.782 53V13Z" fill="white"/>
<path fill-rule="evenodd" clip-rule="evenodd" d="M490.423 -2.3812L459.782 15.3094V50.6906L490.423 68.3812L521.064 50.6906V15.3094L490.423 -2.3812ZM525.064 13L490.423 -7L455.782 13V53L490.423 73L525.064 53V13Z" fill="white"/>
<path fill-rule="evenodd" clip-rule="evenodd" d="M567.705 -2.3812L537.064 15.3094V50.6906L567.705 68.3812L598.346 50.6906V15.3094L567.705 -2.3812ZM602.346 13L567.705 -7L533.064 13V53L567.705 73L602.346 53V13Z" fill="white"/>
<path fill-rule="evenodd" clip-rule="evenodd" d="M644.987 -2.3812L614.346 15.3094V50.6906L644.987 68.3812L675.628 50.6906V15.3094L644.987 -2.3812ZM679.628 13L644.987 -7L610.346 13V53L644.987 73L679.628 53V13Z" fill="white"/>
<path fill-rule="evenodd" clip-rule="evenodd" d="M722.269 -2.3812L691.628 15.3094V50.6906L722.269 68.3812L752.91 50.6906V15.3094L722.269 -2.3812ZM756.91 13L722.269 -7L687.628 13V53L722.269 73L756.91 53V13Z" fill="white"/>
<path fill-rule="evenodd" clip-rule="evenodd" d="M65.3719 63.6188L34.7309 81.3094V116.691L65.3719 134.381L96.0129 116.691V81.3094L65.3719 63.6188ZM100.013 79L65.3719 59L30.7309 79V119L65.3719 139L100.013 119V79Z" fill="white"/>
<path fill-rule="evenodd" clip-rule="evenodd" d="M142.654 63.6188L112.013 81.3094V116.691L142.654 134.381L173.295 116.691V81.3094L142.654 63.6188ZM177.295 79L142.654 59L108.013 79V119L142.654 139L177.295 119V79Z" fill="white"/>
<path fill-rule="evenodd" clip-rule="evenodd" d="M219.936 63.6188L189.295 81.3094V116.691L219.936 134.381L250.577 116.691V81.3094L219.936 63.6188ZM254.577 79L219.936 59L185.295 79V119L219.936 139L254.577 119V79Z" fill="white"/>
<path fill-rule="evenodd" clip-rule="evenodd" d="M297.218 63.6188L266.577 81.3094V116.691L297.218 134.381L327.859 116.691V81.3094L297.218 63.6188ZM331.859 79L297.218 59L262.577 79V119L297.218 139L331.859 119V79Z" fill="white"/>
<path fill-rule="evenodd" clip-rule="evenodd" d="M374.5 63.6188L343.859 81.3094V116.691L374.5 134.381L405.141 116.691V81.3094L374.5 63.6188ZM409.141 79L374.5 59L339.859 79V119L374.5 139L409.141 119V79Z" fill="white"/>
<path fill-rule="evenodd" clip-rule="evenodd" d="M451.782 63.6188L421.141 81.3094V116.691L451.782 134.381L482.423 116.691V81.3094L451.782 63.6188ZM486.423 79L451.782 59L417.141 79V119L451.782 139L486.423 119V79Z" fill="white"/>
<path fill-rule="evenodd" clip-rule="evenodd" d="M529.064 63.6188L498.423 81.3094V116.691L529.064 134.381L559.705 116.691V81.3094L529.064 63.6188ZM563.705 79L529.064 59L494.423 79V119L529.064 139L563.705 119V79Z" fill="white"/>
<path fill-rule="evenodd" clip-rule="evenodd" d="M606.346 63.6188L575.705 81.3094V116.691L606.346 134.381L636.987 116.691V81.3094L606.346 63.6188ZM640.987 79L606.346 59L571.705 79V119L606.346 139L640.987 119V79Z" fill="white"/>
<path fill-rule="evenodd" clip-rule="evenodd" d="M683.628 63.6188L652.987 81.3094V116.691L683.628 134.381L714.269 116.691V81.3094L683.628 63.6188ZM718.269 79L683.628 59L648.987 79V119L683.628 139L718.269 119V79Z" fill="white"/>
<path fill-rule="evenodd" clip-rule="evenodd" d="M26.7309 129.619L-3.91016 147.309V182.691L26.7309 200.381L57.3719 182.691V147.309L26.7309 129.619ZM61.3719 145L26.7309 125L-7.91016 145V185L26.7309 205L61.3719 185V145Z" fill="white"/>
<path fill-rule="evenodd" clip-rule="evenodd" d="M104.013 129.619L73.3719 147.309V182.691L104.013 200.381L134.654 182.691V147.309L104.013 129.619ZM138.654 145L104.013 125L69.3719 145V185L104.013 205L138.654 185V145Z" fill="white"/>
<path fill-rule="evenodd" clip-rule="evenodd" d="M181.295 129.619L150.654 147.309V182.691L181.295 200.381L211.936 182.691V147.309L181.295 129.619ZM215.936 145L181.295 125L146.654 145V185L181.295 205L215.936 185V145Z" fill="white"/>
<path fill-rule="evenodd" clip-rule="evenodd" d="M258.577 129.619L227.936 147.309V182.691L258.577 200.381L289.218 182.691V147.309L258.577 129.619ZM293.218 145L258.577 125L223.936 145V185L258.577 205L293.218 185V145Z" fill="white"/>
<path fill-rule="evenodd" clip-rule="evenodd" d="M335.859 129.619L305.218 147.309V182.691L335.859 200.381L366.5 182.691V147.309L335.859 129.619ZM370.5 145L335.859 125L301.218 145V185L335.859 205L370.5 185V145Z" fill="white"/>
<path fill-rule="evenodd" clip-rule="evenodd" d="M413.141 129.619L382.5 147.309V182.691L413.141 200.381L443.782 182.691V147.309L413.141 129.619ZM447.782 145L413.141 125L378.5 145V185L413.141 205L447.782 185V145Z" fill="white"/>
<path fill-rule="evenodd" clip-rule="evenodd" d="M490.423 129.619L459.782 147.309V182.691L490.423 200.381L521.064 182.691V147.309L490.423 129.619ZM525.064 145L490.423 125L455.782 145V185L490.423 205L525.064 185V145Z" fill="white"/>
<path fill-rule="evenodd" clip-rule="evenodd" d="M567.705 129.619L537.064 147.309V182.691L567.705 200.381L598.346 182.691V147.309L567.705 129.619ZM602.346 145L567.705 125L533.064 145V185L567.705 205L602.346 185V145Z" fill="white"/>
<path fill-rule="evenodd" clip-rule="evenodd" d="M644.987 129.619L614.346 147.309V182.691L644.987 200.381L675.628 182.691V147.309L644.987 129.619ZM679.628 145L644.987 125L610.346 145V185L644.987 205L679.628 185V145Z" fill="white"/>
<path fill-rule="evenodd" clip-rule="evenodd" d="M722.269 129.619L691.628 147.309V182.691L722.269 200.381L752.91 182.691V147.309L722.269 129.619ZM756.91 145L722.269 125L687.628 145V185L722.269 205L756.91 185V145Z" fill="white"/>
<path fill-rule="evenodd" clip-rule="evenodd" d="M65.3719 195.619L34.7309 213.309V248.691L65.3719 266.381L96.0129 248.691V213.309L65.3719 195.619ZM100.013 211L65.3719 191L30.7309 211V251L65.3719 271L100.013 251V211Z" fill="white"/>
<path fill-rule="evenodd" clip-rule="evenodd" d="M142.654 195.619L112.013 213.309V248.691L142.654 266.381L173.295 248.691V213.309L142.654 195.619ZM177.295 211L142.654 191L108.013 211V251L142.654 271L177.295 251V211Z" fill="white"/>
<path fill-rule="evenodd" clip-rule="evenodd" d="M219.936 195.619L189.295 213.309V248.691L219.936 266.381L250.577 248.691V213.309L219.936 195.619ZM254.577 211L219.936 191L185.295 211V251L219.936 271L254.577 251V211Z" fill="white"/>
<path fill-rule="evenodd" clip-rule="evenodd" d="M297.218 195.619L266.577 213.309V248.691L297.218 266.381L327.859 248.691V213.309L297.218 195.619ZM331.859 211L297.218 191L262.577 211V251L297.218 271L331.859 251V211Z" fill="white"/>
<path fill-rule="evenodd" clip-rule="evenodd" d="M374.5 195.619L343.859 213.309V248.691L374.5 266.381L405.141 248.691V213.309L374.5 195.619ZM409.141 211L374.5 191L339.859 211V251L374.5 271L409.141 251V211Z" fill="white"/>
<path fill-rule="evenodd" clip-rule="evenodd" d="M451.782 195.619L421.141 213.309V248.691L451.782 266.381L482.423 248.691V213.309L451.782 195.619ZM486.423 211L451.782 191L417.141 211V251L451.782 271L486.423 251V211Z" fill="white"/>
<path fill-rule="evenodd" clip-rule="evenodd" d="M529.064 195.619L498.423 213.309V248.691L529.064 266.381L559.705 248.691V213.309L529.064 195.619ZM563.705 211L529.064 191L494.423 211V251L529.064 271L563.705 251V211Z" fill="white"/>
<path fill-rule="evenodd" clip-rule="evenodd" d="M606.346 195.619L575.705 213.309V248.691L606.346 266.381L636.987 248.691V213.309L606.346 195.619ZM640.987 211L606.346 191L571.705 211V251L606.346 271L640.987 251V211Z" fill="white"/>
<path fill-rule="evenodd" clip-rule="evenodd" d="M683.628 195.619L652.987 213.309V248.691L683.628 266.381L714.269 248.691V213.309L683.628 195.619ZM718.269 211L683.628 191L648.987 211V251L683.628 271L718.269 251V211Z" fill="white"/>
<path fill-rule="evenodd" clip-rule="evenodd" d="M26.7309 261.619L-3.91016 279.309V314.691L26.7309 332.381L57.3719 314.691V279.309L26.7309 261.619ZM61.3719 277L26.7309 257L-7.91016 277V317L26.7309 337L61.3719 317V277Z" fill="white"/>
<path fill-rule="evenodd" clip-rule="evenodd" d="M104.013 261.619L73.3719 279.309V314.691L104.013 332.381L134.654 314.691V279.309L104.013 261.619ZM138.654 277L104.013 257L69.3719 277V317L104.013 337L138.654 317V277Z" fill="white"/>
<path fill-rule="evenodd" clip-rule="evenodd" d="M181.295 261.619L150.654 279.309V314.691L181.295 332.381L211.936 314.691V279.309L181.295 261.619ZM215.936 277L181.295 257L146.654 277V317L181.295 337L215.936 317V277Z" fill="white"/>
<path fill-rule="evenodd" clip-rule="evenodd" d="M258.577 261.619L227.936 279.309V314.691L258.577 332.381L289.218 314.691V279.309L258.577 261.619ZM293.218 277L258.577 257L223.936 277V317L258.577 337L293.218 317V277Z" fill="white"/>
<path fill-rule="evenodd" clip-rule="evenodd" d="M335.859 261.619L305.218 279.309V314.691L335.859 332.381L366.5 314.691V279.309L335.859 261.619ZM370.5 277L335.859 257L301.218 277V317L335.859 337L370.5 317V277Z" fill="white"/>
<path fill-rule="evenodd" clip-rule="evenodd" d="M413.141 261.619L382.5 279.309V314.691L413.141 332.381L443.782 314.691V279.309L413.141 261.619ZM447.782 277L413.141 257L378.5 277V317L413.141 337L447.782 317V277Z" fill="white"/>
<path fill-rule="evenodd" clip-rule="evenodd" d="M490.423 261.619L459.782 279.309V314.691L490.423 332.381L521.064 314.691V279.309L490.423 261.619ZM525.064 277L490.423 257L455.782 277V317L490.423 337L525.064 317V277Z" fill="white"/>
<path fill-rule="evenodd" clip-rule="evenodd" d="M567.705 261.619L537.064 279.309V314.691L567.705 332.381L598.346 314.691V279.309L567.705 261.619ZM602.346 277L567.705 257L533.064 277V317L567.705 337L602.346 317V277Z" fill="white"/>
<path fill-rule="evenodd" clip-rule="evenodd" d="M644.987 261.619L614.346 279.309V314.691L644.987 332.381L675.628 314.691V279.309L644.987 261.619ZM679.628 277L644.987 257L610.346 277V317L644.987 337L679.628 317V277Z" fill="white"/>
<path fill-rule="evenodd" clip-rule="evenodd" d="M722.269 261.619L691.628 279.309V314.691L722.269 332.381L752.91 314.691V279.309L722.269 261.619ZM756.91 277L722.269 257L687.628 277V317L722.269 337L756.91 317V277Z" fill="white"/>
<path fill-rule="evenodd" clip-rule="evenodd" d="M65.3719 327.619L34.7309 345.309V380.691L65.3719 398.381L96.0129 380.691V345.309L65.3719 327.619ZM100.013 343L65.3719 323L30.7309 343V383L65.3719 403L100.013 383V343Z" fill="white"/>
<path fill-rule="evenodd" clip-rule="evenodd" d="M142.654 327.619L112.013 345.309V380.691L142.654 398.381L173.295 380.691V345.309L142.654 327.619ZM177.295 343L142.654 323L108.013 343V383L142.654 403L177.295 383V343Z" fill="white"/>
<path fill-rule="evenodd" clip-rule="evenodd" d="M219.936 327.619L189.295 345.309V380.691L219.936 398.381L250.577 380.691V345.309L219.936 327.619ZM254.577 343L219.936 323L185.295 343V383L219.936 403L254.577 383V343Z" fill="white"/>
<path fill-rule="evenodd" clip-rule="evenodd" d="M297.218 327.619L266.577 345.309V380.691L297.218 398.381L327.859 380.691V345.309L297.218 327.619ZM331.859 343L297.218 323L262.577 343V383L297.218 403L331.859 383V343Z" fill="white"/>
<path fill-rule="evenodd" clip-rule="evenodd" d="M374.5 327.619L343.859 345.309V380.691L374.5 398.381L405.141 380.691V345.309L374.5 327.619ZM409.141 343L374.5 323L339.859 343V383L374.5 403L409.141 383V343Z" fill="white"/>
<path fill-rule="evenodd" clip-rule="evenodd" d="M451.782 327.619L421.141 345.309V380.691L451.782 398.381L482.423 380.691V345.309L451.782 327.619ZM486.423 343L451.782 323L417.141 343V383L451.782 403L486.423 383V343Z" fill="white"/>
<path fill-rule="evenodd" clip-rule="evenodd" d="M529.064 327.619L498.423 345.309V380.691L529.064 398.381L559.705 380.691V345.309L529.064 327.619ZM563.705 343L529.064 323L494.423 343V383L529.064 403L563.705 383V343Z" fill="white"/>
<path fill-rule="evenodd" clip-rule="evenodd" d="M606.346 327.619L575.705 345.309V380.691L606.346 398.381L636.987 380.691V345.309L606.346 327.619ZM640.987 343L606.346 323L571.705 343V383L606.346 403L640.987 383V343Z" fill="white"/>
<path fill-rule="evenodd" clip-rule="evenodd" d="M683.628 327.619L652.987 345.309V380.691L683.628 398.381L714.269 380.691V345.309L683.628 327.619ZM718.269 343L683.628 323L648.987 343V383L683.628 403L718.269 383V343Z" fill="white"/>
<path fill-rule="evenodd" clip-rule="evenodd" d="M26.7309 393.619L-3.91016 411.309V446.691L26.7309 464.381L57.3719 446.691V411.309L26.7309 393.619ZM61.3719 409L26.7309 389L-7.91016 409V449L26.7309 469L61.3719 449V409Z" fill="white"/>
<path fill-rule="evenodd" clip-rule="evenodd" d="M104.013 393.619L73.3719 411.309V446.691L104.013 464.381L134.654 446.691V411.309L104.013 393.619ZM138.654 409L104.013 389L69.3719 409V449L104.013 469L138.654 449V409Z" fill="white"/>
<path fill-rule="evenodd" clip-rule="evenodd" d="M181.295 393.619L150.654 411.309V446.691L181.295 464.381L211.936 446.691V411.309L181.295 393.619ZM215.936 409L181.295 389L146.654 409V449L181.295 469L215.936 449V409Z" fill="white"/>
<path fill-rule="evenodd" clip-rule="evenodd" d="M258.577 393.619L227.936 411.309V446.691L258.577 464.381L289.218 446.691V411.309L258.577 393.619ZM293.218 409L258.577 389L223.936 409V449L258.577 469L293.218 449V409Z" fill="white"/>
<path fill-rule="evenodd" clip-rule="evenodd" d="M335.859 393.619L305.218 411.309V446.691L335.859 464.381L366.5 446.691V411.309L335.859 393.619ZM370.5 409L335.859 389L301.218 409V449L335.859 469L370.5 449V409Z" fill="white"/>
<path fill-rule="evenodd" clip-rule="evenodd" d="M413.141 393.619L382.5 411.309V446.691L413.141 464.381L443.782 446.691V411.309L413.141 393.619ZM447.782 409L413.141 389L378.5 409V449L413.141 469L447.782 449V409Z" fill="white"/>
<path fill-rule="evenodd" clip-rule="evenodd" d="M490.423 393.619L459.782 411.309V446.691L490.423 464.381L521.064 446.691V411.309L490.423 393.619ZM525.064 409L490.423 389L455.782 409V449L490.423 469L525.064 449V409Z" fill="white"/>
<path fill-rule="evenodd" clip-rule="evenodd" d="M567.705 393.619L537.064 411.309V446.691L567.705 464.381L598.346 446.691V411.309L567.705 393.619ZM602.346 409L567.705 389L533.064 409V449L567.705 469L602.346 449V409Z" fill="white"/>
<path fill-rule="evenodd" clip-rule="evenodd" d="M644.987 393.619L614.346 411.309V446.691L644.987 464.381L675.628 446.691V411.309L644.987 393.619ZM679.628 409L644.987 389L610.346 409V449L644.987 469L679.628 449V409Z" fill="white"/>
<path fill-rule="evenodd" clip-rule="evenodd" d="M722.269 393.619L691.628 411.309V446.691L722.269 464.381L752.91 446.691V411.309L722.269 393.619ZM756.91 409L722.269 389L687.628 409V449L722.269 469L756.91 449V409Z" fill="white"/>
<path fill-rule="evenodd" clip-rule="evenodd" d="M65.3719 459.619L34.7309 477.309V512.691L65.3719 530.381L96.0129 512.691V477.309L65.3719 459.619ZM100.013 475L65.3719 455L30.7309 475V515L65.3719 535L100.013 515V475Z" fill="white"/>
<path fill-rule="evenodd" clip-rule="evenodd" d="M142.654 459.619L112.013 477.309V512.691L142.654 530.381L173.295 512.691V477.309L142.654 459.619ZM177.295 475L142.654 455L108.013 475V515L142.654 535L177.295 515V475Z" fill="white"/>
<path fill-rule="evenodd" clip-rule="evenodd" d="M219.936 459.619L189.295 477.309V512.691L219.936 530.381L250.577 512.691V477.309L219.936 459.619ZM254.577 475L219.936 455L185.295 475V515L219.936 535L254.577 515V475Z" fill="white"/>
<path fill-rule="evenodd" clip-rule="evenodd" d="M297.218 459.619L266.577 477.309V512.691L297.218 530.381L327.859 512.691V477.309L297.218 459.619ZM331.859 475L297.218 455L262.577 475V515L297.218 535L331.859 515V475Z" fill="white"/>
<path fill-rule="evenodd" clip-rule="evenodd" d="M374.5 459.619L343.859 477.309V512.691L374.5 530.381L405.141 512.691V477.309L374.5 459.619ZM409.141 475L374.5 455L339.859 475V515L374.5 535L409.141 515V475Z" fill="white"/>
<path fill-rule="evenodd" clip-rule="evenodd" d="M451.782 459.619L421.141 477.309V512.691L451.782 530.381L482.423 512.691V477.309L451.782 459.619ZM486.423 475L451.782 455L417.141 475V515L451.782 535L486.423 515V475Z" fill="white"/>
<path fill-rule="evenodd" clip-rule="evenodd" d="M529.064 459.619L498.423 477.309V512.691L529.064 530.381L559.705 512.691V477.309L529.064 459.619ZM563.705 475L529.064 455L494.423 475V515L529.064 535L563.705 515V475Z" fill="white"/>
<path fill-rule="evenodd" clip-rule="evenodd" d="M606.346 459.619L575.705 477.309V512.691L606.346 530.381L636.987 512.691V477.309L606.346 459.619ZM640.987 475L606.346 455L571.705 475V515L606.346 535L640.987 515V475Z" fill="white"/>
<path fill-rule="evenodd" clip-rule="evenodd" d="M683.628 459.619L652.987 477.309V512.691L683.628 530.381L714.269 512.691V477.309L683.628 459.619ZM718.269 475L683.628 455L648.987 475V515L683.628 535L718.269 515V475Z" fill="white"/>
<path fill-rule="evenodd" clip-rule="evenodd" d="M26.7309 525.619L-3.91016 543.309V578.691L26.7309 596.381L57.3719 578.691V543.309L26.7309 525.619ZM61.3719 541L26.7309 521L-7.91016 541V581L26.7309 601L61.3719 581V541Z" fill="white"/>
<path fill-rule="evenodd" clip-rule="evenodd" d="M104.013 525.619L73.3719 543.309V578.691L104.013 596.381L134.654 578.691V543.309L104.013 525.619ZM138.654 541L104.013 521L69.3719 541V581L104.013 601L138.654 581V541Z" fill="white"/>
<path fill-rule="evenodd" clip-rule="evenodd" d="M181.295 525.619L150.654 543.309V578.691L181.295 596.381L211.936 578.691V543.309L181.295 525.619ZM215.936 541L181.295 521L146.654 541V581L181.295 601L215.936 581V541Z" fill="white"/>
<path fill-rule="evenodd" clip-rule="evenodd" d="M258.577 525.619L227.936 543.309V578.691L258.577 596.381L289.218 578.691V543.309L258.577 525.619ZM293.218 541L258.577 521L223.936 541V581L258.577 601L293.218 581V541Z" fill="white"/>
<path fill-rule="evenodd" clip-rule="evenodd" d="M335.859 525.619L305.218 543.309V578.691L335.859 596.381L366.5 578.691V543.309L335.859 525.619ZM370.5 541L335.859 521L301.218 541V581L335.859 601L370.5 581V541Z" fill="white"/>
<path fill-rule="evenodd" clip-rule="evenodd" d="M413.141 525.619L382.5 543.309V578.691L413.141 596.381L443.782 578.691V543.309L413.141 525.619ZM447.782 541L413.141 521L378.5 541V581L413.141 601L447.782 581V541Z" fill="white"/>
<path fill-rule="evenodd" clip-rule="evenodd" d="M490.423 525.619L459.782 543.309V578.691L490.423 596.381L521.064 578.691V543.309L490.423 525.619ZM525.064 541L490.423 521L455.782 541V581L490.423 601L525.064 581V541Z" fill="white"/>
<path fill-rule="evenodd" clip-rule="evenodd" d="M567.705 525.619L537.064 543.309V578.691L567.705 596.381L598.346 578.691V543.309L567.705 525.619ZM602.346 541L567.705 521L533.064 541V581L567.705 601L602.346 581V541Z" fill="white"/>
<path fill-rule="evenodd" clip-rule="evenodd" d="M644.987 525.619L614.346 543.309V578.691L644.987 596.381L675.628 578.691V543.309L644.987 525.619ZM679.628 541L644.987 521L610.346 541V581L644.987 601L679.628 581V541Z" fill="white"/>
<path fill-rule="evenodd" clip-rule="evenodd" d="M722.269 525.619L691.628 543.309V578.691L722.269 596.381L752.91 578.691V543.309L722.269 525.619ZM756.91 541L722.269 521L687.628 541V581L722.269 601L756.91 581V541Z" fill="white"/>
<path fill-rule="evenodd" clip-rule="evenodd" d="M65.3719 591.619L34.7309 609.309V644.691L65.3719 662.381L96.0129 644.691V609.309L65.3719 591.619ZM100.013 607L65.3719 587L30.7309 607V647L65.3719 667L100.013 647V607Z" fill="white"/>
<path fill-rule="evenodd" clip-rule="evenodd" d="M142.654 591.619L112.013 609.309V644.691L142.654 662.381L173.295 644.691V609.309L142.654 591.619ZM177.295 607L142.654 587L108.013 607V647L142.654 667L177.295 647V607Z" fill="white"/>
<path fill-rule="evenodd" clip-rule="evenodd" d="M219.936 591.619L189.295 609.309V644.691L219.936 662.381L250.577 644.691V609.309L219.936 591.619ZM254.577 607L219.936 587L185.295 607V647L219.936 667L254.577 647V607Z" fill="white"/>
<path fill-rule="evenodd" clip-rule="evenodd" d="M297.218 591.619L266.577 609.309V644.691L297.218 662.381L327.859 644.691V609.309L297.218 591.619ZM331.859 607L297.218 587L262.577 607V647L297.218 667L331.859 647V607Z" fill="white"/>
<path fill-rule="evenodd" clip-rule="evenodd" d="M374.5 591.619L343.859 609.309V644.691L374.5 662.381L405.141 644.691V609.309L374.5 591.619ZM409.141 607L374.5 587L339.859 607V647L374.5 667L409.141 647V607Z" fill="white"/>
<path fill-rule="evenodd" clip-rule="evenodd" d="M451.782 591.619L421.141 609.309V644.691L451.782 662.381L482.423 644.691V609.309L451.782 591.619ZM486.423 607L451.782 587L417.141 607V647L451.782 667L486.423 647V607Z" fill="white"/>
<path fill-rule="evenodd" clip-rule="evenodd" d="M529.064 591.619L498.423 609.309V644.691L529.064 662.381L559.705 644.691V609.309L529.064 591.619ZM563.705 607L529.064 587L494.423 607V647L529.064 667L563.705 647V607Z" fill="white"/>
<path fill-rule="evenodd" clip-rule="evenodd" d="M606.346 591.619L575.705 609.309V644.691L606.346 662.381L636.987 644.691V609.309L606.346 591.619ZM640.987 607L606.346 587L571.705 607V647L606.346 667L640.987 647V607Z" fill="white"/>
<path fill-rule="evenodd" clip-rule="evenodd" d="M683.628 591.619L652.987 609.309V644.691L683.628 662.381L714.269 644.691V609.309L683.628 591.619ZM718.269 607L683.628 587L648.987 607V647L683.628 667L718.269 647V607Z" fill="white"/>
<path fill-rule="evenodd" clip-rule="evenodd" d="M26.7309 657.619L-3.91016 675.309V710.691L26.7309 728.381L57.3719 710.691V675.309L26.7309 657.619ZM61.3719 673L26.7309 653L-7.91016 673V713L26.7309 733L61.3719 713V673Z" fill="white"/>
<path fill-rule="evenodd" clip-rule="evenodd" d="M104.013 657.619L73.3719 675.309V710.691L104.013 728.381L134.654 710.691V675.309L104.013 657.619ZM138.654 673L104.013 653L69.3719 673V713L104.013 733L138.654 713V673Z" fill="white"/>
<path fill-rule="evenodd" clip-rule="evenodd" d="M181.295 657.619L150.654 675.309V710.691L181.295 728.381L211.936 710.691V675.309L181.295 657.619ZM215.936 673L181.295 653L146.654 673V713L181.295 733L215.936 713V673Z" fill="white"/>
<path fill-rule="evenodd" clip-rule="evenodd" d="M258.577 657.619L227.936 675.309V710.691L258.577 728.381L289.218 710.691V675.309L258.577 657.619ZM293.218 673L258.577 653L223.936 673V713L258.577 733L293.218 713V673Z" fill="white"/>
<path fill-rule="evenodd" clip-rule="evenodd" d="M335.859 657.619L305.218 675.309V710.691L335.859 728.381L366.5 710.691V675.309L335.859 657.619ZM370.5 673L335.859 653L301.218 673V713L335.859 733L370.5 713V673Z" fill="white"/>
<path fill-rule="evenodd" clip-rule="evenodd" d="M413.141 657.619L382.5 675.309V710.691L413.141 728.381L443.782 710.691V675.309L413.141 657.619ZM447.782 673L413.141 653L378.5 673V713L413.141 733L447.782 713V673Z" fill="white"/>
<path fill-rule="evenodd" clip-rule="evenodd" d="M490.423 657.619L459.782 675.309V710.691L490.423 728.381L521.064 710.691V675.309L490.423 657.619ZM525.064 673L490.423 653L455.782 673V713L490.423 733L525.064 713V673Z" fill="white"/>
<path fill-rule="evenodd" clip-rule="evenodd" d="M567.705 657.619L537.064 675.309V710.691L567.705 728.381L598.346 710.691V675.309L567.705 657.619ZM602.346 673L567.705 653L533.064 673V713L567.705 733L602.346 713V673Z" fill="white"/>
<path fill-rule="evenodd" clip-rule="evenodd" d="M644.987 657.619L614.346 675.309V710.691L644.987 728.381L675.628 710.691V675.309L644.987 657.619ZM679.628 673L644.987 653L610.346 673V713L644.987 733L679.628 713V673Z" fill="white"/>
<path fill-rule="evenodd" clip-rule="evenodd" d="M722.269 657.619L691.628 675.309V710.691L722.269 728.381L752.91 710.691V675.309L722.269 657.619ZM756.91 673L722.269 653L687.628 673V713L722.269 733L756.91 713V673Z" fill="white"/>
<path fill-rule="evenodd" clip-rule="evenodd" d="M65.3719 723.619L34.7309 741.309V776.691L65.3719 794.381L96.0129 776.691V741.309L65.3719 723.619ZM100.013 739L65.3719 719L30.7309 739V779L65.3719 799L100.013 779V739Z" fill="white"/>
<path fill-rule="evenodd" clip-rule="evenodd" d="M142.654 723.619L112.013 741.309V776.691L142.654 794.381L173.295 776.691V741.309L142.654 723.619ZM177.295 739L142.654 719L108.013 739V779L142.654 799L177.295 779V739Z" fill="white"/>
<path fill-rule="evenodd" clip-rule="evenodd" d="M219.936 723.619L189.295 741.309V776.691L219.936 794.381L250.577 776.691V741.309L219.936 723.619ZM254.577 739L219.936 719L185.295 739V779L219.936 799L254.577 779V739Z" fill="white"/>
<path fill-rule="evenodd" clip-rule="evenodd" d="M297.218 723.619L266.577 741.309V776.691L297.218 794.381L327.859 776.691V741.309L297.218 723.619ZM331.859 739L297.218 719L262.577 739V779L297.218 799L331.859 779V739Z" fill="white"/>
<path fill-rule="evenodd" clip-rule="evenodd" d="M374.5 723.619L343.859 741.309V776.691L374.5 794.381L405.141 776.691V741.309L374.5 723.619ZM409.141 739L374.5 719L339.859 739V779L374.5 799L409.141 779V739Z" fill="white"/>
<path fill-rule="evenodd" clip-rule="evenodd" d="M451.782 723.619L421.141 741.309V776.691L451.782 794.381L482.423 776.691V741.309L451.782 723.619ZM486.423 739L451.782 719L417.141 739V779L451.782 799L486.423 779V739Z" fill="white"/>
<path fill-rule="evenodd" clip-rule="evenodd" d="M529.064 723.619L498.423 741.309V776.691L529.064 794.381L559.705 776.691V741.309L529.064 723.619ZM563.705 739L529.064 719L494.423 739V779L529.064 799L563.705 779V739Z" fill="white"/>
<path fill-rule="evenodd" clip-rule="evenodd" d="M606.346 723.619L575.705 741.309V776.691L606.346 794.381L636.987 776.691V741.309L606.346 723.619ZM640.987 739L606.346 719L571.705 739V779L606.346 799L640.987 779V739Z" fill="white"/>
<path fill-rule="evenodd" clip-rule="evenodd" d="M683.628 723.619L652.987 741.309V776.691L683.628 794.381L714.269 776.691V741.309L683.628 723.619ZM718.269 739L683.628 719L648.987 739V779L683.628 799L718.269 779V739Z" fill="white"/>
<path fill-rule="evenodd" clip-rule="evenodd" d="M26.7309 789.619L-3.91016 807.309V842.691L26.7309 860.381L57.3719 842.691V807.309L26.7309 789.619ZM61.3719 805L26.7309 785L-7.91016 805V845L26.7309 865L61.3719 845V805Z" fill="white"/>
<path fill-rule="evenodd" clip-rule="evenodd" d="M104.013 789.619L73.3719 807.309V842.691L104.013 860.381L134.654 842.691V807.309L104.013 789.619ZM138.654 805L104.013 785L69.3719 805V845L104.013 865L138.654 845V805Z" fill="white"/>
<path fill-rule="evenodd" clip-rule="evenodd" d="M181.295 789.619L150.654 807.309V842.691L181.295 860.381L211.936 842.691V807.309L181.295 789.619ZM215.936 805L181.295 785L146.654 805V845L181.295 865L215.936 845V805Z" fill="white"/>
<path fill-rule="evenodd" clip-rule="evenodd" d="M258.577 789.619L227.936 807.309V842.691L258.577 860.381L289.218 842.691V807.309L258.577 789.619ZM293.218 805L258.577 785L223.936 805V845L258.577 865L293.218 845V805Z" fill="white"/>
<path fill-rule="evenodd" clip-rule="evenodd" d="M335.859 789.619L305.218 807.309V842.691L335.859 860.381L366.5 842.691V807.309L335.859 789.619ZM370.5 805L335.859 785L301.218 805V845L335.859 865L370.5 845V805Z" fill="white"/>
<path fill-rule="evenodd" clip-rule="evenodd" d="M413.141 789.619L382.5 807.309V842.691L413.141 860.381L443.782 842.691V807.309L413.141 789.619ZM447.782 805L413.141 785L378.5 805V845L413.141 865L447.782 845V805Z" fill="white"/>
<path fill-rule="evenodd" clip-rule="evenodd" d="M490.423 789.619L459.782 807.309V842.691L490.423 860.381L521.064 842.691V807.309L490.423 789.619ZM525.064 805L490.423 785L455.782 805V845L490.423 865L525.064 845V805Z" fill="white"/>
<path fill-rule="evenodd" clip-rule="evenodd" d="M567.705 789.619L537.064 807.309V842.691L567.705 860.381L598.346 842.691V807.309L567.705 789.619ZM602.346 805L567.705 785L533.064 805V845L567.705 865L602.346 845V805Z" fill="white"/>
<path fill-rule="evenodd" clip-rule="evenodd" d="M644.987 789.619L614.346 807.309V842.691L644.987 860.381L675.628 842.691V807.309L644.987 789.619ZM679.628 805L644.987 785L610.346 805V845L644.987 865L679.628 845V805Z" fill="white"/>
<path fill-rule="evenodd" clip-rule="evenodd" d="M722.269 789.619L691.628 807.309V842.691L722.269 860.381L752.91 842.691V807.309L722.269 789.619ZM756.91 805L722.269 785L687.628 805V845L722.269 865L756.91 845V805Z" fill="white"/>
<path fill-rule="evenodd" clip-rule="evenodd" d="M65.3719 855.619L34.7309 873.309V908.691L65.3719 926.381L96.0129 908.691V873.309L65.3719 855.619ZM100.013 871L65.3719 851L30.7309 871V911L65.3719 931L100.013 911V871Z" fill="white"/>
<path fill-rule="evenodd" clip-rule="evenodd" d="M142.654 855.619L112.013 873.309V908.691L142.654 926.381L173.295 908.691V873.309L142.654 855.619ZM177.295 871L142.654 851L108.013 871V911L142.654 931L177.295 911V871Z" fill="white"/>
<path fill-rule="evenodd" clip-rule="evenodd" d="M219.936 855.619L189.295 873.309V908.691L219.936 926.381L250.577 908.691V873.309L219.936 855.619ZM254.577 871L219.936 851L185.295 871V911L219.936 931L254.577 911V871Z" fill="white"/>
<path fill-rule="evenodd" clip-rule="evenodd" d="M297.218 855.619L266.577 873.309V908.691L297.218 926.381L327.859 908.691V873.309L297.218 855.619ZM331.859 871L297.218 851L262.577 871V911L297.218 931L331.859 911V871Z" fill="white"/>
<path fill-rule="evenodd" clip-rule="evenodd" d="M374.5 855.619L343.859 873.309V908.691L374.5 926.381L405.141 908.691V873.309L374.5 855.619ZM409.141 871L374.5 851L339.859 871V911L374.5 931L409.141 911V871Z" fill="white"/>
<path fill-rule="evenodd" clip-rule="evenodd" d="M451.782 855.619L421.141 873.309V908.691L451.782 926.381L482.423 908.691V873.309L451.782 855.619ZM486.423 871L451.782 851L417.141 871V911L451.782 931L486.423 911V871Z" fill="white"/>
<path fill-rule="evenodd" clip-rule="evenodd" d="M529.064 855.619L498.423 873.309V908.691L529.064 926.381L559.705 908.691V873.309L529.064 855.619ZM563.705 871L529.064 851L494.423 871V911L529.064 931L563.705 911V871Z" fill="white"/>
<path fill-rule="evenodd" clip-rule="evenodd" d="M606.346 855.619L575.705 873.309V908.691L606.346 926.381L636.987 908.691V873.309L606.346 855.619ZM640.987 871L606.346 851L571.705 871V911L606.346 931L640.987 911V871Z" fill="white"/>
<path fill-rule="evenodd" clip-rule="evenodd" d="M683.628 855.619L652.987 873.309V908.691L683.628 926.381L714.269 908.691V873.309L683.628 855.619ZM718.269 871L683.628 851L648.987 871V911L683.628 931L718.269 911V871Z" fill="white"/>
<path fill-rule="evenodd" clip-rule="evenodd" d="M26.7309 921.619L-3.91016 939.309V974.691L26.7309 992.381L57.3719 974.691V939.309L26.7309 921.619ZM61.3719 937L26.7309 917L-7.91016 937V977L26.7309 997L61.3719 977V937Z" fill="white"/>
<path fill-rule="evenodd" clip-rule="evenodd" d="M104.013 921.619L73.3719 939.309V974.691L104.013 992.381L134.654 974.691V939.309L104.013 921.619ZM138.654 937L104.013 917L69.3719 937V977L104.013 997L138.654 977V937Z" fill="white"/>
<path fill-rule="evenodd" clip-rule="evenodd" d="M181.295 921.619L150.654 939.309V974.691L181.295 992.381L211.936 974.691V939.309L181.295 921.619ZM215.936 937L181.295 917L146.654 937V977L181.295 997L215.936 977V937Z" fill="white"/>
<path fill-rule="evenodd" clip-rule="evenodd" d="M258.577 921.619L227.936 939.309V974.691L258.577 992.381L289.218 974.691V939.309L258.577 921.619ZM293.218 937L258.577 917L223.936 937V977L258.577 997L293.218 977V937Z" fill="white"/>
<path fill-rule="evenodd" clip-rule="evenodd" d="M335.859 921.619L305.218 939.309V974.691L335.859 992.381L366.5 974.691V939.309L335.859 921.619ZM370.5 937L335.859 917L301.218 937V977L335.859 997L370.5 977V937Z" fill="white"/>
<path fill-rule="evenodd" clip-rule="evenodd" d="M413.141 921.619L382.5 939.309V974.691L413.141 992.381L443.782 974.691V939.309L413.141 921.619ZM447.782 937L413.141 917L378.5 937V977L413.141 997L447.782 977V937Z" fill="white"/>
<path fill-rule="evenodd" clip-rule="evenodd" d="M490.423 921.619L459.782 939.309V974.691L490.423 992.381L521.064 974.691V939.309L490.423 921.619ZM525.064 937L490.423 917L455.782 937V977L490.423 997L525.064 977V937Z" fill="white"/>
<path fill-rule="evenodd" clip-rule="evenodd" d="M567.705 921.619L537.064 939.309V974.691L567.705 992.381L598.346 974.691V939.309L567.705 921.619ZM602.346 937L567.705 917L533.064 937V977L567.705 997L602.346 977V937Z" fill="white"/>
<path fill-rule="evenodd" clip-rule="evenodd" d="M644.987 921.619L614.346 939.309V974.691L644.987 992.381L675.628 974.691V939.309L644.987 921.619ZM679.628 937L644.987 917L610.346 937V977L644.987 997L679.628 977V937Z" fill="white"/>
<path fill-rule="evenodd" clip-rule="evenodd" d="M722.269 921.619L691.628 939.309V974.691L722.269 992.381L752.91 974.691V939.309L722.269 921.619ZM756.91 937L722.269 917L687.628 937V977L722.269 997L756.91 977V937Z" fill="white"/>
<path fill-rule="evenodd" clip-rule="evenodd" d="M65.3719 987.619L34.7309 1005.31V1040.69L65.3719 1058.38L96.0129 1040.69V1005.31L65.3719 987.619ZM100.013 1003L65.3719 983L30.7309 1003V1043L65.3719 1063L100.013 1043V1003Z" fill="white"/>
<path fill-rule="evenodd" clip-rule="evenodd" d="M142.654 987.619L112.013 1005.31V1040.69L142.654 1058.38L173.295 1040.69V1005.31L142.654 987.619ZM177.295 1003L142.654 983L108.013 1003V1043L142.654 1063L177.295 1043V1003Z" fill="white"/>
<path fill-rule="evenodd" clip-rule="evenodd" d="M219.936 987.619L189.295 1005.31V1040.69L219.936 1058.38L250.577 1040.69V1005.31L219.936 987.619ZM254.577 1003L219.936 983L185.295 1003V1043L219.936 1063L254.577 1043V1003Z" fill="white"/>
<path fill-rule="evenodd" clip-rule="evenodd" d="M297.218 987.619L266.577 1005.31V1040.69L297.218 1058.38L327.859 1040.69V1005.31L297.218 987.619ZM331.859 1003L297.218 983L262.577 1003V1043L297.218 1063L331.859 1043V1003Z" fill="white"/>
<path fill-rule="evenodd" clip-rule="evenodd" d="M374.5 987.619L343.859 1005.31V1040.69L374.5 1058.38L405.141 1040.69V1005.31L374.5 987.619ZM409.141 1003L374.5 983L339.859 1003V1043L374.5 1063L409.141 1043V1003Z" fill="white"/>
<path fill-rule="evenodd" clip-rule="evenodd" d="M451.782 987.619L421.141 1005.31V1040.69L451.782 1058.38L482.423 1040.69V1005.31L451.782 987.619ZM486.423 1003L451.782 983L417.141 1003V1043L451.782 1063L486.423 1043V1003Z" fill="white"/>
<path fill-rule="evenodd" clip-rule="evenodd" d="M529.064 987.619L498.423 1005.31V1040.69L529.064 1058.38L559.705 1040.69V1005.31L529.064 987.619ZM563.705 1003L529.064 983L494.423 1003V1043L529.064 1063L563.705 1043V1003Z" fill="white"/>
<path fill-rule="evenodd" clip-rule="evenodd" d="M606.346 987.619L575.705 1005.31V1040.69L606.346 1058.38L636.987 1040.69V1005.31L606.346 987.619ZM640.987 1003L606.346 983L571.705 1003V1043L606.346 1063L640.987 1043V1003Z" fill="white"/>
<path fill-rule="evenodd" clip-rule="evenodd" d="M683.628 987.619L652.987 1005.31V1040.69L683.628 1058.38L714.269 1040.69V1005.31L683.628 987.619ZM718.269 1003L683.628 983L648.987 1003V1043L683.628 1063L718.269 1043V1003Z" fill="white"/>
<path fill-rule="evenodd" clip-rule="evenodd" d="M26.7309 1053.62L-3.91016 1071.31V1106.69L26.7309 1124.38L57.3719 1106.69V1071.31L26.7309 1053.62ZM61.3719 1069L26.7309 1049L-7.91016 1069V1109L26.7309 1129L61.3719 1109V1069Z" fill="white"/>
<path fill-rule="evenodd" clip-rule="evenodd" d="M104.013 1053.62L73.3719 1071.31V1106.69L104.013 1124.38L134.654 1106.69V1071.31L104.013 1053.62ZM138.654 1069L104.013 1049L69.3719 1069V1109L104.013 1129L138.654 1109V1069Z" fill="white"/>
<path fill-rule="evenodd" clip-rule="evenodd" d="M181.295 1053.62L150.654 1071.31V1106.69L181.295 1124.38L211.936 1106.69V1071.31L181.295 1053.62ZM215.936 1069L181.295 1049L146.654 1069V1109L181.295 1129L215.936 1109V1069Z" fill="white"/>
<path fill-rule="evenodd" clip-rule="evenodd" d="M258.577 1053.62L227.936 1071.31V1106.69L258.577 1124.38L289.218 1106.69V1071.31L258.577 1053.62ZM293.218 1069L258.577 1049L223.936 1069V1109L258.577 1129L293.218 1109V1069Z" fill="white"/>
<path fill-rule="evenodd" clip-rule="evenodd" d="M335.859 1053.62L305.218 1071.31V1106.69L335.859 1124.38L366.5 1106.69V1071.31L335.859 1053.62ZM370.5 1069L335.859 1049L301.218 1069V1109L335.859 1129L370.5 1109V1069Z" fill="white"/>
<path fill-rule="evenodd" clip-rule="evenodd" d="M413.141 1053.62L382.5 1071.31V1106.69L413.141 1124.38L443.782 1106.69V1071.31L413.141 1053.62ZM447.782 1069L413.141 1049L378.5 1069V1109L413.141 1129L447.782 1109V1069Z" fill="white"/>
<path fill-rule="evenodd" clip-rule="evenodd" d="M490.423 1053.62L459.782 1071.31V1106.69L490.423 1124.38L521.064 1106.69V1071.31L490.423 1053.62ZM525.064 1069L490.423 1049L455.782 1069V1109L490.423 1129L525.064 1109V1069Z" fill="white"/>
<path fill-rule="evenodd" clip-rule="evenodd" d="M567.705 1053.62L537.064 1071.31V1106.69L567.705 1124.38L598.346 1106.69V1071.31L567.705 1053.62ZM602.346 1069L567.705 1049L533.064 1069V1109L567.705 1129L602.346 1109V1069Z" fill="white"/>
<path fill-rule="evenodd" clip-rule="evenodd" d="M644.987 1053.62L614.346 1071.31V1106.69L644.987 1124.38L675.628 1106.69V1071.31L644.987 1053.62ZM679.628 1069L644.987 1049L610.346 1069V1109L644.987 1129L679.628 1109V1069Z" fill="white"/>
<path fill-rule="evenodd" clip-rule="evenodd" d="M722.269 1053.62L691.628 1071.31V1106.69L722.269 1124.38L752.91 1106.69V1071.31L722.269 1053.62ZM756.91 1069L722.269 1049L687.628 1069V1109L722.269 1129L756.91 1109V1069Z" fill="white"/>
</g>
</svg>
