<svg width="750" height="1050" viewBox="0 0 750 1050" fill="none" xmlns="http://www.w3.org/2000/svg">
<rect width="750" height="1050" fill="white"/>
<path d="M0 50C0 22.3858 22.3858 0 50 0H700C727.614 0 750 22.3858 750 50V1000C750 1027.61 727.614 1050 700 1050H50C22.3858 1050 0 1027.61 0 1000V50Z" fill="white"/>
<path d="M299.245 281.204C299.245 265.432 286.46 252.647 270.693 252.647C259.478 252.647 249.78 259.109 245.111 268.51C240.431 259.108 230.742 252.647 219.524 252.647C203.758 252.647 190.971 265.432 190.971 281.204C190.971 318.882 244.513 339.504 244.513 339.504C244.514 339.502 299.245 318.619 299.245 281.204Z" fill="#FF3B30"/>
<path d="M299.245 433.537C299.245 417.765 286.46 404.98 270.693 404.98C259.478 404.98 249.78 411.442 245.111 420.843C240.431 411.441 230.742 404.98 219.524 404.98C203.758 404.98 190.971 417.765 190.971 433.537C190.971 471.215 244.513 491.837 244.513 491.837C244.514 491.835 299.245 470.952 299.245 433.537Z" fill="#FF3B30"/>
<path d="M190.755 767.796C190.755 783.568 203.54 796.353 219.307 796.353C230.522 796.353 240.22 789.891 244.889 780.49C249.569 789.892 259.258 796.353 270.476 796.353C286.242 796.353 299.029 783.568 299.029 767.796C299.029 730.118 245.487 709.496 245.487 709.496C245.486 709.498 190.755 730.381 190.755 767.796Z" fill="#FF3B30"/>
<path d="M429.245 509.704C429.245 493.932 416.46 481.147 400.693 481.147C389.478 481.147 379.78 487.609 375.111 497.01C370.431 487.608 360.742 481.147 349.524 481.147C333.758 481.147 320.971 493.932 320.971 509.704C320.971 547.382 374.513 568.004 374.513 568.004C374.514 568.002 429.245 547.119 429.245 509.704Z" fill="#FF3B30"/>
<path d="M559.245 281.204C559.245 265.432 546.46 252.647 530.693 252.647C519.478 252.647 509.78 259.109 505.111 268.51C500.431 259.108 490.742 252.647 479.524 252.647C463.758 252.647 450.971 265.432 450.971 281.204C450.971 318.882 504.513 339.504 504.513 339.504C504.514 339.502 559.245 318.619 559.245 281.204Z" fill="#FF3B30"/>
<path d="M450.755 615.463C450.755 631.235 463.54 644.02 479.307 644.02C490.522 644.02 500.22 637.558 504.889 628.157C509.569 637.559 519.258 644.02 530.476 644.02C546.242 644.02 559.029 631.235 559.029 615.463C559.029 577.785 505.487 557.163 505.487 557.163C505.486 557.165 450.755 578.048 450.755 615.463Z" fill="#FF3B30"/>
<path d="M450.755 767.796C450.755 783.568 463.54 796.353 479.307 796.353C490.522 796.353 500.22 789.891 504.889 780.49C509.569 789.892 519.258 796.353 530.476 796.353C546.242 796.353 559.029 783.568 559.029 767.796C559.029 730.118 505.487 709.496 505.487 709.496C505.486 709.498 450.755 730.381 450.755 767.796Z" fill="#FF3B30"/>
<path d="M92.75 100V111H124.75L100.55 170H112.65L137.25 110V100H92.75Z" fill="#FF3B30"/>
<path d="M657.25 950V939H625.25L649.45 880H637.35L612.75 940V950H657.25Z" fill="#FF3B30"/>
<path d="M669.52 125.584C669.52 115.548 661.384 107.412 651.35 107.412C644.213 107.412 638.042 111.524 635.071 117.507C632.093 111.523 625.927 107.412 618.788 107.412C608.755 107.412 600.618 115.548 600.618 125.584C600.618 149.561 634.69 162.684 634.69 162.684C634.691 162.683 669.52 149.394 669.52 125.584Z" fill="#FF3B30"/>
<path d="M80.4804 924.416C80.4804 934.452 88.616 942.588 98.6496 942.588C105.787 942.588 111.958 938.476 114.929 932.493C117.907 938.477 124.073 942.588 131.212 942.588C141.245 942.588 149.382 934.452 149.382 924.416C149.382 900.439 115.31 887.316 115.31 887.316C115.309 887.317 80.4804 900.606 80.4804 924.416Z" fill="#FF3B30"/>
</svg>
