<svg width="750" height="1050" viewBox="0 0 750 1050" fill="none" xmlns="http://www.w3.org/2000/svg">
<rect width="750" height="1050" fill="white"/>
<path d="M0 50C0 22.3858 22.3858 0 50 0H700C727.614 0 750 22.3858 750 50V1000C750 1027.61 727.614 1050 700 1050H50C22.3858 1050 0 1027.61 0 1000V50Z" fill="white"/>
<path d="M141.4 170L112.1 134.1L140.4 100H126.7L100.1 131.4V100H88.6001V170H100.1V136.7L127.7 170H141.4Z" fill="#1C1C1E"/>
<path d="M608.6 880L637.9 915.9L609.6 950H623.3L649.9 918.6V950H661.4V880H649.9V913.3L622.3 880H608.6Z" fill="#1C1C1E"/>
<g clip-path="url(#clip0_63_7205)">
<path d="M459.435 490.599C458.812 493.704 456.642 495.881 453.848 496.81C450.743 497.434 447.637 496.498 445.772 494.016L374.961 405.5L304.158 494.009C302.293 496.491 299.187 497.427 296.082 496.803C293.288 495.874 291.111 493.697 290.494 490.592C280.554 441.527 246.392 426.302 229.936 421.644L247.328 596.797H502.607L520 421.644C503.529 425.997 469.368 441.213 459.434 490.597L459.435 490.599ZM408.193 517.924L381.796 570.095C380.555 572.888 377.761 574.441 374.961 574.441C372.167 574.441 369.373 572.888 368.126 570.095L341.728 517.924C340.799 515.748 340.799 512.954 341.728 510.784L368.126 458.614C370.607 453.332 379.307 453.332 381.789 458.614L408.186 510.784C409.122 512.954 409.122 515.748 408.193 517.924Z" fill="#1C1C1E"/>
<path d="M245.452 612.32L232.725 644.311H517.197L504.469 612.32H245.452Z" fill="#1C1C1E"/>
</g>
<path d="M651.369 124.391C651.114 124.391 650.859 124.397 650.609 124.409C651.209 122.7 651.539 120.864 651.539 118.953C651.539 109.853 644.161 102.471 635.058 102.471C625.954 102.471 618.575 109.853 618.575 118.953C618.575 120.864 618.905 122.7 619.504 124.409C619.253 124.397 619 124.391 618.746 124.391C609.642 124.391 602.265 131.769 602.265 140.869C602.265 149.973 609.642 157.35 618.746 157.35C624.114 157.35 628.874 154.779 631.882 150.806C630.084 157.775 627.692 165.034 625.104 167.376H645.008C642.423 165.035 640.035 157.785 638.233 150.819C641.243 154.783 646.005 157.349 651.368 157.349C660.466 157.349 667.847 149.971 667.847 140.868C667.848 131.769 660.467 124.391 651.369 124.391H651.369ZM635.816 135.413C635.791 135.49 635.673 135.416 635.673 135.416C635.721 135.416 635.769 135.416 635.816 135.413Z" fill="#1C1C1E"/>
<path d="M98.6314 925.609C98.8855 925.609 99.1407 925.603 99.3906 925.591C98.7911 927.3 98.4609 929.136 98.4609 931.047C98.4609 940.147 105.839 947.529 114.942 947.529C124.046 947.529 131.425 940.147 131.425 931.047C131.425 929.136 131.095 927.3 130.496 925.591C130.747 925.603 131 925.609 131.254 925.609C140.358 925.609 147.735 918.231 147.735 909.131C147.735 900.027 140.358 892.65 131.254 892.65C125.886 892.65 121.126 895.221 118.118 899.194C119.916 892.225 122.308 884.966 124.896 882.624H104.992C107.577 884.965 109.965 892.215 111.767 899.181C108.757 895.217 103.995 892.651 98.6321 892.651C89.5335 892.651 82.153 900.029 82.153 909.132C82.152 918.231 89.5327 925.609 98.631 925.609H98.6314ZM114.184 914.587C114.209 914.51 114.327 914.584 114.327 914.584C114.279 914.584 114.231 914.584 114.184 914.587Z" fill="#1C1C1E"/>
<defs>
<clipPath id="clip0_63_7205">
<rect width="290" height="290" fill="white" transform="translate(230 379.5)"/>
</clipPath>
</defs>
</svg>
