<svg width="750" height="1050" viewBox="0 0 750 1050" fill="none" xmlns="http://www.w3.org/2000/svg">
<rect width="750" height="1050" fill="white"/>
<path d="M0 50C0 22.3858 22.3858 0 50 0H700C727.614 0 750 22.3858 750 50V1000C750 1027.61 727.614 1050 700 1050H50C22.3858 1050 0 1027.61 0 1000V50Z" fill="white"/>
<path d="M245.125 242.294L298.956 296.125L245.125 349.956L191.294 296.125L245.125 242.294Z" fill="#FF3B30"/>
<path d="M245.125 394.627L298.956 448.458L245.125 502.289L191.294 448.458L245.125 394.627Z" fill="#FF3B30"/>
<path d="M244.875 806.706L191.044 752.875L244.875 699.044L298.706 752.875L244.875 806.706Z" fill="#FF3B30"/>
<path d="M375.125 470.794L428.956 524.625L375.125 578.456L321.294 524.625L375.125 470.794Z" fill="#FF3B30"/>
<path d="M505.125 242.294L558.956 296.125L505.125 349.956L451.294 296.125L505.125 242.294Z" fill="#FF3B30"/>
<path d="M504.875 654.373L451.044 600.542L504.875 546.711L558.706 600.542L504.875 654.373Z" fill="#FF3B30"/>
<path d="M504.875 806.706L451.044 752.875L504.875 699.044L558.706 752.875L504.875 806.706Z" fill="#FF3B30"/>
<path d="M92.75 100V111H124.75L100.55 170H112.65L137.25 110V100H92.75Z" fill="#FF3B30"/>
<path d="M657.25 950V939H625.25L649.45 880H637.35L612.75 940V950H657.25Z" fill="#FF3B30"/>
<path d="M635.08 100.823L669.336 135.079L635.08 169.335L600.824 135.079L635.08 100.823Z" fill="#FF3B30"/>
<path d="M114.92 949.177L80.6643 914.921L114.92 880.665L149.176 914.921L114.92 949.177Z" fill="#FF3B30"/>
</svg>
