<svg width="340" height="340" viewBox="0 0 340 340" fill="none" xmlns="http://www.w3.org/2000/svg">
<path d="M170 0C215.685 0 258.545 18.1262 290.207 49.7927C295.921 55.5036 301.212 61.6034 306.043 68.0428L306 34.0004C306 25.2825 312.563 18.0964 321.017 17.1147L323 17.0008C331.718 17.0008 338.904 23.5634 339.886 32.0178L339.999 34.0005V119C339.999 127.718 333.437 134.904 324.982 135.886L323 136H238C228.611 136 221 128.389 221 119C221 110.282 227.563 103.096 236.017 102.114L238 102L287.812 102.005C281.868 91.7333 274.592 82.2589 266.166 73.8348C240.815 48.4819 206.576 34.001 170.001 34.001C94.8917 34.001 34.0016 94.891 34.0016 170C34.0016 245.11 94.8917 306 170.001 306C206.576 306 240.818 291.518 266.166 266.166C278.797 253.537 288.848 238.546 295.688 222.053C299.089 213.852 301.679 205.321 303.41 196.561C305.234 187.349 314.177 181.361 323.386 183.182C332.598 185.004 338.586 193.947 336.765 203.159C334.595 214.127 331.352 224.809 327.095 235.076C318.541 255.705 305.981 274.436 290.207 290.207C258.543 321.873 215.686 340 169.999 340C76.111 340 0 263.889 0 170.001C0 76.1128 76.111 0.00176799 169.999 0.00176799L170 0Z" fill="white"/>
</svg>
