<svg width="750" height="1050" viewBox="0 0 750 1050" fill="none" xmlns="http://www.w3.org/2000/svg">
<rect width="750" height="1050" fill="white"/>
<path d="M0 50C0 22.3858 22.3858 0 50 0H700C727.614 0 750 22.3858 750 50V1000C750 1027.61 727.614 1050 700 1050H50C22.3858 1050 0 1027.61 0 1000V50Z" fill="white"/>
<path d="M270.722 278.329C270.323 278.329 269.922 278.339 269.529 278.357C270.471 275.671 270.99 272.786 270.99 269.784C270.99 255.483 259.395 243.883 245.091 243.883C230.785 243.883 219.19 255.483 219.19 269.784C219.19 272.786 219.707 275.671 220.649 278.357C220.255 278.339 219.857 278.329 219.458 278.329C205.152 278.329 193.559 289.923 193.559 304.223C193.559 318.529 205.152 330.122 219.458 330.122C227.894 330.122 235.374 326.081 240.1 319.838C237.274 330.789 233.516 342.197 229.449 345.877H260.727C256.664 342.198 252.912 330.805 250.081 319.858C254.811 326.088 262.294 330.12 270.721 330.12C285.019 330.12 296.617 318.527 296.617 304.221C296.618 289.923 285.02 278.329 270.723 278.329H270.722ZM246.282 295.649C246.244 295.77 246.058 295.654 246.058 295.654C246.132 295.654 246.208 295.654 246.282 295.649Z" fill="#1C1C1E"/>
<path d="M270.722 506.829C270.323 506.829 269.922 506.839 269.529 506.857C270.471 504.171 270.99 501.286 270.99 498.284C270.99 483.983 259.395 472.383 245.091 472.383C230.785 472.383 219.19 483.983 219.19 498.284C219.19 501.286 219.707 504.171 220.649 506.857C220.255 506.839 219.857 506.829 219.458 506.829C205.152 506.829 193.559 518.423 193.559 532.723C193.559 547.029 205.152 558.622 219.458 558.622C227.894 558.622 235.374 554.581 240.1 548.338C237.274 559.289 233.516 570.697 229.449 574.377H260.727C256.664 570.698 252.912 559.305 250.081 548.358C254.811 554.588 262.294 558.62 270.721 558.62C285.019 558.62 296.617 547.027 296.617 532.721C296.618 518.423 285.02 506.829 270.723 506.829H270.722ZM246.282 524.149C246.244 524.27 246.058 524.154 246.058 524.154C246.132 524.154 246.208 524.154 246.282 524.149Z" fill="#1C1C1E"/>
<path d="M219.278 768.671C219.677 768.671 220.078 768.661 220.471 768.643C219.529 771.329 219.01 774.214 219.01 777.216C219.01 791.517 230.605 803.117 244.909 803.117C259.215 803.117 270.81 791.517 270.81 777.216C270.81 774.214 270.293 771.329 269.351 768.643C269.745 768.661 270.143 768.671 270.542 768.671C284.848 768.671 296.441 757.077 296.441 742.777C296.441 728.471 284.848 716.878 270.542 716.878C262.106 716.878 254.626 720.919 249.9 727.162C252.726 716.211 256.484 704.803 260.551 701.123H229.273C233.336 704.802 237.088 716.195 239.919 727.142C235.189 720.912 227.706 716.88 219.279 716.88C204.981 716.88 193.383 728.473 193.383 742.779C193.382 757.077 204.98 768.671 219.277 768.671H219.278ZM243.718 751.351C243.756 751.23 243.942 751.346 243.942 751.346C243.868 751.346 243.792 751.346 243.718 751.351Z" fill="#1C1C1E"/>
<path d="M400.722 392.579C400.323 392.579 399.922 392.589 399.529 392.607C400.471 389.921 400.99 387.036 400.99 384.034C400.99 369.733 389.395 358.133 375.091 358.133C360.785 358.133 349.19 369.733 349.19 384.034C349.19 387.036 349.707 389.921 350.649 392.607C350.255 392.589 349.857 392.579 349.458 392.579C335.152 392.579 323.559 404.173 323.559 418.473C323.559 432.779 335.152 444.372 349.458 444.372C357.894 444.372 365.374 440.331 370.1 434.088C367.274 445.039 363.516 456.447 359.449 460.127H390.727C386.664 456.448 382.912 445.055 380.081 434.108C384.811 440.338 392.294 444.37 400.721 444.37C415.019 444.37 426.617 432.777 426.617 418.471C426.618 404.173 415.02 392.579 400.723 392.579H400.722ZM376.282 409.899C376.244 410.02 376.058 409.904 376.058 409.904C376.132 409.904 376.208 409.904 376.282 409.899Z" fill="#1C1C1E"/>
<path d="M349.278 654.421C349.677 654.421 350.078 654.411 350.471 654.393C349.529 657.079 349.01 659.964 349.01 662.966C349.01 677.267 360.605 688.867 374.909 688.867C389.215 688.867 400.81 677.267 400.81 662.966C400.81 659.964 400.293 657.079 399.351 654.393C399.745 654.411 400.143 654.421 400.542 654.421C414.848 654.421 426.441 642.827 426.441 628.527C426.441 614.221 414.848 602.628 400.542 602.628C392.106 602.628 384.626 606.669 379.9 612.912C382.726 601.961 386.484 590.553 390.551 586.873H359.273C363.336 590.552 367.088 601.945 369.919 612.892C365.189 606.662 357.706 602.63 349.279 602.63C334.981 602.63 323.383 614.223 323.383 628.529C323.382 642.827 334.98 654.421 349.277 654.421H349.278ZM373.718 637.101C373.756 636.98 373.942 637.096 373.942 637.096C373.868 637.096 373.792 637.096 373.718 637.101Z" fill="#1C1C1E"/>
<path d="M530.722 278.329C530.323 278.329 529.922 278.339 529.529 278.357C530.471 275.671 530.99 272.786 530.99 269.784C530.99 255.483 519.395 243.883 505.091 243.883C490.785 243.883 479.19 255.483 479.19 269.784C479.19 272.786 479.707 275.671 480.649 278.357C480.255 278.339 479.857 278.329 479.458 278.329C465.152 278.329 453.559 289.923 453.559 304.223C453.559 318.529 465.152 330.122 479.458 330.122C487.894 330.122 495.374 326.081 500.1 319.838C497.274 330.789 493.516 342.197 489.449 345.877H520.727C516.664 342.198 512.912 330.805 510.081 319.858C514.811 326.088 522.294 330.12 530.721 330.12C545.019 330.12 556.617 318.527 556.617 304.221C556.618 289.923 545.02 278.329 530.723 278.329H530.722ZM506.282 295.649C506.244 295.77 506.058 295.654 506.058 295.654C506.132 295.654 506.208 295.654 506.282 295.649Z" fill="#1C1C1E"/>
<path d="M479.278 540.171C479.677 540.171 480.078 540.161 480.471 540.143C479.529 542.829 479.01 545.714 479.01 548.716C479.01 563.017 490.605 574.617 504.909 574.617C519.215 574.617 530.81 563.017 530.81 548.716C530.81 545.714 530.293 542.829 529.351 540.143C529.745 540.161 530.143 540.171 530.542 540.171C544.848 540.171 556.441 528.577 556.441 514.277C556.441 499.971 544.848 488.378 530.542 488.378C522.106 488.378 514.626 492.419 509.9 498.662C512.726 487.711 516.484 476.303 520.551 472.623H489.273C493.336 476.302 497.088 487.695 499.919 498.642C495.189 492.412 487.706 488.38 479.279 488.38C464.981 488.38 453.383 499.973 453.383 514.279C453.382 528.577 464.98 540.171 479.277 540.171H479.278ZM503.718 522.851C503.756 522.73 503.942 522.846 503.942 522.846C503.868 522.846 503.792 522.846 503.718 522.851Z" fill="#1C1C1E"/>
<path d="M479.278 768.671C479.677 768.671 480.078 768.661 480.471 768.643C479.529 771.329 479.01 774.214 479.01 777.216C479.01 791.517 490.605 803.117 504.909 803.117C519.215 803.117 530.81 791.517 530.81 777.216C530.81 774.214 530.293 771.329 529.351 768.643C529.745 768.661 530.143 768.671 530.542 768.671C544.848 768.671 556.441 757.077 556.441 742.777C556.441 728.471 544.848 716.878 530.542 716.878C522.106 716.878 514.626 720.919 509.9 727.162C512.726 716.211 516.484 704.803 520.551 701.123H489.273C493.336 704.802 497.088 716.195 499.919 727.142C495.189 720.912 487.706 716.88 479.279 716.88C464.981 716.88 453.383 728.473 453.383 742.779C453.382 757.077 464.98 768.671 479.277 768.671H479.278ZM503.718 751.351C503.756 751.23 503.942 751.346 503.942 751.346C503.868 751.346 503.792 751.346 503.718 751.351Z" fill="#1C1C1E"/>
<path d="M129.25 134.9C134.05 131.8 137.25 126.8 137.25 120.1C137.25 106.6 126.65 100 115.05 100C103.35 100 92.85 106.6 92.85 120.1C92.85 126.8 96.05 131.8 100.75 134.9C94.35 138.5 90.45 144.6 90.45 151.9C90.45 164.9 100.45 172.6 115.05 172.6C129.65 172.6 139.55 164.9 139.55 151.9C139.55 144.5 135.75 138.5 129.25 134.9ZM115.05 110.9C120.85 110.9 125.75 114.1 125.75 120.6C125.75 126.8 120.85 130.3 115.05 130.3C109.15 130.3 104.35 126.8 104.35 120.6C104.35 114.1 109.15 110.9 115.05 110.9ZM115.05 161.7C107.45 161.7 101.95 157.9 101.95 150.8C101.95 143.6 107.45 139.9 115.05 139.9C122.55 139.9 128.05 143.6 128.05 150.8C128.05 157.9 122.55 161.7 115.05 161.7Z" fill="#1C1C1E"/>
<path d="M620.75 915.1C615.95 918.2 612.75 923.2 612.75 929.9C612.75 943.4 623.35 950 634.95 950C646.65 950 657.15 943.4 657.15 929.9C657.15 923.2 653.95 918.2 649.25 915.1C655.65 911.5 659.55 905.4 659.55 898.1C659.55 885.1 649.55 877.4 634.95 877.4C620.35 877.4 610.45 885.1 610.45 898.1C610.45 905.5 614.25 911.5 620.75 915.1ZM634.95 939.1C629.15 939.1 624.25 935.9 624.25 929.4C624.25 923.2 629.15 919.7 634.95 919.7C640.85 919.7 645.65 923.2 645.65 929.4C645.65 935.9 640.85 939.1 634.95 939.1ZM634.95 888.3C642.55 888.3 648.05 892.1 648.05 899.2C648.05 906.4 642.55 910.1 634.95 910.1C627.45 910.1 621.95 906.4 621.95 899.2C621.95 892.1 627.45 888.3 634.95 888.3Z" fill="#1C1C1E"/>
<path d="M651.369 124.391C651.115 124.391 650.859 124.397 650.61 124.409C651.209 122.7 651.539 120.864 651.539 118.953C651.539 109.853 644.161 102.471 635.058 102.471C625.954 102.471 618.576 109.853 618.576 118.953C618.576 120.864 618.905 122.7 619.504 124.409C619.253 124.397 619 124.391 618.746 124.391C609.642 124.391 602.265 131.769 602.265 140.869C602.265 149.973 609.642 157.35 618.746 157.35C624.114 157.35 628.874 154.779 631.882 150.806C630.084 157.775 627.692 165.034 625.104 167.376H645.008C642.423 165.035 640.035 157.785 638.233 150.819C641.243 154.783 646.005 157.349 651.368 157.349C660.467 157.349 667.847 149.971 667.847 140.868C667.848 131.769 660.467 124.391 651.369 124.391H651.369ZM635.816 135.413C635.791 135.49 635.673 135.416 635.673 135.416C635.721 135.416 635.769 135.416 635.816 135.413Z" fill="#1C1C1E"/>
<path d="M98.6313 925.609C98.8854 925.609 99.1407 925.603 99.3905 925.591C98.7911 927.3 98.4608 929.136 98.4608 931.047C98.4608 940.147 105.839 947.529 114.942 947.529C124.046 947.529 131.424 940.147 131.424 931.047C131.424 929.136 131.095 927.3 130.496 925.591C130.747 925.603 131 925.609 131.254 925.609C140.358 925.609 147.735 918.231 147.735 909.131C147.735 900.027 140.358 892.65 131.254 892.65C125.886 892.65 121.126 895.221 118.118 899.194C119.916 892.225 122.308 884.966 124.896 882.624H104.992C107.577 884.965 109.965 892.215 111.767 899.181C108.757 895.217 103.995 892.651 98.6321 892.651C89.5334 892.651 82.153 900.029 82.153 909.132C82.1519 918.231 89.5326 925.609 98.631 925.609H98.6313ZM114.184 914.587C114.209 914.51 114.327 914.584 114.327 914.584C114.279 914.584 114.231 914.584 114.184 914.587Z" fill="#1C1C1E"/>
</svg>
