<svg width="750" height="1050" viewBox="0 0 750 1050" fill="none" xmlns="http://www.w3.org/2000/svg">
<g clip-path="url(#clip0_63_7203)">
<rect width="750" height="1050" fill="white"/>
<path d="M0 50C0 22.3858 22.3858 0 50 0H700C727.614 0 750 22.3858 750 50V1000C750 1027.61 727.614 1050 700 1050H50C22.3858 1050 0 1027.61 0 1000V50Z" fill="white"/>
<path d="M754.341 536.834C750.935 536.834 747.515 536.92 744.167 537.078C752.2 514.174 756.625 489.575 756.625 463.97C756.625 342.022 657.753 243.105 535.776 243.105C413.784 243.105 314.912 342.022 314.912 463.97C314.912 489.575 319.323 514.173 327.355 537.078C323.993 536.92 320.602 536.834 317.197 536.834C195.205 536.834 96.3472 635.707 96.3472 757.639C96.3472 879.631 195.205 978.489 317.197 978.489C389.128 978.489 452.912 944.032 493.217 890.795C469.12 984.179 437.077 1081.46 402.393 1112.84H669.108C634.465 1081.47 602.466 984.319 578.325 890.968C618.659 944.088 682.468 978.474 754.33 978.474C876.252 978.474 975.15 879.616 975.15 757.625C975.165 635.703 876.263 536.834 754.345 536.834H754.341ZM545.935 684.53C545.605 685.565 544.024 684.573 544.024 684.573C544.657 684.573 545.303 684.573 545.935 684.53Z" fill="#1C1C1E"/>
<path d="M128.925 220.96C151.094 220.96 168.796 208.386 168.796 183.736V103H149.77V183.736C149.77 195.647 142.325 202.431 129.09 202.431C118.502 202.431 111.884 198.46 108.079 190.188L91.7002 199.783C98.4833 213.846 112.05 220.96 128.925 220.96Z" fill="#1C1C1E"/>
<path d="M293.487 145.006C293.067 145.006 292.645 145.017 292.231 145.036C293.223 142.208 293.769 139.171 293.769 136.01C293.769 120.954 281.562 108.741 266.502 108.741C251.441 108.741 239.234 120.954 239.234 136.01C239.234 139.171 239.778 142.208 240.77 145.036C240.355 145.017 239.936 145.006 239.516 145.006C224.454 145.006 212.249 157.213 212.249 172.268C212.249 187.329 224.454 199.535 239.516 199.535C248.397 199.535 256.272 195.28 261.248 188.708C258.273 200.237 254.317 212.247 250.034 216.122H282.964C278.687 212.249 274.736 200.254 271.756 188.729C276.735 195.287 284.614 199.533 293.486 199.533C308.539 199.533 320.749 187.327 320.749 172.266C320.751 157.213 308.54 145.006 293.488 145.006H293.487ZM267.757 163.241C267.716 163.369 267.521 163.247 267.521 163.247C267.599 163.247 267.679 163.247 267.757 163.241Z" fill="#1C1C1E"/>
</g>
<defs>
<clipPath id="clip0_63_7203">
<rect width="750" height="1050" fill="white"/>
</clipPath>
</defs>
</svg>
