<svg width="750" height="1050" viewBox="0 0 750 1050" fill="none" xmlns="http://www.w3.org/2000/svg">
<rect width="750" height="1050" fill="white"/>
<path d="M0 50C0 22.3858 22.3858 0 50 0H700C727.614 0 750 22.3858 750 50V1000C750 1027.61 727.614 1050 700 1050H50C22.3858 1050 0 1027.61 0 1000V50Z" fill="white"/>
<path d="M245.125 242.294L298.956 296.125L245.125 349.956L191.294 296.125L245.125 242.294Z" fill="#FF3B30"/>
<path d="M244.875 806.706L191.044 752.875L244.875 699.044L298.706 752.875L244.875 806.706Z" fill="#FF3B30"/>
<path d="M505.125 242.294L558.956 296.125L505.125 349.956L451.294 296.125L505.125 242.294Z" fill="#FF3B30"/>
<path d="M504.875 806.706L451.044 752.875L504.875 699.044L558.706 752.875L504.875 806.706Z" fill="#FF3B30"/>
<path d="M142 146.7H134V128.5H122.4V146.7H100.5L124.6 100H112.1L88 146.7V157.4H122.4V170H134V157.4H142V146.7Z" fill="#FF3B30"/>
<path d="M608 903.3H616V921.5H627.6V903.3H649.5L625.4 950H637.9L662 903.3V892.6H627.6V880H616V892.6H608V903.3Z" fill="#FF3B30"/>
<path d="M635.08 100.823L669.336 135.079L635.08 169.335L600.823 135.079L635.08 100.823Z" fill="#FF3B30"/>
<path d="M114.92 949.177L80.6644 914.921L114.92 880.665L149.177 914.921L114.92 949.177Z" fill="#FF3B30"/>
</svg>
