<svg width="750" height="1050" viewBox="0 0 750 1050" fill="none" xmlns="http://www.w3.org/2000/svg">
<g clip-path="url(#clip0_63_6979)">
<rect width="750" height="1050" fill="white"/>
<path d="M0 50C0 22.3858 22.3858 0 50 0H700C727.614 0 750 22.3858 750 50V1000C750 1027.61 727.614 1050 700 1050H50C22.3858 1050 0 1027.61 0 1000V50Z" fill="white"/>
<path d="M540.444 248.623C540.444 248.623 74.2764 426.538 74.2764 745.175C74.2764 879.522 183.176 988.411 317.513 988.411C382.661 988.411 441.803 962.705 485.44 921.007C462.694 1003.57 434.101 1083.39 403.496 1111.12H667.221C636.63 1083.39 608.035 1003.57 585.277 921.007C628.899 962.721 688.045 988.411 753.249 988.411C887.556 988.411 996.441 879.522 996.441 745.175C996.484 424.276 540.462 248.623 540.462 248.623H540.444Z" fill="#1C1C1E"/>
<path d="M176.173 220.1L127.577 160.557L174.514 104H151.792L107.674 156.079V104H88.6001V220.1H107.674V164.87L153.45 220.1H176.173Z" fill="#1C1C1E"/>
<path d="M274.702 108.78C274.702 108.78 217.003 130.801 217.003 170.24C217.003 186.869 230.482 200.347 247.109 200.347C255.173 200.347 262.493 197.165 267.894 192.004C265.079 202.223 261.54 212.103 257.752 215.535H290.394C286.608 212.103 283.068 202.223 280.251 192.004C285.651 197.167 292.971 200.347 301.042 200.347C317.666 200.347 331.143 186.869 331.143 170.24C331.148 130.521 274.705 108.78 274.705 108.78H274.702Z" fill="#1C1C1E"/>
</g>
<defs>
<clipPath id="clip0_63_6979">
<rect width="750" height="1050" fill="white"/>
</clipPath>
</defs>
</svg>
