<svg width="750" height="1050" viewBox="0 0 750 1050" fill="none" xmlns="http://www.w3.org/2000/svg">
<rect width="750" height="1050" fill="white"/>
<path d="M0 50C0 22.3858 22.3858 0 50 0H700C727.614 0 750 22.3858 750 50V1000C750 1027.61 727.614 1050 700 1050H50C22.3858 1050 0 1027.61 0 1000V50Z" fill="white"/>
<path d="M141.4 170L112.1 134.1L140.4 100H126.7L100.1 131.4V100H88.6001V170H100.1V136.7L127.7 170H141.4Z" fill="#FF3B30"/>
<path d="M608.6 880L637.9 915.9L609.6 950H623.3L649.9 918.6V950H661.4V880H649.9V913.3L622.3 880H608.6Z" fill="#FF3B30"/>
<g clip-path="url(#clip0_63_6753)">
<path d="M459.435 490.599C458.812 493.704 456.642 495.881 453.848 496.81C450.743 497.434 447.637 496.498 445.772 494.016L374.961 405.5L304.158 494.009C302.293 496.491 299.187 497.427 296.082 496.803C293.288 495.874 291.111 493.697 290.494 490.592C280.554 441.527 246.392 426.302 229.936 421.644L247.328 596.797H502.607L520 421.644C503.529 425.997 469.368 441.213 459.434 490.597L459.435 490.599ZM408.193 517.924L381.796 570.095C380.555 572.888 377.761 574.441 374.961 574.441C372.167 574.441 369.373 572.888 368.126 570.095L341.728 517.924C340.799 515.748 340.799 512.954 341.728 510.784L368.126 458.614C370.607 453.332 379.307 453.332 381.789 458.614L408.186 510.784C409.122 512.954 409.122 515.748 408.193 517.924Z" fill="#FF3B30"/>
<path d="M245.452 612.32L232.725 644.311H517.197L504.469 612.32H245.452Z" fill="#FF3B30"/>
</g>
<path d="M669.52 125.584C669.52 115.548 661.384 107.412 651.35 107.412C644.213 107.412 638.042 111.524 635.071 117.507C632.093 111.523 625.927 107.412 618.788 107.412C608.755 107.412 600.618 115.548 600.618 125.584C600.618 149.561 634.69 162.684 634.69 162.684C634.691 162.683 669.52 149.394 669.52 125.584Z" fill="#FF3B30"/>
<path d="M80.4804 924.416C80.4804 934.452 88.616 942.588 98.6496 942.588C105.787 942.588 111.958 938.476 114.929 932.493C117.907 938.477 124.073 942.588 131.212 942.588C141.245 942.588 149.382 934.452 149.382 924.416C149.382 900.439 115.31 887.316 115.31 887.316C115.309 887.317 80.4804 900.606 80.4804 924.416Z" fill="#FF3B30"/>
<defs>
<clipPath id="clip0_63_6753">
<rect width="290" height="290" fill="white" transform="translate(230 379.5)"/>
</clipPath>
</defs>
</svg>
