<svg width="750" height="1050" viewBox="0 0 750 1050" fill="none" xmlns="http://www.w3.org/2000/svg">
<rect width="750" height="1050" fill="white"/>
<path d="M0 50C0 22.3858 22.3858 0 50 0H700C727.614 0 750 22.3858 750 50V1000C750 1027.61 727.614 1050 700 1050H50C22.3858 1050 0 1027.61 0 1000V50Z" fill="white"/>
<path d="M245.125 242.294L298.956 296.125L245.125 349.956L191.294 296.125L245.125 242.294Z" fill="#FF3B30"/>
<path d="M245.125 394.627L298.956 448.458L245.125 502.289L191.294 448.458L245.125 394.627Z" fill="#FF3B30"/>
<path d="M244.875 654.373L191.044 600.542L244.875 546.711L298.706 600.542L244.875 654.373Z" fill="#FF3B30"/>
<path d="M244.875 806.706L191.044 752.875L244.875 699.044L298.706 752.875L244.875 806.706Z" fill="#FF3B30"/>
<path d="M375.125 470.794L428.956 524.625L375.125 578.456L321.294 524.625L375.125 470.794Z" fill="#FF3B30"/>
<path d="M505.125 242.294L558.956 296.125L505.125 349.956L451.294 296.125L505.125 242.294Z" fill="#FF3B30"/>
<path d="M505.125 394.627L558.956 448.458L505.125 502.289L451.294 448.458L505.125 394.627Z" fill="#FF3B30"/>
<path d="M504.875 654.373L451.044 600.542L504.875 546.711L558.706 600.542L504.875 654.373Z" fill="#FF3B30"/>
<path d="M504.875 806.706L451.044 752.875L504.875 699.044L558.706 752.875L504.875 806.706Z" fill="#FF3B30"/>
<path d="M139.75 123.9C139.75 109.8 129.55 100 115.05 100C100.55 100 90.25 109.8 90.25 123.9C90.25 138 100.55 147.8 115.05 147.8H116.25L100.25 171.3H113.45L135.55 138C138.25 134.1 139.75 129.3 139.75 123.9ZM101.75 123.9C101.75 115.9 107.45 110.9 115.05 110.9C122.65 110.9 128.25 115.9 128.25 123.9C128.25 131.9 122.65 136.9 115.05 136.9C107.45 136.9 101.75 131.8 101.75 123.9Z" fill="#FF3B30"/>
<path d="M610.25 926.1C610.25 940.2 620.45 950 634.95 950C649.45 950 659.75 940.2 659.75 926.1C659.75 912 649.45 902.2 634.95 902.2H633.75L649.75 878.7H636.55L614.45 912C611.75 915.9 610.25 920.7 610.25 926.1ZM648.25 926.1C648.25 934.1 642.55 939.1 634.95 939.1C627.35 939.1 621.75 934.1 621.75 926.1C621.75 918.1 627.35 913.1 634.95 913.1C642.55 913.1 648.25 918.2 648.25 926.1Z" fill="#FF3B30"/>
<path d="M635.08 100.823L669.336 135.079L635.08 169.335L600.823 135.079L635.08 100.823Z" fill="#FF3B30"/>
<path d="M114.92 949.177L80.6643 914.921L114.92 880.665L149.176 914.921L114.92 949.177Z" fill="#FF3B30"/>
</svg>
