<svg width="750" height="1050" viewBox="0 0 750 1050" fill="none" xmlns="http://www.w3.org/2000/svg">
<rect width="750" height="1050" fill="white"/>
<path d="M0 50C0 22.3858 22.3858 0 50 0H700C727.614 0 750 22.3858 750 50V1000C750 1027.61 727.614 1050 700 1050H50C22.3858 1050 0 1027.61 0 1000V50Z" fill="white"/>
<path d="M376.799 382.265C376.799 382.265 222.735 441.064 222.735 546.37C222.735 590.771 258.726 626.757 303.123 626.757C324.654 626.757 344.199 618.262 358.621 604.481C351.104 631.767 341.654 658.148 331.539 667.313H418.698C408.588 658.148 399.138 631.768 391.616 604.481C406.033 618.267 425.58 626.757 447.129 626.757C491.516 626.757 527.502 590.771 527.502 546.37C527.516 440.316 376.805 382.265 376.805 382.265H376.799Z" fill="#1C1C1E"/>
<path d="M135.1 170H147.5L122.2 100H108.4L83 170H95.5L100.4 155.9H130.2L135.1 170ZM104.2 145.1L115.3 113.5L126.4 145.1H104.2Z" fill="#1C1C1E"/>
<path d="M635.406 102.883C635.406 102.883 600.618 116.16 600.618 139.939C600.618 149.965 608.745 158.091 618.77 158.091C623.631 158.091 628.045 156.172 631.302 153.061C629.604 159.222 627.47 165.179 625.186 167.249H644.867C642.584 165.179 640.45 159.222 638.752 153.061C642.007 156.174 646.421 158.091 651.287 158.091C661.31 158.091 669.436 149.965 669.436 139.939C669.439 115.991 635.408 102.883 635.408 102.883H635.406Z" fill="#1C1C1E"/>
<path d="M114.594 947.117C114.594 947.117 149.382 933.84 149.382 910.061C149.382 900.035 141.255 891.909 131.23 891.909C126.369 891.909 121.955 893.828 118.698 896.939C120.396 890.778 122.53 884.821 124.814 882.751H105.133C107.416 884.821 109.55 890.778 111.248 896.939C107.993 893.826 103.579 891.909 98.7128 891.909C88.6899 891.909 80.5641 900.035 80.5641 910.061C80.5609 934.009 114.592 947.117 114.592 947.117H114.594Z" fill="#1C1C1E"/>
<path d="M614.9 880H602.5L627.8 950H641.6L667 880H654.5L649.6 894.1H619.8L614.9 880ZM645.8 904.9L634.7 936.5L623.6 904.9H645.8Z" fill="#1C1C1E"/>
</svg>
