<svg width="750" height="1050" viewBox="0 0 750 1050" fill="none" xmlns="http://www.w3.org/2000/svg">
<rect width="750" height="1050" fill="white"/>
<path d="M0 50C0 22.3858 22.3858 0 50 0H700C727.614 0 750 22.3858 750 50V1000C750 1027.61 727.614 1050 700 1050H50C22.3858 1050 0 1027.61 0 1000V50Z" fill="white"/>
<path d="M245.639 245.529C245.639 245.529 190.971 266.393 190.971 303.76C190.971 319.515 203.741 332.285 219.495 332.285C227.135 332.285 234.071 329.27 239.188 324.38C236.521 334.062 233.168 343.423 229.579 346.675H260.506C256.918 343.423 253.565 334.063 250.896 324.38C256.012 329.272 262.948 332.285 270.594 332.285C286.345 332.285 299.114 319.515 299.114 303.76C299.119 266.128 245.641 245.529 245.641 245.529H245.639Z" fill="#1C1C1E"/>
<path d="M244.361 803.471C244.361 803.471 299.029 782.607 299.029 745.24C299.029 729.485 286.259 716.715 270.505 716.715C262.865 716.715 255.929 719.73 250.812 724.62C253.479 714.938 256.832 705.577 260.421 702.325H229.494C233.082 705.577 236.435 714.937 239.104 724.62C233.988 719.728 227.052 716.715 219.406 716.715C203.655 716.715 190.886 729.485 190.886 745.24C190.881 782.872 244.359 803.471 244.359 803.471H244.361Z" fill="#1C1C1E"/>
<path d="M505.639 245.529C505.639 245.529 450.971 266.393 450.971 303.76C450.971 319.515 463.741 332.285 479.495 332.285C487.135 332.285 494.071 329.27 499.188 324.38C496.521 334.062 493.168 343.423 489.579 346.675H520.506C516.918 343.423 513.565 334.063 510.896 324.38C516.012 329.272 522.948 332.285 530.594 332.285C546.345 332.285 559.114 319.515 559.114 303.76C559.119 266.128 505.641 245.529 505.641 245.529H505.639Z" fill="#1C1C1E"/>
<path d="M504.361 803.471C504.361 803.471 559.029 782.607 559.029 745.24C559.029 729.485 546.259 716.715 530.505 716.715C522.865 716.715 515.929 719.73 510.812 724.62C513.479 714.938 516.832 705.577 520.421 702.325H489.494C493.082 705.577 496.435 714.937 499.104 724.62C493.988 719.728 487.052 716.715 479.406 716.715C463.655 716.715 450.886 729.485 450.886 745.24C450.881 782.872 504.359 803.471 504.359 803.471H504.361Z" fill="#1C1C1E"/>
<path d="M142 146.7H134V128.5H122.4V146.7H100.5L124.6 100H112.1L88 146.7V157.4H122.4V170H134V157.4H142V146.7Z" fill="#1C1C1E"/>
<path d="M608 903.3H616V921.5H627.6V903.3H649.5L625.4 950H637.9L662 903.3V892.6H627.6V880H616V892.6H608V903.3Z" fill="#1C1C1E"/>
<path d="M635.406 102.883C635.406 102.883 600.618 116.16 600.618 139.939C600.618 149.965 608.745 158.091 618.77 158.091C623.631 158.091 628.045 156.172 631.302 153.061C629.604 159.222 627.47 165.179 625.186 167.249H644.867C642.584 165.179 640.45 159.222 638.752 153.061C642.007 156.174 646.421 158.091 651.287 158.091C661.31 158.091 669.436 149.965 669.436 139.939C669.439 115.991 635.408 102.883 635.408 102.883H635.406Z" fill="#1C1C1E"/>
<path d="M114.594 947.117C114.594 947.117 149.382 933.84 149.382 910.061C149.382 900.035 141.255 891.909 131.23 891.909C126.369 891.909 121.955 893.828 118.698 896.939C120.396 890.778 122.53 884.821 124.814 882.751H105.133C107.416 884.821 109.55 890.778 111.248 896.939C107.993 893.826 103.579 891.909 98.7128 891.909C88.6899 891.909 80.5641 900.035 80.5641 910.061C80.5609 934.009 114.592 947.117 114.592 947.117H114.594Z" fill="#1C1C1E"/>
</svg>
