<svg width="750" height="1050" viewBox="0 0 750 1050" fill="none" xmlns="http://www.w3.org/2000/svg">
<g clip-path="url(#clip0_63_6978)">
<rect width="750" height="1050" fill="white"/>
<path d="M0 50C0 22.3858 22.3858 0 50 0H700C727.614 0 750 22.3858 750 50V1000C750 1027.61 727.614 1050 700 1050H50C22.3858 1050 0 1027.61 0 1000V50Z" fill="white"/>
<path d="M540.444 248.623C540.444 248.623 74.2764 426.538 74.2764 745.175C74.2764 879.522 183.176 988.411 317.513 988.411C382.661 988.411 441.803 962.705 485.44 921.007C462.694 1003.57 434.101 1083.39 403.496 1111.12H667.221C636.63 1083.39 608.035 1003.57 585.277 921.007C628.899 962.721 688.045 988.411 753.249 988.411C887.556 988.411 996.441 879.522 996.441 745.175C996.484 424.276 540.462 248.623 540.462 248.623H540.444Z" fill="#1C1C1E"/>
<path d="M199.222 159.611C199.222 126.275 172.619 100 139.611 100C106.767 100 80 126.275 80 159.611C80 192.947 106.767 219.222 139.611 219.222C150.778 219.222 161.288 216.102 170.32 210.847L182.964 223.82L196.266 211.832L184.114 199.352C193.474 189.006 199.222 175.047 199.222 159.611ZM139.611 200.83C116.949 200.83 98.885 183.258 98.885 159.611C98.885 135.964 116.949 118.392 139.611 118.392C162.273 118.392 180.337 135.964 180.337 159.611C180.337 169.957 176.888 178.989 171.141 186.05L149.136 163.552L135.834 175.54L156.854 197.053C151.599 199.516 145.851 200.83 139.611 200.83Z" fill="#1C1C1E"/>
<path d="M296.777 109.66C296.777 109.66 239.648 131.464 239.648 170.513C239.648 186.977 252.994 200.321 269.457 200.321C277.441 200.321 284.689 197.171 290.037 192.061C287.249 202.179 283.745 211.961 279.994 215.36H312.314C308.565 211.961 305.061 202.18 302.272 192.061C307.618 197.173 314.866 200.321 322.857 200.321C339.316 200.321 352.66 186.977 352.66 170.513C352.665 131.186 296.78 109.66 296.78 109.66H296.777Z" fill="#1C1C1E"/>
</g>
<defs>
<clipPath id="clip0_63_6978">
<rect width="750" height="1050" fill="white"/>
</clipPath>
</defs>
</svg>
