<svg width="750" height="1050" viewBox="0 0 750 1050" fill="none" xmlns="http://www.w3.org/2000/svg">
<g clip-path="url(#clip0_63_7429)">
<rect width="750" height="1050" fill="white"/>
<path d="M0 50C0 22.3858 22.3858 0 50 0H700C727.614 0 750 22.3858 750 50V1000C750 1027.61 727.614 1050 700 1050H50C22.3858 1050 0 1027.61 0 1000V50Z" fill="white"/>
<path d="M536.067 221.035L995.098 680.067L536.067 1139.1L77.0354 680.067L536.067 221.035Z" fill="#FF3B30"/>
<path d="M128.925 220.96C151.094 220.96 168.796 208.386 168.796 183.736V103H149.77V183.736C149.77 195.647 142.325 202.431 129.09 202.431C118.502 202.431 111.884 198.46 108.079 190.188L91.7002 199.783C98.4833 213.846 112.05 220.96 128.925 220.96Z" fill="#FF3B30"/>
<path d="M266.538 106.017L323.212 162.69L266.538 219.364L209.865 162.69L266.538 106.017Z" fill="#FF3B30"/>
</g>
<defs>
<clipPath id="clip0_63_7429">
<rect width="750" height="1050" fill="white"/>
</clipPath>
</defs>
</svg>
