<svg width="750" height="1050" viewBox="0 0 750 1050" fill="none" xmlns="http://www.w3.org/2000/svg">
<rect width="750" height="1050" fill="white"/>
<path d="M0 50C0 22.3858 22.3858 0 50 0H700C727.614 0 750 22.3858 750 50V1000C750 1027.61 727.614 1050 700 1050H50C22.3858 1050 0 1027.61 0 1000V50Z" fill="white"/>
<path d="M375.125 315.294L428.956 369.125L375.125 422.956L321.294 369.125L375.125 315.294Z" fill="#FF3B30"/>
<path d="M374.875 733.706L321.044 679.875L374.875 626.044L428.706 679.875L374.875 733.706Z" fill="#FF3B30"/>
<path d="M92.0501 171.3H138.15V160.2H109.15L124.95 144.4C131.65 137.6 136.85 130.3 136.85 121.6C136.85 107.7 125.95 100 114.45 100C105.15 100 96.3501 104.6 91.8501 114.2L101.55 119.9C104.25 114.3 108.75 111.2 114.55 111.2C120.55 111.2 125.35 115 125.35 122C125.35 127.3 121.45 132.4 116.45 137.4L92.0501 162.3V171.3Z" fill="#FF3B30"/>
<path d="M657.95 878.7H611.85V889.8H640.85L625.05 905.6C618.35 912.4 613.15 919.7 613.15 928.4C613.15 942.3 624.05 950 635.55 950C644.85 950 653.65 945.4 658.15 935.8L648.45 930.1C645.75 935.7 641.25 938.8 635.45 938.8C629.45 938.8 624.65 935 624.65 928C624.65 922.7 628.55 917.6 633.55 912.6L657.95 887.7V878.7Z" fill="#FF3B30"/>
<path d="M635.08 100.823L669.336 135.079L635.08 169.335L600.823 135.079L635.08 100.823Z" fill="#FF3B30"/>
<path d="M114.92 949.177L80.6641 914.921L114.92 880.665L149.176 914.921L114.92 949.177Z" fill="#FF3B30"/>
</svg>
