<svg width="750" height="1050" viewBox="0 0 750 1050" fill="none" xmlns="http://www.w3.org/2000/svg">
<g clip-path="url(#clip0_63_6753)">
<rect width="750" height="1050" fill="white"/>
<path d="M0 50C0 22.3858 22.3858 0 50 0H700C727.614 0 750 22.3858 750 50V1000C750 1027.61 727.614 1050 700 1050H50C22.3858 1050 0 1027.61 0 1000V50Z" fill="white"/>
<path d="M997.563 552.826C997.563 418.335 888.545 309.317 754.095 309.317C658.455 309.317 575.764 364.42 535.945 444.584C496.042 364.406 413.42 309.317 317.755 309.317C183.32 309.317 74.2764 418.335 74.2764 552.826C74.2764 874.115 530.843 1049.97 530.843 1049.97C530.858 1049.95 997.563 871.878 997.563 552.826Z" fill="#FF3B30"/>
<path d="M176.173 220.1L127.577 160.557L174.514 104H151.792L107.674 156.079V104H88.6001V220.1H107.674V164.87L153.45 220.1H176.173Z" fill="#FF3B30"/>
<path d="M331.282 146.433C331.282 129.787 317.788 116.293 301.147 116.293C289.309 116.293 279.074 123.113 274.146 133.035C269.206 123.111 258.98 116.293 247.139 116.293C230.5 116.293 217.003 129.787 217.003 146.433C217.003 186.2 273.514 207.966 273.514 207.966C273.516 207.964 331.282 185.923 331.282 146.433Z" fill="#FF3B30"/>
</g>
<defs>
<clipPath id="clip0_63_6753">
<rect width="750" height="1050" fill="white"/>
</clipPath>
</defs>
</svg>
