<svg width="750" height="1050" viewBox="0 0 750 1050" fill="none" xmlns="http://www.w3.org/2000/svg">
<rect width="750" height="1050" fill="white"/>
<path d="M0 50C0 22.3858 22.3858 0 50 0H700C727.614 0 750 22.3858 750 50V1000C750 1027.61 727.614 1050 700 1050H50C22.3858 1050 0 1027.61 0 1000V50Z" fill="white"/>
<path d="M152.6 136.3C152.6 116 136.4 100 116.3 100C96.3 100 80 116 80 136.3C80 156.6 96.3 172.6 116.3 172.6C123.1 172.6 129.5 170.7 135 167.5L142.7 175.4L150.8 168.1L143.4 160.5C149.1 154.2 152.6 145.7 152.6 136.3ZM116.3 161.4C102.5 161.4 91.5 150.7 91.5 136.3C91.5 121.9 102.5 111.2 116.3 111.2C130.1 111.2 141.1 121.9 141.1 136.3C141.1 142.6 139 148.1 135.5 152.4L122.1 138.7L114 146L126.8 159.1C123.6 160.6 120.1 161.4 116.3 161.4Z" fill="#1C1C1E"/>
<path d="M597.4 913.7C597.4 934 613.6 950 633.7 950C653.7 950 670 934 670 913.7C670 893.4 653.7 877.4 633.7 877.4C626.9 877.4 620.5 879.3 615 882.5L607.3 874.6L599.2 881.9L606.6 889.5C600.9 895.8 597.4 904.3 597.4 913.7ZM633.7 888.6C647.5 888.6 658.5 899.3 658.5 913.7C658.5 928.1 647.5 938.8 633.7 938.8C619.9 938.8 608.9 928.1 608.9 913.7C608.9 907.4 611 901.9 614.5 897.6L627.9 911.3L636 904L623.2 890.9C626.4 889.4 629.9 888.6 633.7 888.6Z" fill="#1C1C1E"/>
<path d="M460.673 551.765C460.205 554.333 458.106 556.431 455.309 556.666C452.741 557.135 450.173 555.265 449.475 552.697C448.778 550.833 434.543 507.894 472.574 458.432C459.043 457.963 433.142 464.265 412.142 506.5C410.975 509.302 407.944 510.469 405.142 509.531C402.34 508.364 400.71 505.562 401.173 502.765C401.871 500.432 413.074 447.463 375.037 429.5C337.007 447.469 348.204 500.432 348.901 502.765C349.37 505.567 347.735 508.364 344.933 509.531C342.13 510.463 339.099 509.297 337.933 506.5C316.933 464.265 291.266 457.969 277.501 458.432C315.531 507.901 301.303 550.833 300.599 552.697C299.901 555.265 297.334 557.129 294.766 556.666C291.964 556.431 289.865 554.333 289.401 551.765C283.568 514.197 253.469 507.901 232 508.833C254.864 528.666 254.864 561.802 253.932 576.03H496.132C495.2 561.795 495.2 528.666 518.064 508.833C496.605 507.901 466.507 514.197 460.673 551.765ZM397.673 539.4L379.241 557.832C378.075 558.999 376.674 559.697 375.043 559.697C373.408 559.697 372.012 558.999 370.846 557.832L352.414 539.4C350.549 537.536 350.08 534.734 351.247 532.635L369.914 495.536C371.778 491.567 378.315 491.567 380.179 495.536L398.846 532.635C400.007 534.734 399.538 537.531 397.673 539.4Z" fill="#1C1C1E"/>
<path d="M245.06 587.698H504.993V618.964H245.06V587.698Z" fill="#1C1C1E"/>
<path d="M635.406 102.883C635.406 102.883 600.618 116.16 600.618 139.939C600.618 149.965 608.745 158.091 618.77 158.091C623.631 158.091 628.045 156.172 631.302 153.061C629.604 159.222 627.47 165.179 625.186 167.249H644.867C642.584 165.179 640.45 159.222 638.752 153.061C642.007 156.174 646.421 158.091 651.287 158.091C661.31 158.091 669.436 149.965 669.436 139.939C669.439 115.991 635.408 102.883 635.408 102.883H635.406Z" fill="#1C1C1E"/>
<path d="M114.594 947.117C114.594 947.117 149.382 933.84 149.382 910.061C149.382 900.035 141.255 891.909 131.23 891.909C126.369 891.909 121.955 893.828 118.698 896.939C120.396 890.778 122.53 884.821 124.814 882.751H105.133C107.416 884.821 109.55 890.778 111.248 896.939C107.993 893.826 103.579 891.909 98.7128 891.909C88.6899 891.909 80.5641 900.035 80.5641 910.061C80.5609 934.009 114.592 947.117 114.592 947.117H114.594Z" fill="#1C1C1E"/>
</svg>
