<svg width="750" height="1050" viewBox="0 0 750 1050" fill="none" xmlns="http://www.w3.org/2000/svg">
<rect width="750" height="1050" fill="white"/>
<path d="M0 50C0 22.3858 22.3858 0 50 0H700C727.614 0 750 22.3858 750 50V1000C750 1027.61 727.614 1050 700 1050H50C22.3858 1050 0 1027.61 0 1000V50Z" fill="white"/>
<path d="M270.722 278.329C270.323 278.329 269.922 278.339 269.529 278.357C270.471 275.671 270.99 272.786 270.99 269.784C270.99 255.483 259.395 243.883 245.091 243.883C230.785 243.883 219.19 255.483 219.19 269.784C219.19 272.786 219.707 275.671 220.649 278.357C220.255 278.339 219.857 278.329 219.458 278.329C205.152 278.329 193.559 289.923 193.559 304.223C193.559 318.529 205.152 330.122 219.458 330.122C227.894 330.122 235.374 326.081 240.1 319.838C237.274 330.789 233.516 342.197 229.449 345.877H260.727C256.664 342.198 252.912 330.805 250.081 319.858C254.811 326.088 262.294 330.12 270.721 330.12C285.019 330.12 296.617 318.527 296.617 304.221C296.618 289.923 285.02 278.329 270.723 278.329H270.722ZM246.282 295.649C246.244 295.77 246.058 295.654 246.058 295.654C246.132 295.654 246.208 295.654 246.282 295.649Z" fill="#1C1C1E"/>
<path d="M219.278 768.671C219.677 768.671 220.078 768.661 220.471 768.643C219.529 771.329 219.01 774.214 219.01 777.216C219.01 791.517 230.605 803.117 244.909 803.117C259.215 803.117 270.81 791.517 270.81 777.216C270.81 774.214 270.293 771.329 269.351 768.643C269.745 768.661 270.143 768.671 270.542 768.671C284.848 768.671 296.441 757.077 296.441 742.777C296.441 728.471 284.848 716.878 270.542 716.878C262.106 716.878 254.626 720.919 249.9 727.162C252.726 716.211 256.484 704.803 260.551 701.123H229.273C233.336 704.802 237.088 716.195 239.919 727.142C235.189 720.912 227.706 716.88 219.279 716.88C204.981 716.88 193.383 728.473 193.383 742.779C193.382 757.077 204.98 768.671 219.277 768.671H219.278ZM243.718 751.351C243.756 751.23 243.942 751.346 243.942 751.346C243.868 751.346 243.792 751.346 243.718 751.351Z" fill="#1C1C1E"/>
<path d="M400.722 506.829C400.323 506.829 399.922 506.839 399.529 506.857C400.471 504.171 400.99 501.286 400.99 498.284C400.99 483.983 389.395 472.383 375.091 472.383C360.785 472.383 349.19 483.983 349.19 498.284C349.19 501.286 349.707 504.171 350.649 506.857C350.255 506.839 349.857 506.829 349.458 506.829C335.152 506.829 323.559 518.423 323.559 532.723C323.559 547.029 335.152 558.622 349.458 558.622C357.894 558.622 365.374 554.581 370.1 548.338C367.274 559.289 363.516 570.697 359.449 574.377H390.727C386.664 570.698 382.912 559.305 380.081 548.358C384.811 554.588 392.294 558.62 400.721 558.62C415.019 558.62 426.617 547.027 426.617 532.721C426.618 518.423 415.02 506.829 400.723 506.829H400.722ZM376.282 524.149C376.244 524.27 376.058 524.154 376.058 524.154C376.132 524.154 376.208 524.154 376.282 524.149Z" fill="#1C1C1E"/>
<path d="M530.722 278.329C530.323 278.329 529.922 278.339 529.529 278.357C530.471 275.671 530.99 272.786 530.99 269.784C530.99 255.483 519.395 243.883 505.091 243.883C490.785 243.883 479.19 255.483 479.19 269.784C479.19 272.786 479.707 275.671 480.649 278.357C480.255 278.339 479.857 278.329 479.458 278.329C465.152 278.329 453.559 289.923 453.559 304.223C453.559 318.529 465.152 330.122 479.458 330.122C487.894 330.122 495.374 326.081 500.1 319.838C497.274 330.789 493.516 342.197 489.449 345.877H520.727C516.664 342.198 512.912 330.805 510.081 319.858C514.811 326.088 522.294 330.12 530.721 330.12C545.019 330.12 556.617 318.527 556.617 304.221C556.618 289.923 545.02 278.329 530.723 278.329H530.722ZM506.282 295.649C506.244 295.77 506.058 295.654 506.058 295.654C506.132 295.654 506.208 295.654 506.282 295.649Z" fill="#1C1C1E"/>
<path d="M479.278 768.671C479.677 768.671 480.078 768.661 480.471 768.643C479.529 771.329 479.01 774.214 479.01 777.216C479.01 791.517 490.605 803.117 504.909 803.117C519.215 803.117 530.81 791.517 530.81 777.216C530.81 774.214 530.293 771.329 529.351 768.643C529.745 768.661 530.143 768.671 530.542 768.671C544.848 768.671 556.441 757.077 556.441 742.777C556.441 728.471 544.848 716.878 530.542 716.878C522.106 716.878 514.626 720.919 509.9 727.162C512.726 716.211 516.484 704.803 520.551 701.123H489.273C493.336 704.802 497.088 716.195 499.919 727.142C495.189 720.912 487.706 716.88 479.279 716.88C464.981 716.88 453.383 728.473 453.383 742.779C453.382 757.077 464.98 768.671 479.277 768.671H479.278ZM503.718 751.351C503.756 751.23 503.942 751.346 503.942 751.346C503.868 751.346 503.792 751.346 503.718 751.351Z" fill="#1C1C1E"/>
<path d="M115.35 126.4H106.55L107.75 110.8H136.15V100H97.1501L94.4501 137.6H114.85C122.45 137.6 127.65 141.8 127.65 148.8C127.65 155.8 122.45 160.1 114.65 160.1C107.35 160.1 102.55 156.8 100.75 150.6L90.8501 156.3C94.5501 166.4 104.05 171.3 114.65 171.3C127.55 171.3 139.15 163.5 139.15 148.8C139.15 134.2 128.05 126.4 115.35 126.4Z" fill="#1C1C1E"/>
<path d="M634.65 923.6H643.45L642.25 939.2H613.85V950H652.85L655.55 912.4H635.15C627.55 912.4 622.35 908.2 622.35 901.2C622.35 894.2 627.55 889.9 635.35 889.9C642.65 889.9 647.45 893.2 649.25 899.4L659.15 893.7C655.45 883.6 645.95 878.7 635.35 878.7C622.45 878.7 610.85 886.5 610.85 901.2C610.85 915.8 621.95 923.6 634.65 923.6Z" fill="#1C1C1E"/>
<path d="M651.369 124.391C651.114 124.391 650.859 124.397 650.609 124.409C651.209 122.7 651.539 120.864 651.539 118.953C651.539 109.853 644.161 102.471 635.058 102.471C625.954 102.471 618.575 109.853 618.575 118.953C618.575 120.864 618.905 122.7 619.504 124.409C619.253 124.397 619 124.391 618.746 124.391C609.642 124.391 602.265 131.769 602.265 140.869C602.265 149.973 609.642 157.35 618.746 157.35C624.114 157.35 628.874 154.779 631.882 150.806C630.084 157.775 627.692 165.034 625.104 167.376H645.008C642.423 165.035 640.035 157.785 638.233 150.819C641.243 154.783 646.005 157.349 651.368 157.349C660.466 157.349 667.847 149.971 667.847 140.868C667.848 131.769 660.467 124.391 651.369 124.391H651.369ZM635.816 135.413C635.791 135.49 635.673 135.416 635.673 135.416C635.721 135.416 635.769 135.416 635.816 135.413Z" fill="#1C1C1E"/>
<path d="M98.6314 925.609C98.8855 925.609 99.1407 925.603 99.3906 925.591C98.7911 927.3 98.4609 929.136 98.4609 931.047C98.4609 940.147 105.839 947.529 114.942 947.529C124.046 947.529 131.425 940.147 131.425 931.047C131.425 929.136 131.095 927.3 130.496 925.591C130.747 925.603 131 925.609 131.254 925.609C140.358 925.609 147.735 918.231 147.735 909.131C147.735 900.027 140.358 892.65 131.254 892.65C125.886 892.65 121.126 895.221 118.118 899.194C119.916 892.225 122.308 884.966 124.896 882.624H104.992C107.577 884.965 109.965 892.215 111.767 899.181C108.757 895.217 103.995 892.651 98.6321 892.651C89.5335 892.651 82.153 900.029 82.153 909.132C82.152 918.231 89.5327 925.609 98.631 925.609H98.6314ZM114.184 914.587C114.209 914.51 114.327 914.584 114.327 914.584C114.279 914.584 114.231 914.584 114.184 914.587Z" fill="#1C1C1E"/>
</svg>
