<svg width="750" height="1050" viewBox="0 0 750 1050" fill="none" xmlns="http://www.w3.org/2000/svg">
<rect width="750" height="1050" fill="white"/>
<path d="M0 50C0 22.3858 22.3858 0 50 0H700C727.614 0 750 22.3858 750 50V1000C750 1027.61 727.614 1050 700 1050H50C22.3858 1050 0 1027.61 0 1000V50Z" fill="white"/>
<path d="M429.245 354.204C429.245 338.432 416.461 325.647 400.694 325.647C389.478 325.647 379.781 332.109 375.111 341.51C370.431 332.108 360.742 325.647 349.524 325.647C333.758 325.647 320.971 338.432 320.971 354.204C320.971 391.882 374.513 412.504 374.513 412.504C374.514 412.502 429.245 391.619 429.245 354.204Z" fill="#FF3B30"/>
<path d="M429.245 509.704C429.245 493.932 416.461 481.147 400.694 481.147C389.478 481.147 379.781 487.609 375.111 497.01C370.431 487.608 360.742 481.147 349.524 481.147C333.758 481.147 320.971 493.932 320.971 509.704C320.971 547.382 374.513 568.004 374.513 568.004C374.514 568.002 429.245 547.119 429.245 509.704Z" fill="#FF3B30"/>
<path d="M320.755 694.796C320.755 710.568 333.539 723.353 349.306 723.353C360.522 723.353 370.219 716.891 374.889 707.49C379.569 716.892 389.258 723.353 400.476 723.353C416.242 723.353 429.029 710.568 429.029 694.796C429.029 657.118 375.487 636.496 375.487 636.496C375.486 636.498 320.755 657.381 320.755 694.796Z" fill="#FF3B30"/>
<path d="M121.9 128.6L136.1 109.8V100H93.1V110.8H122.4L107.3 130.7L111.9 137.6H114.5C122.4 137.6 127.5 141.8 127.5 148.8C127.5 155.8 122.4 160.1 114.5 160.1C107.5 160.1 102.8 157 100.8 151.1L91 156.8C94.9 166.6 104.2 171.3 114.5 171.3C127.4 171.3 139 163.5 139 148.8C139 137.9 131.5 130.9 121.9 128.6Z" fill="#FF3B30"/>
<path d="M628.1 921.4L613.9 940.2V950H656.9V939.2H627.6L642.7 919.3L638.1 912.4H635.5C627.6 912.4 622.5 908.2 622.5 901.2C622.5 894.2 627.6 889.9 635.5 889.9C642.5 889.9 647.2 893 649.2 898.9L659 893.2C655.1 883.4 645.8 878.7 635.5 878.7C622.6 878.7 611 886.5 611 901.2C611 912.1 618.5 919.1 628.1 921.4Z" fill="#FF3B30"/>
<path d="M669.52 125.584C669.52 115.548 661.384 107.412 651.35 107.412C644.213 107.412 638.042 111.524 635.071 117.507C632.093 111.523 625.927 107.412 618.788 107.412C608.755 107.412 600.618 115.548 600.618 125.584C600.618 149.561 634.69 162.684 634.69 162.684C634.691 162.683 669.52 149.394 669.52 125.584Z" fill="#FF3B30"/>
<path d="M80.4804 924.416C80.4804 934.452 88.616 942.588 98.6496 942.588C105.787 942.588 111.958 938.476 114.929 932.493C117.907 938.477 124.073 942.588 131.212 942.588C141.245 942.588 149.382 934.452 149.382 924.416C149.382 900.439 115.31 887.316 115.31 887.316C115.309 887.317 80.4804 900.606 80.4804 924.416Z" fill="#FF3B30"/>
</svg>
