<svg width="340" height="340" viewBox="0 0 340 340" fill="none" xmlns="http://www.w3.org/2000/svg">
<path d="M249.505 118.469C248.271 118.469 247.031 118.5 245.818 118.557C248.729 110.255 250.333 101.339 250.333 92.0573C250.333 47.8547 214.495 12 170.281 12C126.063 12 90.2239 47.8547 90.2239 92.0573C90.2239 101.339 91.8228 110.255 94.7343 118.557C93.5155 118.5 92.2864 118.469 91.052 118.469C46.8333 118.469 11 154.307 11 198.505C11 242.723 46.8333 278.557 91.052 278.557C117.125 278.557 140.245 266.067 154.855 246.77C146.12 280.619 134.505 315.879 121.933 327.254H218.611C206.053 315.884 194.455 280.67 185.704 246.833C200.324 266.087 223.453 278.551 249.501 278.551C293.695 278.551 329.543 242.718 329.543 198.499C329.548 154.306 293.699 118.469 249.507 118.469H249.505ZM173.964 172.005C173.844 172.38 173.271 172.02 173.271 172.02C173.5 172.02 173.735 172.02 173.964 172.005Z" fill="white"/>
</svg>
