<svg width="750" height="1050" viewBox="0 0 750 1050" fill="none" xmlns="http://www.w3.org/2000/svg">
<g clip-path="url(#clip0_63_6977)">
<rect width="750" height="1050" fill="white"/>
<path d="M0 50C0 22.3858 22.3858 0 50 0H700C727.614 0 750 22.3858 750 50V1000C750 1027.61 727.614 1050 700 1050H50C22.3858 1050 0 1027.61 0 1000V50Z" fill="white"/>
<path d="M540.444 248.623C540.444 248.623 74.2764 426.538 74.2764 745.175C74.2764 879.522 183.176 988.411 317.513 988.411C382.661 988.411 441.803 962.705 485.44 921.007C462.694 1003.57 434.101 1083.39 403.496 1111.12H667.221C636.63 1083.39 608.035 1003.57 585.277 921.007C628.899 962.721 688.045 988.411 753.249 988.411C887.556 988.411 996.441 879.522 996.441 745.175C996.484 424.276 540.462 248.623 540.462 248.623H540.444Z" fill="#1C1C1E"/>
<path d="M128.925 220.96C151.094 220.96 168.796 208.386 168.796 183.736V103H149.77V183.736C149.77 195.647 142.325 202.431 129.09 202.431C118.502 202.431 111.884 198.46 108.079 190.188L91.7002 199.783C98.4833 213.846 112.05 220.96 128.925 220.96Z" fill="#1C1C1E"/>
<path d="M267.079 109.423C267.079 109.423 209.524 131.389 209.524 170.729C209.524 187.316 222.969 200.76 239.555 200.76C247.598 200.76 254.9 197.586 260.288 192.438C257.479 202.632 253.949 212.487 250.17 215.911H282.731C278.954 212.487 275.424 202.632 272.614 192.438C278 197.588 285.302 200.76 293.352 200.76C309.934 200.76 323.378 187.316 323.378 170.729C323.383 131.11 267.081 109.423 267.081 109.423H267.079Z" fill="#1C1C1E"/>
</g>
<defs>
<clipPath id="clip0_63_6977">
<rect width="750" height="1050" fill="white"/>
</clipPath>
</defs>
</svg>
