<svg width="750" height="1050" viewBox="0 0 750 1050" fill="none" xmlns="http://www.w3.org/2000/svg">
<g clip-path="url(#clip0_63_7205)">
<rect width="750" height="1050" fill="white"/>
<path d="M0 50C0 22.3858 22.3858 0 50 0H700C727.614 0 750 22.3858 750 50V1000C750 1027.61 727.614 1050 700 1050H50C22.3858 1050 0 1027.61 0 1000V50Z" fill="white"/>
<path d="M754.341 536.834C750.935 536.834 747.515 536.92 744.167 537.078C752.2 514.174 756.625 489.575 756.625 463.97C756.625 342.022 657.753 243.105 535.776 243.105C413.784 243.105 314.912 342.022 314.912 463.97C314.912 489.575 319.323 514.173 327.355 537.078C323.993 536.92 320.602 536.834 317.197 536.834C195.205 536.834 96.3472 635.707 96.3472 757.639C96.3472 879.631 195.205 978.489 317.197 978.489C389.128 978.489 452.912 944.032 493.217 890.795C469.12 984.179 437.077 1081.46 402.393 1112.84H669.108C634.465 1081.47 602.466 984.319 578.325 890.968C618.659 944.088 682.468 978.474 754.33 978.474C876.252 978.474 975.15 879.616 975.15 757.625C975.165 635.703 876.263 536.834 754.345 536.834H754.341ZM545.935 684.53C545.605 685.565 544.024 684.573 544.024 684.573C544.657 684.573 545.303 684.573 545.935 684.53Z" fill="#1C1C1E"/>
<path d="M176.173 220.1L127.577 160.557L174.514 104H151.792L107.674 156.079V104H88.6001V220.1H107.674V164.87L153.45 220.1H176.173Z" fill="#1C1C1E"/>
<path d="M301.177 144.454C300.756 144.454 300.333 144.464 299.918 144.484C300.912 141.649 301.46 138.604 301.46 135.435C301.46 120.341 289.222 108.098 274.125 108.098C259.025 108.098 246.787 120.341 246.787 135.435C246.787 138.604 247.333 141.649 248.328 144.484C247.911 144.464 247.492 144.454 247.07 144.454C231.971 144.454 219.735 156.691 219.735 171.784C219.735 186.883 231.971 199.119 247.07 199.119C255.974 199.119 263.868 194.854 268.857 188.265C265.874 199.823 261.908 211.864 257.615 215.748H290.628C286.34 211.865 282.379 199.841 279.391 188.286C284.383 194.861 292.281 199.117 301.176 199.117C316.267 199.117 328.508 186.881 328.508 171.782C328.51 156.691 316.268 144.454 301.178 144.454H301.177ZM275.382 162.735C275.341 162.863 275.146 162.74 275.146 162.74C275.224 162.74 275.304 162.74 275.382 162.735Z" fill="#1C1C1E"/>
</g>
<defs>
<clipPath id="clip0_63_7205">
<rect width="750" height="1050" fill="white"/>
</clipPath>
</defs>
</svg>
