<svg width="750" height="1050" viewBox="0 0 750 1050" fill="none" xmlns="http://www.w3.org/2000/svg">
<rect width="750" height="1050" fill="white"/>
<path d="M0 50C0 22.3858 22.3858 0 50 0H700C727.614 0 750 22.3858 750 50V1000C750 1027.61 727.614 1050 700 1050H50C22.3858 1050 0 1027.61 0 1000V50Z" fill="white"/>
<path d="M114.2 171.3C127.6 171.3 138.3 163.7 138.3 148.8V100H126.8V148.8C126.8 156 122.3 160.1 114.3 160.1C107.9 160.1 103.9 157.7 101.6 152.7L91.7 158.5C95.8 167 104 171.3 114.2 171.3Z" fill="#FF3B30"/>
<path d="M635.8 878.7C622.4 878.7 611.7 886.3 611.7 901.2V950H623.2V901.2C623.2 894 627.7 889.9 635.7 889.9C642.1 889.9 646.1 892.3 648.4 897.3L658.3 891.5C654.2 883 646 878.7 635.8 878.7Z" fill="#FF3B30"/>
<g clip-path="url(#clip0_63_6751)">
<path d="M230 446.068L255.863 559.5H496.561L519.864 446.068C424.35 430.704 325.521 430.704 230.003 446.068H230Z" fill="#FF3B30"/>
<path d="M255.605 613.795H492.469L494.264 572.311H255.864L255.605 613.795Z" fill="#FF3B30"/>
</g>
<path d="M669.52 125.584C669.52 115.548 661.384 107.412 651.35 107.412C644.213 107.412 638.042 111.524 635.071 117.507C632.093 111.523 625.927 107.412 618.788 107.412C608.755 107.412 600.618 115.548 600.618 125.584C600.618 149.561 634.69 162.684 634.69 162.684C634.691 162.683 669.52 149.394 669.52 125.584Z" fill="#FF3B30"/>
<path d="M80.4804 924.416C80.4804 934.452 88.616 942.588 98.6496 942.588C105.787 942.588 111.958 938.476 114.929 932.493C117.907 938.477 124.073 942.588 131.212 942.588C141.245 942.588 149.382 934.452 149.382 924.416C149.382 900.439 115.31 887.316 115.31 887.316C115.309 887.317 80.4804 900.606 80.4804 924.416Z" fill="#FF3B30"/>
<defs>
<clipPath id="clip0_63_6751">
<rect width="290" height="290" fill="white" transform="translate(230 379.5)"/>
</clipPath>
</defs>
</svg>
