<svg width="750" height="1050" viewBox="0 0 750 1050" fill="none" xmlns="http://www.w3.org/2000/svg">
<rect width="750" height="1050" fill="white"/>
<path d="M0 50C0 22.3858 22.3858 0 50 0H700C727.614 0 750 22.3858 750 50V1000C750 1027.61 727.614 1050 700 1050H50C22.3858 1050 0 1027.61 0 1000V50Z" fill="white"/>
<path d="M375.639 318.529C375.639 318.529 320.971 339.393 320.971 376.76C320.971 392.515 333.741 405.285 349.495 405.285C357.135 405.285 364.071 402.27 369.188 397.38C366.521 407.062 363.168 416.423 359.579 419.675H390.506C386.918 416.423 383.565 407.063 380.896 397.38C386.012 402.272 392.948 405.285 400.594 405.285C416.345 405.285 429.114 392.515 429.114 376.76C429.119 339.128 375.641 318.529 375.641 318.529H375.639Z" fill="#1C1C1E"/>
<path d="M374.361 730.471C374.361 730.471 429.029 709.607 429.029 672.24C429.029 656.485 416.259 643.715 400.505 643.715C392.865 643.715 385.929 646.73 380.812 651.62C383.479 641.938 386.832 632.577 390.421 629.325H359.494C363.082 632.577 366.435 641.937 369.104 651.62C363.988 646.728 357.052 643.715 349.406 643.715C333.655 643.715 320.886 656.485 320.886 672.24C320.881 709.872 374.359 730.471 374.359 730.471H374.361Z" fill="#1C1C1E"/>
<path d="M92.0501 171.3H138.15V160.2H109.15L124.95 144.4C131.65 137.6 136.85 130.3 136.85 121.6C136.85 107.7 125.95 100 114.45 100C105.15 100 96.3501 104.6 91.8501 114.2L101.55 119.9C104.25 114.3 108.75 111.2 114.55 111.2C120.55 111.2 125.35 115 125.35 122C125.35 127.3 121.45 132.4 116.45 137.4L92.0501 162.3V171.3Z" fill="#1C1C1E"/>
<path d="M657.95 878.7H611.85V889.8H640.85L625.05 905.6C618.35 912.4 613.15 919.7 613.15 928.4C613.15 942.3 624.05 950 635.55 950C644.85 950 653.65 945.4 658.15 935.8L648.45 930.1C645.75 935.7 641.25 938.8 635.45 938.8C629.45 938.8 624.65 935 624.65 928C624.65 922.7 628.55 917.6 633.55 912.6L657.95 887.7V878.7Z" fill="#1C1C1E"/>
<path d="M635.406 102.883C635.406 102.883 600.618 116.16 600.618 139.939C600.618 149.965 608.745 158.091 618.77 158.091C623.631 158.091 628.045 156.172 631.302 153.061C629.604 159.222 627.47 165.179 625.186 167.249H644.867C642.584 165.179 640.45 159.222 638.752 153.061C642.007 156.174 646.421 158.091 651.287 158.091C661.31 158.091 669.436 149.965 669.436 139.939C669.439 115.991 635.408 102.883 635.408 102.883H635.406Z" fill="#1C1C1E"/>
<path d="M114.594 947.117C114.594 947.117 149.382 933.84 149.382 910.061C149.382 900.035 141.255 891.909 131.23 891.909C126.369 891.909 121.955 893.828 118.698 896.939C120.396 890.778 122.53 884.821 124.814 882.751H105.133C107.416 884.821 109.55 890.778 111.248 896.939C107.993 893.826 103.579 891.909 98.7128 891.909C88.6899 891.909 80.5641 900.035 80.5641 910.061C80.5609 934.009 114.592 947.117 114.592 947.117H114.594Z" fill="#1C1C1E"/>
</svg>
