<svg width="750" height="1050" viewBox="0 0 750 1050" fill="none" xmlns="http://www.w3.org/2000/svg">
<rect width="750" height="1050" fill="white"/>
<path d="M0 50C0 22.3858 22.3858 0 50 0H700C727.614 0 750 22.3858 750 50V1000C750 1027.61 727.614 1050 700 1050H50C22.3858 1050 0 1027.61 0 1000V50Z" fill="white"/>
<path d="M270.722 279.329C270.323 279.329 269.922 279.339 269.529 279.357C270.471 276.671 270.99 273.786 270.99 270.784C270.99 256.483 259.395 244.883 245.091 244.883C230.785 244.883 219.19 256.483 219.19 270.784C219.19 273.786 219.707 276.671 220.649 279.357C220.255 279.339 219.857 279.329 219.458 279.329C205.152 279.329 193.559 290.923 193.559 305.223C193.559 319.529 205.152 331.122 219.458 331.122C227.894 331.122 235.374 327.081 240.1 320.838C237.274 331.789 233.516 343.197 229.449 346.877H260.727C256.664 343.198 252.912 331.805 250.081 320.858C254.811 327.088 262.294 331.12 270.721 331.12C285.019 331.12 296.617 319.527 296.617 305.221C296.618 290.923 285.02 279.329 270.723 279.329H270.722ZM246.282 296.649C246.244 296.77 246.058 296.654 246.058 296.654C246.132 296.654 246.208 296.654 246.282 296.649Z" fill="#1C1C1E"/>
<path d="M270.722 431.662C270.323 431.662 269.922 431.672 269.529 431.69C270.471 429.004 270.99 426.12 270.99 423.117C270.99 408.816 259.395 397.216 245.091 397.216C230.785 397.216 219.19 408.816 219.19 423.117C219.19 426.119 219.707 429.004 220.649 431.69C220.255 431.672 219.857 431.662 219.458 431.662C205.152 431.662 193.559 443.256 193.559 457.556C193.559 471.862 205.152 483.455 219.458 483.455C227.894 483.455 235.374 479.414 240.1 473.171C237.274 484.122 233.516 495.53 229.449 499.21H260.727C256.664 495.531 252.912 484.138 250.081 473.191C254.811 479.421 262.294 483.453 270.721 483.453C285.019 483.453 296.617 471.86 296.617 457.554C296.618 443.256 285.02 431.662 270.723 431.662H270.722ZM246.282 448.982C246.244 449.103 246.058 448.987 246.058 448.987C246.132 448.987 246.208 448.987 246.282 448.982Z" fill="#1C1C1E"/>
<path d="M219.278 769.671C219.677 769.671 220.078 769.661 220.471 769.643C219.529 772.329 219.01 775.214 219.01 778.216C219.01 792.517 230.605 804.117 244.909 804.117C259.215 804.117 270.81 792.517 270.81 778.216C270.81 775.214 270.293 772.329 269.351 769.643C269.745 769.661 270.143 769.671 270.542 769.671C284.848 769.671 296.441 758.077 296.441 743.777C296.441 729.471 284.848 717.878 270.542 717.878C262.106 717.878 254.626 721.919 249.9 728.162C252.726 717.211 256.484 705.803 260.551 702.123H229.273C233.336 705.802 237.088 717.195 239.919 728.142C235.189 721.912 227.706 717.88 219.279 717.88C204.981 717.88 193.383 729.473 193.383 743.779C193.382 758.077 204.98 769.671 219.277 769.671H219.278ZM243.718 752.351C243.756 752.23 243.942 752.346 243.942 752.346C243.868 752.346 243.792 752.346 243.718 752.351Z" fill="#1C1C1E"/>
<path d="M400.722 507.829C400.323 507.829 399.922 507.839 399.529 507.857C400.471 505.171 400.99 502.286 400.99 499.284C400.99 484.983 389.395 473.383 375.091 473.383C360.785 473.383 349.19 484.983 349.19 499.284C349.19 502.286 349.707 505.171 350.649 507.857C350.255 507.839 349.857 507.829 349.458 507.829C335.152 507.829 323.559 519.423 323.559 533.723C323.559 548.029 335.152 559.622 349.458 559.622C357.894 559.622 365.374 555.581 370.1 549.338C367.274 560.289 363.516 571.697 359.449 575.377H390.727C386.664 571.698 382.912 560.305 380.081 549.358C384.811 555.588 392.294 559.62 400.721 559.62C415.019 559.62 426.617 548.027 426.617 533.721C426.618 519.423 415.02 507.829 400.723 507.829H400.722ZM376.282 525.149C376.244 525.27 376.058 525.154 376.058 525.154C376.132 525.154 376.208 525.154 376.282 525.149Z" fill="#1C1C1E"/>
<path d="M530.722 279.329C530.323 279.329 529.922 279.339 529.529 279.357C530.471 276.671 530.99 273.786 530.99 270.784C530.99 256.483 519.395 244.883 505.091 244.883C490.785 244.883 479.19 256.483 479.19 270.784C479.19 273.786 479.707 276.671 480.649 279.357C480.255 279.339 479.857 279.329 479.458 279.329C465.152 279.329 453.559 290.923 453.559 305.223C453.559 319.529 465.152 331.122 479.458 331.122C487.893 331.122 495.373 327.081 500.1 320.838C497.274 331.789 493.516 343.197 489.449 346.877H520.727C516.664 343.198 512.912 331.805 510.081 320.858C514.811 327.088 522.294 331.12 530.721 331.12C545.019 331.12 556.617 319.527 556.617 305.221C556.618 290.923 545.02 279.329 530.723 279.329H530.722ZM506.282 296.649C506.244 296.77 506.058 296.654 506.058 296.654C506.132 296.654 506.208 296.654 506.282 296.649Z" fill="#1C1C1E"/>
<path d="M479.278 617.338C479.677 617.338 480.078 617.328 480.471 617.31C479.529 619.996 479.01 622.88 479.01 625.883C479.01 640.184 490.605 651.784 504.909 651.784C519.215 651.784 530.81 640.184 530.81 625.883C530.81 622.881 530.293 619.996 529.351 617.31C529.745 617.328 530.143 617.338 530.542 617.338C544.848 617.338 556.441 605.744 556.441 591.444C556.441 577.138 544.848 565.545 530.542 565.545C522.107 565.545 514.627 569.586 509.9 575.829C512.726 564.878 516.484 553.47 520.551 549.79H489.273C493.336 553.469 497.088 564.862 499.919 575.809C495.189 569.579 487.706 565.547 479.279 565.547C464.981 565.547 453.383 577.14 453.383 591.446C453.382 605.744 464.98 617.338 479.277 617.338H479.278ZM503.718 600.018C503.756 599.897 503.942 600.013 503.942 600.013C503.868 600.013 503.792 600.013 503.718 600.018Z" fill="#1C1C1E"/>
<path d="M479.278 769.671C479.677 769.671 480.078 769.661 480.471 769.643C479.529 772.329 479.01 775.214 479.01 778.216C479.01 792.517 490.605 804.117 504.909 804.117C519.215 804.117 530.81 792.517 530.81 778.216C530.81 775.214 530.293 772.329 529.351 769.643C529.745 769.661 530.143 769.671 530.542 769.671C544.848 769.671 556.441 758.077 556.441 743.777C556.441 729.471 544.848 717.878 530.542 717.878C522.107 717.878 514.627 721.919 509.9 728.162C512.726 717.211 516.484 705.803 520.551 702.123H489.273C493.336 705.802 497.088 717.195 499.919 728.142C495.189 721.912 487.706 717.88 479.279 717.88C464.981 717.88 453.383 729.473 453.383 743.779C453.382 758.077 464.98 769.671 479.277 769.671H479.278ZM503.718 752.351C503.756 752.23 503.942 752.346 503.942 752.346C503.868 752.346 503.792 752.346 503.718 752.351Z" fill="#1C1C1E"/>
<path d="M92.75 100V111H124.75L100.55 170H112.65L137.25 110V100H92.75Z" fill="#1C1C1E"/>
<path d="M657.25 950V939H625.25L649.45 880H637.35L612.75 940V950H657.25Z" fill="#1C1C1E"/>
<path d="M651.369 124.391C651.115 124.391 650.859 124.397 650.61 124.409C651.209 122.7 651.539 120.864 651.539 118.953C651.539 109.853 644.161 102.471 635.058 102.471C625.954 102.471 618.576 109.853 618.576 118.953C618.576 120.864 618.905 122.7 619.504 124.409C619.253 124.397 619 124.391 618.746 124.391C609.642 124.391 602.265 131.769 602.265 140.869C602.265 149.973 609.642 157.35 618.746 157.35C624.114 157.35 628.874 154.779 631.882 150.806C630.084 157.775 627.692 165.034 625.104 167.376H645.008C642.423 165.035 640.035 157.785 638.233 150.819C641.243 154.783 646.005 157.349 651.368 157.349C660.467 157.349 667.847 149.971 667.847 140.868C667.848 131.769 660.467 124.391 651.369 124.391H651.369ZM635.816 135.413C635.791 135.49 635.673 135.416 635.673 135.416C635.721 135.416 635.769 135.416 635.816 135.413Z" fill="#1C1C1E"/>
<path d="M98.6313 925.609C98.8854 925.609 99.1407 925.603 99.3905 925.591C98.7911 927.3 98.4608 929.136 98.4608 931.047C98.4608 940.147 105.839 947.529 114.942 947.529C124.046 947.529 131.424 940.147 131.424 931.047C131.424 929.136 131.095 927.3 130.496 925.591C130.747 925.603 131 925.609 131.254 925.609C140.358 925.609 147.735 918.231 147.735 909.131C147.735 900.027 140.358 892.65 131.254 892.65C125.886 892.65 121.126 895.221 118.118 899.194C119.916 892.225 122.308 884.966 124.896 882.624H104.992C107.577 884.965 109.965 892.215 111.767 899.181C108.757 895.217 103.995 892.651 98.6321 892.651C89.5334 892.651 82.153 900.029 82.153 909.132C82.1519 918.231 89.5326 925.609 98.631 925.609H98.6313ZM114.184 914.587C114.209 914.51 114.327 914.584 114.327 914.584C114.279 914.584 114.231 914.584 114.184 914.587Z" fill="#1C1C1E"/>
</svg>
