<svg width="750" height="1050" viewBox="0 0 750 1050" fill="none" xmlns="http://www.w3.org/2000/svg">
<rect width="750" height="1050" fill="white"/>
<path d="M0 50C0 22.3858 22.3858 0 50 0H700C727.614 0 750 22.3858 750 50V1000C750 1027.61 727.614 1050 700 1050H50C22.3858 1050 0 1027.61 0 1000V50Z" fill="white"/>
<path d="M141.4 170L112.1 134.1L140.4 100H126.7L100.1 131.4V100H88.6001V170H100.1V136.7L127.7 170H141.4Z" fill="#1C1C1E"/>
<path d="M608.6 880L637.9 915.9L609.6 950H623.3L649.9 918.6V950H661.4V880H649.9V913.3L622.3 880H608.6Z" fill="#1C1C1E"/>
<g clip-path="url(#clip0_63_6979)">
<path d="M459.435 490.599C458.812 493.704 456.642 495.881 453.848 496.81C450.743 497.434 447.637 496.498 445.772 494.016L374.961 405.5L304.158 494.009C302.293 496.491 299.187 497.427 296.082 496.803C293.288 495.874 291.111 493.697 290.494 490.592C280.554 441.527 246.392 426.302 229.936 421.644L247.328 596.797H502.607L520 421.644C503.529 425.997 469.368 441.213 459.434 490.597L459.435 490.599ZM408.193 517.924L381.796 570.095C380.555 572.888 377.761 574.441 374.961 574.441C372.167 574.441 369.373 572.888 368.126 570.095L341.728 517.924C340.799 515.748 340.799 512.954 341.728 510.784L368.126 458.614C370.607 453.332 379.307 453.332 381.789 458.614L408.186 510.784C409.122 512.954 409.122 515.748 408.193 517.924Z" fill="#1C1C1E"/>
<path d="M245.452 612.32L232.725 644.311H517.197L504.469 612.32H245.452Z" fill="#1C1C1E"/>
</g>
<path d="M635.406 102.883C635.406 102.883 600.618 116.16 600.618 139.939C600.618 149.965 608.745 158.091 618.77 158.091C623.631 158.091 628.045 156.172 631.302 153.061C629.604 159.222 627.47 165.179 625.186 167.249H644.867C642.584 165.179 640.45 159.222 638.752 153.061C642.007 156.174 646.421 158.091 651.287 158.091C661.31 158.091 669.436 149.965 669.436 139.939C669.439 115.991 635.408 102.883 635.408 102.883H635.406Z" fill="#1C1C1E"/>
<path d="M114.594 947.117C114.594 947.117 149.382 933.84 149.382 910.061C149.382 900.035 141.255 891.909 131.23 891.909C126.369 891.909 121.955 893.828 118.698 896.939C120.396 890.778 122.53 884.821 124.814 882.751H105.133C107.416 884.821 109.55 890.778 111.248 896.939C107.993 893.826 103.579 891.909 98.7128 891.909C88.6899 891.909 80.5641 900.035 80.5641 910.061C80.5609 934.009 114.592 947.117 114.592 947.117H114.594Z" fill="#1C1C1E"/>
<defs>
<clipPath id="clip0_63_6979">
<rect width="290" height="290" fill="white" transform="translate(230 379.5)"/>
</clipPath>
</defs>
</svg>
