<svg width="750" height="1050" viewBox="0 0 750 1050" fill="none" xmlns="http://www.w3.org/2000/svg">
<g clip-path="url(#clip0_63_7204)">
<rect width="750" height="1050" fill="white"/>
<path d="M0 50C0 22.3858 22.3858 0 50 0H700C727.614 0 750 22.3858 750 50V1000C750 1027.61 727.614 1050 700 1050H50C22.3858 1050 0 1027.61 0 1000V50Z" fill="white"/>
<path d="M754.341 536.834C750.935 536.834 747.515 536.92 744.167 537.078C752.2 514.174 756.625 489.575 756.625 463.97C756.625 342.022 657.753 243.105 535.776 243.105C413.784 243.105 314.912 342.022 314.912 463.97C314.912 489.575 319.323 514.173 327.355 537.078C323.993 536.92 320.602 536.834 317.197 536.834C195.205 536.834 96.3472 635.707 96.3472 757.639C96.3472 879.631 195.205 978.489 317.197 978.489C389.128 978.489 452.912 944.032 493.217 890.795C469.12 984.179 437.077 1081.46 402.393 1112.84H669.108C634.465 1081.47 602.466 984.319 578.325 890.968C618.659 944.088 682.468 978.474 754.33 978.474C876.252 978.474 975.15 879.616 975.15 757.625C975.165 635.703 876.263 536.834 754.345 536.834H754.341ZM545.935 684.53C545.605 685.565 544.024 684.573 544.024 684.573C544.657 684.573 545.303 684.573 545.935 684.53Z" fill="#1C1C1E"/>
<path d="M199.222 159.611C199.222 126.275 172.619 100 139.611 100C106.767 100 80 126.275 80 159.611C80 192.947 106.767 219.222 139.611 219.222C150.778 219.222 161.288 216.102 170.32 210.847L182.964 223.82L196.266 211.832L184.114 199.352C193.474 189.006 199.222 175.047 199.222 159.611ZM139.611 200.83C116.949 200.83 98.885 183.258 98.885 159.611C98.885 135.964 116.949 118.392 139.611 118.392C162.273 118.392 180.337 135.964 180.337 159.611C180.337 169.957 176.888 178.989 171.141 186.05L149.136 163.552L135.834 175.54L156.854 197.053C151.599 199.516 145.851 200.83 139.611 200.83Z" fill="#1C1C1E"/>
<path d="M322.99 144.981C322.573 144.981 322.154 144.991 321.744 145.011C322.728 142.204 323.27 139.189 323.27 136.051C323.27 121.107 311.153 108.984 296.205 108.984C281.255 108.984 269.138 121.107 269.138 136.051C269.138 139.189 269.679 142.204 270.663 145.011C270.251 144.991 269.836 144.981 269.418 144.981C254.468 144.981 242.353 157.098 242.353 172.041C242.353 186.991 254.468 199.106 269.418 199.106C278.233 199.106 286.05 194.883 290.99 188.359C288.036 199.803 284.11 211.724 279.859 215.57H312.545C308.3 211.726 304.378 199.82 301.42 188.38C306.362 194.89 314.182 199.104 322.989 199.104C337.931 199.104 350.051 186.989 350.051 172.039C350.052 157.097 337.932 144.981 322.991 144.981H322.99ZM297.45 163.081C297.41 163.208 297.216 163.086 297.216 163.086C297.294 163.086 297.373 163.086 297.45 163.081Z" fill="#1C1C1E"/>
</g>
<defs>
<clipPath id="clip0_63_7204">
<rect width="750" height="1050" fill="white"/>
</clipPath>
</defs>
</svg>
