<svg width="750" height="1050" viewBox="0 0 750 1050" fill="none" xmlns="http://www.w3.org/2000/svg">
<rect width="750" height="1050" fill="white"/>
<path d="M0 50C0 22.3858 22.3858 0 50 0H700C727.614 0 750 22.3858 750 50V1000C750 1027.61 727.614 1050 700 1050H50C22.3858 1050 0 1027.61 0 1000V50Z" fill="white"/>
<path d="M299.245 280.204C299.245 264.432 286.46 251.647 270.693 251.647C259.478 251.647 249.78 258.109 245.111 267.51C240.431 258.108 230.742 251.647 219.524 251.647C203.758 251.647 190.971 264.432 190.971 280.204C190.971 317.882 244.513 338.504 244.513 338.504C244.514 338.502 299.245 317.619 299.245 280.204Z" fill="#FF3B30"/>
<path d="M299.245 508.704C299.245 492.932 286.46 480.147 270.693 480.147C259.478 480.147 249.78 486.609 245.111 496.01C240.431 486.608 230.742 480.147 219.524 480.147C203.758 480.147 190.971 492.932 190.971 508.704C190.971 546.382 244.513 567.004 244.513 567.004C244.514 567.002 299.245 546.119 299.245 508.704Z" fill="#FF3B30"/>
<path d="M190.755 766.796C190.755 782.568 203.54 795.353 219.307 795.353C230.522 795.353 240.22 788.891 244.889 779.49C249.569 788.892 259.258 795.353 270.476 795.353C286.242 795.353 299.029 782.568 299.029 766.796C299.029 729.118 245.487 708.496 245.487 708.496C245.486 708.498 190.755 729.381 190.755 766.796Z" fill="#FF3B30"/>
<path d="M429.245 394.454C429.245 378.682 416.46 365.897 400.693 365.897C389.478 365.897 379.78 372.359 375.111 381.76C370.431 372.358 360.742 365.897 349.524 365.897C333.758 365.897 320.971 378.682 320.971 394.454C320.971 432.132 374.513 452.754 374.513 452.754C374.514 452.752 429.245 431.869 429.245 394.454Z" fill="#FF3B30"/>
<path d="M320.755 652.546C320.755 668.318 333.54 681.103 349.307 681.103C360.522 681.103 370.22 674.641 374.889 665.24C379.569 674.642 389.258 681.103 400.476 681.103C416.242 681.103 429.029 668.318 429.029 652.546C429.029 614.868 375.487 594.246 375.487 594.246C375.486 594.248 320.755 615.131 320.755 652.546Z" fill="#FF3B30"/>
<path d="M559.245 280.204C559.245 264.432 546.46 251.647 530.693 251.647C519.478 251.647 509.78 258.109 505.111 267.51C500.431 258.108 490.742 251.647 479.524 251.647C463.758 251.647 450.971 264.432 450.971 280.204C450.971 317.882 504.513 338.504 504.513 338.504C504.514 338.502 559.245 317.619 559.245 280.204Z" fill="#FF3B30"/>
<path d="M450.755 538.296C450.755 554.068 463.54 566.853 479.307 566.853C490.522 566.853 500.22 560.391 504.889 550.99C509.569 560.392 519.258 566.853 530.476 566.853C546.242 566.853 559.029 554.068 559.029 538.296C559.029 500.618 505.487 479.996 505.487 479.996C505.486 479.998 450.755 500.881 450.755 538.296Z" fill="#FF3B30"/>
<path d="M450.755 766.796C450.755 782.568 463.54 795.353 479.307 795.353C490.522 795.353 500.22 788.891 504.889 779.49C509.569 788.892 519.258 795.353 530.476 795.353C546.242 795.353 559.029 782.568 559.029 766.796C559.029 729.118 505.487 708.496 505.487 708.496C505.486 708.498 450.755 729.381 450.755 766.796Z" fill="#FF3B30"/>
<path d="M129.25 134.9C134.05 131.8 137.25 126.8 137.25 120.1C137.25 106.6 126.65 100 115.05 100C103.35 100 92.85 106.6 92.85 120.1C92.85 126.8 96.05 131.8 100.75 134.9C94.35 138.5 90.45 144.6 90.45 151.9C90.45 164.9 100.45 172.6 115.05 172.6C129.65 172.6 139.55 164.9 139.55 151.9C139.55 144.5 135.75 138.5 129.25 134.9ZM115.05 110.9C120.85 110.9 125.75 114.1 125.75 120.6C125.75 126.8 120.85 130.3 115.05 130.3C109.15 130.3 104.35 126.8 104.35 120.6C104.35 114.1 109.15 110.9 115.05 110.9ZM115.05 161.7C107.45 161.7 101.95 157.9 101.95 150.8C101.95 143.6 107.45 139.9 115.05 139.9C122.55 139.9 128.05 143.6 128.05 150.8C128.05 157.9 122.55 161.7 115.05 161.7Z" fill="#FF3B30"/>
<path d="M620.75 915.1C615.95 918.2 612.75 923.2 612.75 929.9C612.75 943.4 623.35 950 634.95 950C646.65 950 657.15 943.4 657.15 929.9C657.15 923.2 653.95 918.2 649.25 915.1C655.65 911.5 659.55 905.4 659.55 898.1C659.55 885.1 649.55 877.4 634.95 877.4C620.35 877.4 610.45 885.1 610.45 898.1C610.45 905.5 614.25 911.5 620.75 915.1ZM634.95 939.1C629.15 939.1 624.25 935.9 624.25 929.4C624.25 923.2 629.15 919.7 634.95 919.7C640.85 919.7 645.65 923.2 645.65 929.4C645.65 935.9 640.85 939.1 634.95 939.1ZM634.95 888.3C642.55 888.3 648.05 892.1 648.05 899.2C648.05 906.4 642.55 910.1 634.95 910.1C627.45 910.1 621.95 906.4 621.95 899.2C621.95 892.1 627.45 888.3 634.95 888.3Z" fill="#FF3B30"/>
<path d="M669.52 125.584C669.52 115.548 661.384 107.412 651.35 107.412C644.213 107.412 638.042 111.524 635.071 117.507C632.093 111.523 625.927 107.412 618.788 107.412C608.755 107.412 600.618 115.548 600.618 125.584C600.618 149.561 634.69 162.684 634.69 162.684C634.691 162.683 669.52 149.394 669.52 125.584Z" fill="#FF3B30"/>
<path d="M80.4804 924.416C80.4804 934.452 88.616 942.588 98.6497 942.588C105.787 942.588 111.958 938.476 114.929 932.493C117.907 938.477 124.073 942.588 131.212 942.588C141.245 942.588 149.382 934.452 149.382 924.416C149.382 900.439 115.31 887.316 115.31 887.316C115.309 887.317 80.4804 900.606 80.4804 924.416Z" fill="#FF3B30"/>
</svg>
