<svg width="750" height="1050" viewBox="0 0 750 1050" fill="none" xmlns="http://www.w3.org/2000/svg">
<rect width="750" height="1050" fill="white"/>
<path d="M0 50C0 22.3858 22.3858 0 50 0H700C727.614 0 750 22.3858 750 50V1000C750 1027.61 727.614 1050 700 1050H50C22.3858 1050 0 1027.61 0 1000V50Z" fill="white"/>
<path d="M245.125 241.294L298.956 295.125L245.125 348.956L191.294 295.125L245.125 241.294Z" fill="#FF3B30"/>
<path d="M244.875 805.706L191.044 751.875L244.875 698.044L298.706 751.875L244.875 805.706Z" fill="#FF3B30"/>
<path d="M375.125 469.794L428.956 523.625L375.125 577.456L321.294 523.625L375.125 469.794Z" fill="#FF3B30"/>
<path d="M505.125 241.294L558.956 295.125L505.125 348.956L451.294 295.125L505.125 241.294Z" fill="#FF3B30"/>
<path d="M504.875 805.706L451.044 751.875L504.875 698.044L558.706 751.875L504.875 805.706Z" fill="#FF3B30"/>
<path d="M115.35 126.4H106.55L107.75 110.8H136.15V100H97.1501L94.4501 137.6H114.85C122.45 137.6 127.65 141.8 127.65 148.8C127.65 155.8 122.45 160.1 114.65 160.1C107.35 160.1 102.55 156.8 100.75 150.6L90.8501 156.3C94.5501 166.4 104.05 171.3 114.65 171.3C127.55 171.3 139.15 163.5 139.15 148.8C139.15 134.2 128.05 126.4 115.35 126.4Z" fill="#FF3B30"/>
<path d="M634.65 923.6H643.45L642.25 939.2H613.85V950H652.85L655.55 912.4H635.15C627.55 912.4 622.35 908.2 622.35 901.2C622.35 894.2 627.55 889.9 635.35 889.9C642.65 889.9 647.45 893.2 649.25 899.4L659.15 893.7C655.45 883.6 645.95 878.7 635.35 878.7C622.45 878.7 610.85 886.5 610.85 901.2C610.85 915.8 621.95 923.6 634.65 923.6Z" fill="#FF3B30"/>
<path d="M635.08 100.823L669.336 135.079L635.08 169.335L600.823 135.079L635.08 100.823Z" fill="#FF3B30"/>
<path d="M114.92 949.177L80.6644 914.921L114.92 880.665L149.177 914.921L114.92 949.177Z" fill="#FF3B30"/>
</svg>
