<svg width="750" height="1050" viewBox="0 0 750 1050" fill="none" xmlns="http://www.w3.org/2000/svg">
<rect width="750" height="1050" fill="white"/>
<path d="M0 50C0 22.3858 22.3858 0 50 0H700C727.614 0 750 22.3858 750 50V1000C750 1027.61 727.614 1050 700 1050H50C22.3858 1050 0 1027.61 0 1000V50Z" fill="white"/>
<path d="M245.638 244.529C245.638 244.529 190.971 265.393 190.971 302.76C190.971 318.515 203.741 331.285 219.495 331.285C227.135 331.285 234.071 328.27 239.188 323.38C236.521 333.062 233.167 342.423 229.578 345.675H260.506C256.918 342.423 253.565 333.063 250.896 323.38C256.012 328.272 262.948 331.285 270.594 331.285C286.344 331.285 299.114 318.515 299.114 302.76C299.119 265.128 245.641 244.529 245.641 244.529H245.638Z" fill="#1C1C1E"/>
<path d="M245.638 473.029C245.638 473.029 190.971 493.893 190.971 531.26C190.971 547.015 203.741 559.785 219.495 559.785C227.135 559.785 234.071 556.77 239.188 551.88C236.521 561.562 233.167 570.923 229.578 574.175H260.506C256.918 570.923 253.565 561.563 250.896 551.88C256.012 556.772 262.948 559.785 270.594 559.785C286.344 559.785 299.114 547.015 299.114 531.26C299.119 493.628 245.641 473.029 245.641 473.029H245.638Z" fill="#1C1C1E"/>
<path d="M244.362 802.471C244.362 802.471 299.029 781.607 299.029 744.24C299.029 728.485 286.259 715.715 270.505 715.715C262.865 715.715 255.929 718.73 250.812 723.62C253.479 713.938 256.833 704.577 260.422 701.325H229.494C233.082 704.577 236.435 713.937 239.104 723.62C233.988 718.728 227.052 715.715 219.406 715.715C203.656 715.715 190.886 728.485 190.886 744.24C190.881 781.872 244.359 802.471 244.359 802.471H244.362Z" fill="#1C1C1E"/>
<path d="M375.638 358.779C375.638 358.779 320.971 379.643 320.971 417.01C320.971 432.765 333.741 445.535 349.495 445.535C357.135 445.535 364.071 442.52 369.188 437.63C366.521 447.312 363.167 456.673 359.578 459.925H390.506C386.918 456.673 383.565 447.313 380.896 437.63C386.012 442.522 392.948 445.535 400.594 445.535C416.344 445.535 429.114 432.765 429.114 417.01C429.119 379.378 375.641 358.779 375.641 358.779H375.638Z" fill="#1C1C1E"/>
<path d="M374.362 688.221C374.362 688.221 429.029 667.357 429.029 629.99C429.029 614.235 416.259 601.465 400.505 601.465C392.865 601.465 385.929 604.48 380.812 609.37C383.479 599.688 386.833 590.327 390.422 587.075H359.494C363.082 590.327 366.435 599.687 369.104 609.37C363.988 604.478 357.052 601.465 349.406 601.465C333.656 601.465 320.886 614.235 320.886 629.99C320.881 667.622 374.359 688.221 374.359 688.221H374.362Z" fill="#1C1C1E"/>
<path d="M505.638 244.529C505.638 244.529 450.971 265.393 450.971 302.76C450.971 318.515 463.741 331.285 479.495 331.285C487.135 331.285 494.071 328.27 499.188 323.38C496.521 333.062 493.167 342.423 489.578 345.675H520.506C516.918 342.423 513.565 333.063 510.896 323.38C516.012 328.272 522.948 331.285 530.594 331.285C546.344 331.285 559.114 318.515 559.114 302.76C559.119 265.128 505.641 244.529 505.641 244.529H505.638Z" fill="#1C1C1E"/>
<path d="M504.362 573.971C504.362 573.971 559.029 553.107 559.029 515.74C559.029 499.985 546.259 487.215 530.505 487.215C522.865 487.215 515.929 490.23 510.812 495.12C513.479 485.438 516.833 476.077 520.422 472.825H489.494C493.082 476.077 496.435 485.437 499.104 495.12C493.988 490.228 487.052 487.215 479.406 487.215C463.656 487.215 450.886 499.985 450.886 515.74C450.881 553.372 504.359 573.971 504.359 573.971H504.362Z" fill="#1C1C1E"/>
<path d="M504.362 802.471C504.362 802.471 559.029 781.607 559.029 744.24C559.029 728.485 546.259 715.715 530.505 715.715C522.865 715.715 515.929 718.73 510.812 723.62C513.479 713.938 516.833 704.577 520.422 701.325H489.494C493.082 704.577 496.435 713.937 499.104 723.62C493.988 718.728 487.052 715.715 479.406 715.715C463.656 715.715 450.886 728.485 450.886 744.24C450.881 781.872 504.359 802.471 504.359 802.471H504.362Z" fill="#1C1C1E"/>
<path d="M129.25 134.9C134.05 131.8 137.25 126.8 137.25 120.1C137.25 106.6 126.65 100 115.05 100C103.35 100 92.85 106.6 92.85 120.1C92.85 126.8 96.05 131.8 100.75 134.9C94.35 138.5 90.45 144.6 90.45 151.9C90.45 164.9 100.45 172.6 115.05 172.6C129.65 172.6 139.55 164.9 139.55 151.9C139.55 144.5 135.75 138.5 129.25 134.9ZM115.05 110.9C120.85 110.9 125.75 114.1 125.75 120.6C125.75 126.8 120.85 130.3 115.05 130.3C109.15 130.3 104.35 126.8 104.35 120.6C104.35 114.1 109.15 110.9 115.05 110.9ZM115.05 161.7C107.45 161.7 101.95 157.9 101.95 150.8C101.95 143.6 107.45 139.9 115.05 139.9C122.55 139.9 128.05 143.6 128.05 150.8C128.05 157.9 122.55 161.7 115.05 161.7Z" fill="#1C1C1E"/>
<path d="M620.75 915.1C615.95 918.2 612.75 923.2 612.75 929.9C612.75 943.4 623.35 950 634.95 950C646.65 950 657.15 943.4 657.15 929.9C657.15 923.2 653.95 918.2 649.25 915.1C655.65 911.5 659.55 905.4 659.55 898.1C659.55 885.1 649.55 877.4 634.95 877.4C620.35 877.4 610.45 885.1 610.45 898.1C610.45 905.5 614.25 911.5 620.75 915.1ZM634.95 939.1C629.15 939.1 624.25 935.9 624.25 929.4C624.25 923.2 629.15 919.7 634.95 919.7C640.85 919.7 645.65 923.2 645.65 929.4C645.65 935.9 640.85 939.1 634.95 939.1ZM634.95 888.3C642.55 888.3 648.05 892.1 648.05 899.2C648.05 906.4 642.55 910.1 634.95 910.1C627.45 910.1 621.95 906.4 621.95 899.2C621.95 892.1 627.45 888.3 634.95 888.3Z" fill="#1C1C1E"/>
<path d="M635.406 102.883C635.406 102.883 600.618 116.16 600.618 139.939C600.618 149.965 608.745 158.091 618.77 158.091C623.631 158.091 628.045 156.172 631.302 153.061C629.604 159.222 627.47 165.179 625.186 167.249H644.867C642.584 165.179 640.45 159.222 638.752 153.061C642.007 156.174 646.421 158.091 651.287 158.091C661.31 158.091 669.436 149.965 669.436 139.939C669.439 115.991 635.408 102.883 635.408 102.883H635.406Z" fill="#1C1C1E"/>
<path d="M114.594 947.117C114.594 947.117 149.382 933.84 149.382 910.061C149.382 900.035 141.255 891.909 131.23 891.909C126.369 891.909 121.955 893.828 118.698 896.939C120.396 890.778 122.53 884.821 124.814 882.751H105.133C107.416 884.821 109.55 890.778 111.248 896.939C107.993 893.826 103.579 891.909 98.7128 891.909C88.6899 891.909 80.5641 900.035 80.5641 910.061C80.5609 934.009 114.592 947.117 114.592 947.117H114.594Z" fill="#1C1C1E"/>
</svg>
