<svg width="750" height="1050" viewBox="0 0 750 1050" fill="none" xmlns="http://www.w3.org/2000/svg">
<rect width="750" height="1050" fill="white"/>
<path d="M0 50C0 22.3858 22.3858 0 50 0H700C727.614 0 750 22.3858 750 50V1000C750 1027.61 727.614 1050 700 1050H50C22.3858 1050 0 1027.61 0 1000V50Z" fill="white"/>
<path d="M245.638 245.529C245.638 245.529 190.971 266.393 190.971 303.76C190.971 319.515 203.741 332.285 219.495 332.285C227.135 332.285 234.071 329.27 239.188 324.38C236.521 334.062 233.167 343.423 229.578 346.675H260.506C256.918 343.423 253.565 334.063 250.896 324.38C256.012 329.272 262.948 332.285 270.594 332.285C286.344 332.285 299.114 319.515 299.114 303.76C299.119 266.128 245.641 245.529 245.641 245.529H245.638Z" fill="#1C1C1E"/>
<path d="M245.638 397.862C245.638 397.862 190.971 418.727 190.971 456.093C190.971 471.848 203.741 484.618 219.495 484.618C227.135 484.618 234.071 481.603 239.188 476.713C236.521 486.395 233.167 495.756 229.578 499.008H260.506C256.918 495.756 253.565 486.396 250.896 476.713C256.012 481.605 262.948 484.618 270.594 484.618C286.344 484.618 299.114 471.848 299.114 456.093C299.119 418.461 245.641 397.862 245.641 397.862H245.638Z" fill="#1C1C1E"/>
<path d="M244.362 651.138C244.362 651.138 299.029 630.273 299.029 592.907C299.029 577.152 286.259 564.382 270.505 564.382C262.865 564.382 255.929 567.397 250.812 572.287C253.479 562.605 256.833 553.244 260.422 549.992H229.494C233.082 553.244 236.435 562.604 239.104 572.287C233.988 567.395 227.052 564.382 219.406 564.382C203.656 564.382 190.886 577.152 190.886 592.907C190.881 630.539 244.359 651.138 244.359 651.138H244.362Z" fill="#1C1C1E"/>
<path d="M244.362 803.471C244.362 803.471 299.029 782.607 299.029 745.24C299.029 729.485 286.259 716.715 270.505 716.715C262.865 716.715 255.929 719.73 250.812 724.62C253.479 714.938 256.833 705.577 260.422 702.325H229.494C233.082 705.577 236.435 714.937 239.104 724.62C233.988 719.728 227.052 716.715 219.406 716.715C203.656 716.715 190.886 729.485 190.886 745.24C190.881 782.872 244.359 803.471 244.359 803.471H244.362Z" fill="#1C1C1E"/>
<path d="M375.638 318.529C375.638 318.529 320.971 339.393 320.971 376.76C320.971 392.515 333.741 405.285 349.495 405.285C357.135 405.285 364.071 402.27 369.188 397.38C366.521 407.062 363.167 416.423 359.578 419.675H390.506C386.918 416.423 383.565 407.063 380.896 397.38C386.012 402.272 392.948 405.285 400.594 405.285C416.344 405.285 429.114 392.515 429.114 376.76C429.119 339.128 375.641 318.529 375.641 318.529H375.638Z" fill="#1C1C1E"/>
<path d="M374.361 730.471C374.361 730.471 429.029 709.607 429.029 672.24C429.029 656.485 416.259 643.715 400.505 643.715C392.865 643.715 385.929 646.73 380.812 651.62C383.479 641.938 386.832 632.577 390.421 629.325H359.494C363.082 632.577 366.435 641.937 369.104 651.62C363.988 646.728 357.052 643.715 349.406 643.715C333.655 643.715 320.886 656.485 320.886 672.24C320.881 709.872 374.359 730.471 374.359 730.471H374.361Z" fill="#1C1C1E"/>
<path d="M505.639 245.529C505.639 245.529 450.971 266.393 450.971 303.76C450.971 319.515 463.741 332.285 479.495 332.285C487.135 332.285 494.071 329.27 499.188 324.38C496.521 334.062 493.168 343.423 489.579 346.675H520.506C516.918 343.423 513.565 334.063 510.896 324.38C516.012 329.272 522.948 332.285 530.594 332.285C546.345 332.285 559.114 319.515 559.114 303.76C559.119 266.128 505.641 245.529 505.641 245.529H505.639Z" fill="#1C1C1E"/>
<path d="M505.639 397.862C505.639 397.862 450.971 418.727 450.971 456.093C450.971 471.848 463.741 484.618 479.495 484.618C487.135 484.618 494.071 481.603 499.188 476.713C496.521 486.395 493.168 495.756 489.579 499.008H520.506C516.918 495.756 513.565 486.396 510.896 476.713C516.012 481.605 522.948 484.618 530.594 484.618C546.345 484.618 559.114 471.848 559.114 456.093C559.119 418.461 505.641 397.862 505.641 397.862H505.639Z" fill="#1C1C1E"/>
<path d="M504.361 651.138C504.361 651.138 559.029 630.273 559.029 592.907C559.029 577.152 546.259 564.382 530.505 564.382C522.865 564.382 515.929 567.397 510.812 572.287C513.479 562.605 516.832 553.244 520.421 549.992H489.494C493.082 553.244 496.435 562.604 499.104 572.287C493.988 567.395 487.052 564.382 479.406 564.382C463.655 564.382 450.886 577.152 450.886 592.907C450.881 630.539 504.359 651.138 504.359 651.138H504.361Z" fill="#1C1C1E"/>
<path d="M504.361 803.471C504.361 803.471 559.029 782.607 559.029 745.24C559.029 729.485 546.259 716.715 530.505 716.715C522.865 716.715 515.929 719.73 510.812 724.62C513.479 714.938 516.832 705.577 520.421 702.325H489.494C493.082 705.577 496.435 714.937 499.104 724.62C493.988 719.728 487.052 716.715 479.406 716.715C463.655 716.715 450.886 729.485 450.886 745.24C450.881 782.872 504.359 803.471 504.359 803.471H504.361Z" fill="#1C1C1E"/>
<path d="M98.4 101.3L80 107.8L82.8 117.6L96.9 113.6V171.3H108.4V101.3H98.4Z" fill="#1C1C1E"/>
<path d="M147.407 172.6C165.007 172.6 174.907 157.9 174.907 136.3C174.907 114.7 165.007 100 147.407 100C129.807 100 119.907 114.7 119.907 136.3C119.907 157.9 129.807 172.6 147.407 172.6ZM147.407 161.4C137.107 161.4 131.407 152.4 131.407 136.3C131.407 120.2 137.107 111.2 147.407 111.2C157.807 111.2 163.407 120.2 163.407 136.3C163.407 152.4 157.807 161.4 147.407 161.4Z" fill="#1C1C1E"/>
<path d="M651.6 948.7L670 942.2L667.2 932.4L653.1 936.4V878.7H641.6V948.7H651.6Z" fill="#1C1C1E"/>
<path d="M602.593 877.4C584.993 877.4 575.093 892.1 575.093 913.7C575.093 935.3 584.993 950 602.593 950C620.193 950 630.093 935.3 630.093 913.7C630.093 892.1 620.193 877.4 602.593 877.4ZM602.593 888.6C612.893 888.6 618.593 897.6 618.593 913.7C618.593 929.8 612.893 938.8 602.593 938.8C592.193 938.8 586.593 929.8 586.593 913.7C586.593 897.6 592.193 888.6 602.593 888.6Z" fill="#1C1C1E"/>
<path d="M635.406 102.883C635.406 102.883 600.618 116.16 600.618 139.939C600.618 149.965 608.745 158.091 618.77 158.091C623.631 158.091 628.045 156.172 631.302 153.061C629.604 159.222 627.47 165.179 625.186 167.249H644.867C642.584 165.179 640.45 159.222 638.752 153.061C642.007 156.174 646.421 158.091 651.287 158.091C661.31 158.091 669.436 149.965 669.436 139.939C669.439 115.991 635.408 102.883 635.408 102.883H635.406Z" fill="#1C1C1E"/>
<path d="M114.594 947.117C114.594 947.117 149.382 933.84 149.382 910.061C149.382 900.035 141.255 891.909 131.23 891.909C126.369 891.909 121.955 893.828 118.698 896.939C120.396 890.778 122.53 884.821 124.814 882.751H105.133C107.416 884.821 109.55 890.778 111.248 896.939C107.993 893.826 103.579 891.909 98.7128 891.909C88.6899 891.909 80.5641 900.035 80.5641 910.061C80.5609 934.009 114.592 947.117 114.592 947.117H114.594Z" fill="#1C1C1E"/>
</svg>
