<svg width="750" height="1050" viewBox="0 0 750 1050" fill="none" xmlns="http://www.w3.org/2000/svg">
<rect width="750" height="1050" fill="white"/>
<path d="M0 50C0 22.3858 22.3858 0 50 0H700C727.614 0 750 22.3858 750 50V1000C750 1027.61 727.614 1050 700 1050H50C22.3858 1050 0 1027.61 0 1000V50Z" fill="white"/>
<path d="M114.2 171.3C127.6 171.3 138.3 163.7 138.3 148.8V100H126.8V148.8C126.8 156 122.3 160.1 114.3 160.1C107.9 160.1 103.9 157.7 101.6 152.7L91.7 158.5C95.8 167 104 171.3 114.2 171.3Z" fill="#1C1C1E"/>
<path d="M635.8 878.7C622.4 878.7 611.7 886.3 611.7 901.2V950H623.2V901.2C623.2 894 627.7 889.9 635.7 889.9C642.1 889.9 646.1 892.3 648.4 897.3L658.3 891.5C654.2 883 646 878.7 635.8 878.7Z" fill="#1C1C1E"/>
<g clip-path="url(#clip0_63_7203)">
<path d="M230 446.068L255.863 559.5H496.561L519.864 446.068C424.35 430.704 325.521 430.704 230.003 446.068H230Z" fill="#1C1C1E"/>
<path d="M255.605 613.795H492.469L494.264 572.311H255.864L255.605 613.795Z" fill="#1C1C1E"/>
</g>
<path d="M651.369 124.391C651.114 124.391 650.859 124.397 650.609 124.409C651.209 122.7 651.539 120.864 651.539 118.953C651.539 109.853 644.161 102.471 635.058 102.471C625.954 102.471 618.575 109.853 618.575 118.953C618.575 120.864 618.905 122.7 619.504 124.409C619.253 124.397 619 124.391 618.746 124.391C609.642 124.391 602.265 131.769 602.265 140.869C602.265 149.973 609.642 157.35 618.746 157.35C624.114 157.35 628.874 154.779 631.882 150.806C630.084 157.775 627.692 165.034 625.104 167.376H645.008C642.423 165.035 640.035 157.785 638.233 150.819C641.243 154.783 646.005 157.349 651.368 157.349C660.466 157.349 667.847 149.971 667.847 140.868C667.848 131.769 660.467 124.391 651.369 124.391H651.369ZM635.816 135.413C635.791 135.49 635.673 135.416 635.673 135.416C635.721 135.416 635.769 135.416 635.816 135.413Z" fill="#1C1C1E"/>
<path d="M98.6314 925.609C98.8855 925.609 99.1407 925.603 99.3906 925.591C98.7911 927.3 98.4609 929.136 98.4609 931.047C98.4609 940.147 105.839 947.529 114.942 947.529C124.046 947.529 131.425 940.147 131.425 931.047C131.425 929.136 131.095 927.3 130.496 925.591C130.747 925.603 131 925.609 131.254 925.609C140.358 925.609 147.735 918.231 147.735 909.131C147.735 900.027 140.358 892.65 131.254 892.65C125.886 892.65 121.126 895.221 118.118 899.194C119.916 892.225 122.308 884.966 124.896 882.624H104.992C107.577 884.965 109.965 892.215 111.767 899.181C108.757 895.217 103.995 892.651 98.6321 892.651C89.5335 892.651 82.153 900.029 82.153 909.132C82.152 918.231 89.5327 925.609 98.631 925.609H98.6314ZM114.184 914.587C114.209 914.51 114.327 914.584 114.327 914.584C114.279 914.584 114.231 914.584 114.184 914.587Z" fill="#1C1C1E"/>
<defs>
<clipPath id="clip0_63_7203">
<rect width="290" height="290" fill="white" transform="translate(230 379.5)"/>
</clipPath>
</defs>
</svg>
