<svg width="750" height="1050" viewBox="0 0 750 1050" fill="none" xmlns="http://www.w3.org/2000/svg">
<rect width="750" height="1050" fill="white"/>
<path d="M0 50C0 22.3858 22.3858 0 50 0H700C727.614 0 750 22.3858 750 50V1000C750 1027.61 727.614 1050 700 1050H50C22.3858 1050 0 1027.61 0 1000V50Z" fill="white"/>
<path d="M375.352 373.147L527.058 524.853L375.352 676.558L223.647 524.853L375.352 373.147Z" fill="#FF3B30"/>
<path d="M135.1 170H147.5L122.2 100H108.4L83 170H95.5L100.4 155.9H130.2L135.1 170ZM104.2 145.1L115.3 113.5L126.4 145.1H104.2Z" fill="#FF3B30"/>
<path d="M635.08 100.823L669.336 135.079L635.08 169.335L600.824 135.079L635.08 100.823Z" fill="#FF3B30"/>
<path d="M114.92 949.177L80.6641 914.921L114.92 880.665L149.176 914.921L114.92 949.177Z" fill="#FF3B30"/>
<path d="M614.9 880H602.5L627.8 950H641.6L667 880H654.5L649.6 894.1H619.8L614.9 880ZM645.8 904.9L634.7 936.5L623.6 904.9H645.8Z" fill="#FF3B30"/>
</svg>
