<svg width="750" height="1050" viewBox="0 0 750 1050" fill="none" xmlns="http://www.w3.org/2000/svg">
<rect width="750" height="1050" fill="white"/>
<path d="M0 50C0 22.3858 22.3858 0 50 0H700C727.614 0 750 22.3858 750 50V1000C750 1027.61 727.614 1050 700 1050H50C22.3858 1050 0 1027.61 0 1000V50Z" fill="white"/>
<path d="M429.245 354.204C429.245 338.432 416.461 325.647 400.694 325.647C389.478 325.647 379.781 332.109 375.111 341.51C370.431 332.108 360.742 325.647 349.524 325.647C333.758 325.647 320.971 338.432 320.971 354.204C320.971 391.882 374.513 412.504 374.513 412.504C374.514 412.502 429.245 391.619 429.245 354.204Z" fill="#FF3B30"/>
<path d="M320.755 694.796C320.755 710.568 333.539 723.353 349.306 723.353C360.522 723.353 370.219 716.891 374.889 707.49C379.569 716.892 389.258 723.353 400.476 723.353C416.242 723.353 429.029 710.568 429.029 694.796C429.029 657.118 375.487 636.496 375.487 636.496C375.486 636.498 320.755 657.381 320.755 694.796Z" fill="#FF3B30"/>
<path d="M92.0501 171.3H138.15V160.2H109.15L124.95 144.4C131.65 137.6 136.85 130.3 136.85 121.6C136.85 107.7 125.95 100 114.45 100C105.15 100 96.3501 104.6 91.8501 114.2L101.55 119.9C104.25 114.3 108.75 111.2 114.55 111.2C120.55 111.2 125.35 115 125.35 122C125.35 127.3 121.45 132.4 116.45 137.4L92.0501 162.3V171.3Z" fill="#FF3B30"/>
<path d="M657.95 878.7H611.85V889.8H640.85L625.05 905.6C618.35 912.4 613.15 919.7 613.15 928.4C613.15 942.3 624.05 950 635.55 950C644.85 950 653.65 945.4 658.15 935.8L648.45 930.1C645.75 935.7 641.25 938.8 635.45 938.8C629.45 938.8 624.65 935 624.65 928C624.65 922.7 628.55 917.6 633.55 912.6L657.95 887.7V878.7Z" fill="#FF3B30"/>
<path d="M669.52 125.584C669.52 115.548 661.384 107.412 651.35 107.412C644.213 107.412 638.042 111.524 635.071 117.507C632.093 111.523 625.927 107.412 618.788 107.412C608.755 107.412 600.618 115.548 600.618 125.584C600.618 149.561 634.69 162.684 634.69 162.684C634.691 162.683 669.52 149.394 669.52 125.584Z" fill="#FF3B30"/>
<path d="M80.4804 924.416C80.4804 934.452 88.616 942.588 98.6496 942.588C105.787 942.588 111.958 938.476 114.929 932.493C117.907 938.477 124.073 942.588 131.212 942.588C141.245 942.588 149.382 934.452 149.382 924.416C149.382 900.439 115.31 887.316 115.31 887.316C115.309 887.317 80.4804 900.606 80.4804 924.416Z" fill="#FF3B30"/>
</svg>
