<svg width="750" height="1050" viewBox="0 0 750 1050" fill="none" xmlns="http://www.w3.org/2000/svg">
<rect width="750" height="1050" fill="white"/>
<path d="M0 50C0 22.3858 22.3858 0 50 0H700C727.614 0 750 22.3858 750 50V1000C750 1027.61 727.614 1050 700 1050H50C22.3858 1050 0 1027.61 0 1000V50Z" fill="white"/>
<path d="M447.49 477.516C446.364 477.516 445.234 477.544 444.128 477.597C446.782 470.027 448.245 461.897 448.245 453.435C448.245 413.132 415.568 380.441 375.256 380.441C334.939 380.441 302.263 413.132 302.263 453.435C302.263 461.897 303.721 470.027 306.375 477.597C305.264 477.544 304.143 477.516 303.018 477.516C262.701 477.516 230.029 510.192 230.029 550.49C230.029 590.807 262.701 623.478 303.018 623.478C326.791 623.478 347.871 612.091 361.191 594.497C353.227 625.359 342.637 657.508 331.174 667.879H419.321C407.872 657.512 397.297 625.405 389.318 594.554C402.648 612.109 423.737 623.474 447.486 623.474C487.78 623.474 520.465 590.802 520.465 550.485C520.47 510.191 487.784 477.516 447.491 477.516H447.49ZM378.614 526.328C378.505 526.67 377.982 526.342 377.982 526.342C378.191 526.342 378.405 526.342 378.614 526.328Z" fill="#1C1C1E"/>
<path d="M135.1 170H147.5L122.2 100H108.4L83 170H95.5L100.4 155.9H130.2L135.1 170ZM104.2 145.1L115.3 113.5L126.4 145.1H104.2Z" fill="#1C1C1E"/>
<path d="M651.369 124.391C651.114 124.391 650.859 124.397 650.609 124.409C651.209 122.7 651.539 120.864 651.539 118.953C651.539 109.853 644.161 102.471 635.058 102.471C625.954 102.471 618.575 109.853 618.575 118.953C618.575 120.864 618.905 122.7 619.504 124.409C619.253 124.397 619 124.391 618.746 124.391C609.642 124.391 602.265 131.769 602.265 140.869C602.265 149.973 609.642 157.35 618.746 157.35C624.114 157.35 628.874 154.779 631.882 150.806C630.084 157.775 627.692 165.034 625.104 167.376H645.008C642.423 165.035 640.035 157.785 638.233 150.819C641.243 154.783 646.005 157.349 651.368 157.349C660.466 157.349 667.847 149.971 667.847 140.868C667.848 131.769 660.467 124.391 651.369 124.391H651.369ZM635.816 135.413C635.791 135.49 635.673 135.416 635.673 135.416C635.721 135.416 635.769 135.416 635.816 135.413Z" fill="#1C1C1E"/>
<path d="M98.6314 925.609C98.8855 925.609 99.1407 925.603 99.3906 925.591C98.7911 927.3 98.4609 929.136 98.4609 931.047C98.4609 940.147 105.839 947.529 114.942 947.529C124.046 947.529 131.425 940.147 131.425 931.047C131.425 929.136 131.095 927.3 130.496 925.591C130.747 925.603 131 925.609 131.254 925.609C140.358 925.609 147.735 918.231 147.735 909.131C147.735 900.027 140.358 892.65 131.254 892.65C125.886 892.65 121.126 895.221 118.118 899.194C119.916 892.225 122.308 884.966 124.896 882.624H104.992C107.577 884.965 109.965 892.215 111.767 899.181C108.757 895.217 103.995 892.651 98.6321 892.651C89.5335 892.651 82.153 900.029 82.153 909.132C82.152 918.231 89.5327 925.609 98.631 925.609H98.6314ZM114.184 914.587C114.209 914.51 114.327 914.584 114.327 914.584C114.279 914.584 114.231 914.584 114.184 914.587Z" fill="#1C1C1E"/>
<path d="M614.9 880H602.5L627.8 950H641.6L667 880H654.5L649.6 894.1H619.8L614.9 880ZM645.8 904.9L634.7 936.5L623.6 904.9H645.8Z" fill="#1C1C1E"/>
</svg>
