<svg width="750" height="1050" viewBox="0 0 750 1050" fill="none" xmlns="http://www.w3.org/2000/svg">
<g clip-path="url(#clip0_63_6752)">
<rect width="750" height="1050" fill="white"/>
<path d="M0 50C0 22.3858 22.3858 0 50 0H700C727.614 0 750 22.3858 750 50V1000C750 1027.61 727.614 1050 700 1050H50C22.3858 1050 0 1027.61 0 1000V50Z" fill="white"/>
<path d="M997.563 552.826C997.563 418.335 888.545 309.317 754.095 309.317C658.455 309.317 575.764 364.42 535.945 444.584C496.042 364.406 413.42 309.317 317.755 309.317C183.32 309.317 74.2764 418.335 74.2764 552.826C74.2764 874.115 530.843 1049.97 530.843 1049.97C530.858 1049.95 997.563 871.878 997.563 552.826Z" fill="#FF3B30"/>
<path d="M199.222 159.611C199.222 126.275 172.619 100 139.611 100C106.767 100 80 126.275 80 159.611C80 192.947 106.767 219.222 139.611 219.222C150.778 219.222 161.288 216.102 170.32 210.847L182.964 223.82L196.266 211.832L184.114 199.352C193.474 189.006 199.222 175.047 199.222 159.611ZM139.611 200.83C116.949 200.83 98.885 183.258 98.885 159.611C98.885 135.964 116.949 118.392 139.611 118.392C162.273 118.392 180.337 135.964 180.337 159.611C180.337 169.957 176.888 178.989 171.141 186.05L149.136 163.552L135.834 175.54L156.854 197.053C151.599 199.516 145.851 200.83 139.611 200.83Z" fill="#FF3B30"/>
<path d="M352.798 146.941C352.798 130.459 339.437 117.099 322.96 117.099C311.24 117.099 301.106 123.852 296.226 133.676C291.336 123.85 281.211 117.099 269.487 117.099C253.012 117.099 239.648 130.459 239.648 146.941C239.648 186.315 295.601 207.865 295.601 207.865C295.603 207.864 352.798 186.041 352.798 146.941Z" fill="#FF3B30"/>
</g>
<defs>
<clipPath id="clip0_63_6752">
<rect width="750" height="1050" fill="white"/>
</clipPath>
</defs>
</svg>
