<svg width="750" height="1050" viewBox="0 0 750 1050" fill="none" xmlns="http://www.w3.org/2000/svg">
<rect width="750" height="1050" fill="white"/>
<path d="M0 50C0 22.3858 22.3858 0 50 0H700C727.614 0 750 22.3858 750 50V1000C750 1027.61 727.614 1050 700 1050H50C22.3858 1050 0 1027.61 0 1000V50Z" fill="white"/>
<path d="M245.639 244.529C245.639 244.529 190.971 265.393 190.971 302.76C190.971 318.515 203.741 331.285 219.495 331.285C227.135 331.285 234.071 328.27 239.188 323.38C236.521 333.062 233.168 342.423 229.579 345.675H260.506C256.918 342.423 253.565 333.063 250.896 323.38C256.012 328.272 262.948 331.285 270.594 331.285C286.345 331.285 299.114 318.515 299.114 302.76C299.119 265.128 245.641 244.529 245.641 244.529H245.639Z" fill="#1C1C1E"/>
<path d="M244.362 802.471C244.362 802.471 299.029 781.607 299.029 744.24C299.029 728.485 286.259 715.715 270.505 715.715C262.865 715.715 255.929 718.73 250.812 723.62C253.479 713.938 256.833 704.577 260.422 701.325H229.494C233.082 704.577 236.435 713.937 239.104 723.62C233.988 718.728 227.052 715.715 219.406 715.715C203.656 715.715 190.886 728.485 190.886 744.24C190.881 781.872 244.359 802.471 244.359 802.471H244.362Z" fill="#1C1C1E"/>
<path d="M375.638 473.029C375.638 473.029 320.971 493.893 320.971 531.26C320.971 547.015 333.741 559.785 349.495 559.785C357.135 559.785 364.071 556.77 369.188 551.88C366.521 561.562 363.167 570.923 359.578 574.175H390.506C386.918 570.923 383.565 561.563 380.896 551.88C386.012 556.772 392.948 559.785 400.594 559.785C416.344 559.785 429.114 547.015 429.114 531.26C429.119 493.628 375.641 473.029 375.641 473.029H375.638Z" fill="#1C1C1E"/>
<path d="M505.638 244.529C505.638 244.529 450.971 265.393 450.971 302.76C450.971 318.515 463.741 331.285 479.495 331.285C487.135 331.285 494.071 328.27 499.188 323.38C496.521 333.062 493.167 342.423 489.578 345.675H520.506C516.918 342.423 513.565 333.063 510.896 323.38C516.012 328.272 522.948 331.285 530.594 331.285C546.344 331.285 559.114 318.515 559.114 302.76C559.119 265.128 505.641 244.529 505.641 244.529H505.638Z" fill="#1C1C1E"/>
<path d="M504.362 802.471C504.362 802.471 559.029 781.607 559.029 744.24C559.029 728.485 546.259 715.715 530.505 715.715C522.865 715.715 515.929 718.73 510.812 723.62C513.479 713.938 516.833 704.577 520.422 701.325H489.494C493.082 704.577 496.435 713.937 499.104 723.62C493.988 718.728 487.052 715.715 479.406 715.715C463.656 715.715 450.886 728.485 450.886 744.24C450.881 781.872 504.359 802.471 504.359 802.471H504.362Z" fill="#1C1C1E"/>
<path d="M115.35 126.4H106.55L107.75 110.8H136.15V100H97.1501L94.4501 137.6H114.85C122.45 137.6 127.65 141.8 127.65 148.8C127.65 155.8 122.45 160.1 114.65 160.1C107.35 160.1 102.55 156.8 100.75 150.6L90.8501 156.3C94.5501 166.4 104.05 171.3 114.65 171.3C127.55 171.3 139.15 163.5 139.15 148.8C139.15 134.2 128.05 126.4 115.35 126.4Z" fill="#1C1C1E"/>
<path d="M634.65 923.6H643.45L642.25 939.2H613.85V950H652.85L655.55 912.4H635.15C627.55 912.4 622.35 908.2 622.35 901.2C622.35 894.2 627.55 889.9 635.35 889.9C642.65 889.9 647.45 893.2 649.25 899.4L659.15 893.7C655.45 883.6 645.95 878.7 635.35 878.7C622.45 878.7 610.85 886.5 610.85 901.2C610.85 915.8 621.95 923.6 634.65 923.6Z" fill="#1C1C1E"/>
<path d="M635.406 102.883C635.406 102.883 600.618 116.16 600.618 139.939C600.618 149.965 608.745 158.091 618.77 158.091C623.631 158.091 628.045 156.172 631.302 153.061C629.604 159.222 627.47 165.179 625.186 167.249H644.867C642.584 165.179 640.45 159.222 638.752 153.061C642.007 156.174 646.421 158.091 651.287 158.091C661.31 158.091 669.436 149.965 669.436 139.939C669.439 115.991 635.408 102.883 635.408 102.883H635.406Z" fill="#1C1C1E"/>
<path d="M114.594 947.117C114.594 947.117 149.382 933.84 149.382 910.061C149.382 900.035 141.255 891.909 131.23 891.909C126.369 891.909 121.955 893.828 118.698 896.939C120.396 890.778 122.53 884.821 124.814 882.751H105.133C107.416 884.821 109.55 890.778 111.248 896.939C107.993 893.826 103.579 891.909 98.7128 891.909C88.6899 891.909 80.5641 900.035 80.5641 910.061C80.5609 934.009 114.592 947.117 114.592 947.117H114.594Z" fill="#1C1C1E"/>
</svg>
