<svg width="750" height="1050" viewBox="0 0 750 1050" fill="none" xmlns="http://www.w3.org/2000/svg">
<g clip-path="url(#clip0_63_7431)">
<rect width="750" height="1050" fill="white"/>
<path d="M0 50C0 22.3858 22.3858 0 50 0H700C727.614 0 750 22.3858 750 50V1000C750 1027.61 727.614 1050 700 1050H50C22.3858 1050 0 1027.61 0 1000V50Z" fill="white"/>
<path d="M536.067 221.035L995.098 680.067L536.067 1139.1L77.0354 680.067L536.067 221.035Z" fill="#FF3B30"/>
<path d="M176.173 220.1L127.577 160.557L174.514 104H151.792L107.674 156.079V104H88.6001V220.1H107.674V164.87L153.45 220.1H176.173Z" fill="#FF3B30"/>
<path d="M274.16 105.366L330.977 162.182L274.16 218.999L217.344 162.182L274.16 105.366Z" fill="#FF3B30"/>
</g>
<defs>
<clipPath id="clip0_63_7431">
<rect width="750" height="1050" fill="white"/>
</clipPath>
</defs>
</svg>
