<svg width="750" height="1050" viewBox="0 0 750 1050" fill="none" xmlns="http://www.w3.org/2000/svg">
<rect width="750" height="1050" fill="white"/>
<path d="M0 50C0 22.3858 22.3858 0 50 0H700C727.614 0 750 22.3858 750 50V1000C750 1027.61 727.614 1050 700 1050H50C22.3858 1050 0 1027.61 0 1000V50Z" fill="white"/>
<path d="M245.638 245.529C245.638 245.529 190.971 266.393 190.971 303.76C190.971 319.515 203.741 332.285 219.495 332.285C227.135 332.285 234.071 329.27 239.188 324.38C236.521 334.062 233.167 343.423 229.578 346.675H260.506C256.918 343.423 253.565 334.063 250.896 324.38C256.012 329.272 262.948 332.285 270.594 332.285C286.344 332.285 299.114 319.515 299.114 303.76C299.119 266.128 245.641 245.529 245.641 245.529H245.638Z" fill="#1C1C1E"/>
<path d="M244.362 803.471C244.362 803.471 299.029 782.607 299.029 745.24C299.029 729.485 286.259 716.715 270.505 716.715C262.865 716.715 255.929 719.73 250.812 724.62C253.479 714.938 256.833 705.577 260.422 702.325H229.494C233.082 705.577 236.435 714.937 239.104 724.62C233.988 719.728 227.052 716.715 219.406 716.715C203.656 716.715 190.886 729.485 190.886 745.24C190.881 782.872 244.359 803.471 244.359 803.471H244.362Z" fill="#1C1C1E"/>
<path d="M375.638 397.862C375.638 397.862 320.971 418.727 320.971 456.093C320.971 471.848 333.741 484.618 349.495 484.618C357.135 484.618 364.071 481.603 369.188 476.713C366.521 486.395 363.167 495.756 359.578 499.008H390.506C386.918 495.756 383.565 486.396 380.896 476.713C386.012 481.605 392.948 484.618 400.594 484.618C416.344 484.618 429.114 471.848 429.114 456.093C429.119 418.461 375.641 397.862 375.641 397.862H375.638Z" fill="#1C1C1E"/>
<path d="M374.362 651.138C374.362 651.138 429.029 630.273 429.029 592.907C429.029 577.152 416.259 564.382 400.505 564.382C392.865 564.382 385.929 567.397 380.812 572.287C383.479 562.605 386.833 553.244 390.422 549.992H359.494C363.082 553.244 366.435 562.604 369.104 572.287C363.988 567.395 357.052 564.382 349.406 564.382C333.656 564.382 320.886 577.152 320.886 592.907C320.881 630.539 374.359 651.138 374.359 651.138H374.362Z" fill="#1C1C1E"/>
<path d="M505.638 245.529C505.638 245.529 450.971 266.393 450.971 303.76C450.971 319.515 463.741 332.285 479.495 332.285C487.135 332.285 494.071 329.27 499.188 324.38C496.521 334.062 493.167 343.423 489.578 346.675H520.506C516.918 343.423 513.565 334.063 510.896 324.38C516.012 329.272 522.948 332.285 530.594 332.285C546.344 332.285 559.114 319.515 559.114 303.76C559.119 266.128 505.641 245.529 505.641 245.529H505.638Z" fill="#1C1C1E"/>
<path d="M504.362 803.471C504.362 803.471 559.029 782.607 559.029 745.24C559.029 729.485 546.259 716.715 530.505 716.715C522.865 716.715 515.929 719.73 510.812 724.62C513.479 714.938 516.833 705.577 520.422 702.325H489.494C493.082 705.577 496.435 714.937 499.104 724.62C493.988 719.728 487.052 716.715 479.406 716.715C463.656 716.715 450.886 729.485 450.886 745.24C450.881 782.872 504.359 803.471 504.359 803.471H504.362Z" fill="#1C1C1E"/>
<path d="M115.05 123.5H113.75L129.75 100H116.65L94.45 133.3C91.75 137.2 90.25 142 90.25 147.4C90.25 161.5 100.45 171.3 115.05 171.3C129.55 171.3 139.75 161.5 139.75 147.4C139.75 133.3 129.55 123.5 115.05 123.5ZM115.05 160.4C107.35 160.4 101.75 155.4 101.75 147.4C101.75 139.4 107.35 134.4 115.05 134.4C122.65 134.4 128.25 139.4 128.25 147.4C128.25 155.3 122.65 160.4 115.05 160.4Z" fill="#1C1C1E"/>
<path d="M634.95 926.5H636.25L620.25 950H633.35L655.55 916.7C658.25 912.8 659.75 908 659.75 902.6C659.75 888.5 649.55 878.7 634.95 878.7C620.45 878.7 610.25 888.5 610.25 902.6C610.25 916.7 620.45 926.5 634.95 926.5ZM634.95 889.6C642.65 889.6 648.25 894.6 648.25 902.6C648.25 910.6 642.65 915.6 634.95 915.6C627.35 915.6 621.75 910.6 621.75 902.6C621.75 894.7 627.35 889.6 634.95 889.6Z" fill="#1C1C1E"/>
<path d="M635.406 102.883C635.406 102.883 600.618 116.16 600.618 139.939C600.618 149.965 608.745 158.091 618.77 158.091C623.631 158.091 628.045 156.172 631.302 153.061C629.604 159.222 627.47 165.179 625.186 167.249H644.867C642.584 165.179 640.45 159.222 638.752 153.061C642.007 156.174 646.421 158.091 651.287 158.091C661.31 158.091 669.436 149.965 669.436 139.939C669.439 115.991 635.408 102.883 635.408 102.883H635.406Z" fill="#1C1C1E"/>
<path d="M114.594 947.117C114.594 947.117 149.382 933.84 149.382 910.061C149.382 900.035 141.255 891.909 131.23 891.909C126.369 891.909 121.955 893.828 118.698 896.939C120.396 890.778 122.53 884.821 124.814 882.751H105.133C107.416 884.821 109.55 890.778 111.248 896.939C107.993 893.826 103.579 891.909 98.7128 891.909C88.6899 891.909 80.5641 900.035 80.5641 910.061C80.5609 934.009 114.592 947.117 114.592 947.117H114.594Z" fill="#1C1C1E"/>
</svg>
