<svg width="750" height="1050" viewBox="0 0 750 1050" fill="none" xmlns="http://www.w3.org/2000/svg">
<rect width="750" height="1050" fill="white"/>
<path d="M0 50C0 22.3858 22.3858 0 50 0H700C727.614 0 750 22.3858 750 50V1000C750 1027.61 727.614 1050 700 1050H50C22.3858 1050 0 1027.61 0 1000V50Z" fill="white"/>
<path d="M299.245 280.204C299.245 264.432 286.461 251.647 270.694 251.647C259.478 251.647 249.781 258.109 245.111 267.51C240.431 258.108 230.742 251.647 219.524 251.647C203.758 251.647 190.971 264.432 190.971 280.204C190.971 317.882 244.513 338.504 244.513 338.504C244.514 338.502 299.245 317.619 299.245 280.204Z" fill="#FF3B30"/>
<path d="M190.755 766.796C190.755 782.568 203.54 795.353 219.307 795.353C230.522 795.353 240.22 788.891 244.889 779.49C249.569 788.892 259.258 795.353 270.476 795.353C286.242 795.353 299.029 782.568 299.029 766.796C299.029 729.118 245.487 708.496 245.487 708.496C245.486 708.498 190.755 729.381 190.755 766.796Z" fill="#FF3B30"/>
<path d="M429.245 508.704C429.245 492.932 416.46 480.147 400.693 480.147C389.478 480.147 379.78 486.609 375.111 496.01C370.431 486.608 360.742 480.147 349.524 480.147C333.758 480.147 320.971 492.932 320.971 508.704C320.971 546.382 374.513 567.004 374.513 567.004C374.514 567.002 429.245 546.119 429.245 508.704Z" fill="#FF3B30"/>
<path d="M559.245 280.204C559.245 264.432 546.46 251.647 530.693 251.647C519.478 251.647 509.78 258.109 505.111 267.51C500.431 258.108 490.742 251.647 479.524 251.647C463.758 251.647 450.971 264.432 450.971 280.204C450.971 317.882 504.513 338.504 504.513 338.504C504.514 338.502 559.245 317.619 559.245 280.204Z" fill="#FF3B30"/>
<path d="M450.755 766.796C450.755 782.568 463.54 795.353 479.307 795.353C490.522 795.353 500.22 788.891 504.889 779.49C509.569 788.892 519.258 795.353 530.476 795.353C546.242 795.353 559.029 782.568 559.029 766.796C559.029 729.118 505.487 708.496 505.487 708.496C505.486 708.498 450.755 729.381 450.755 766.796Z" fill="#FF3B30"/>
<path d="M115.35 126.4H106.55L107.75 110.8H136.15V100H97.1501L94.4501 137.6H114.85C122.45 137.6 127.65 141.8 127.65 148.8C127.65 155.8 122.45 160.1 114.65 160.1C107.35 160.1 102.55 156.8 100.75 150.6L90.8501 156.3C94.5501 166.4 104.05 171.3 114.65 171.3C127.55 171.3 139.15 163.5 139.15 148.8C139.15 134.2 128.05 126.4 115.35 126.4Z" fill="#FF3B30"/>
<path d="M634.65 923.6H643.45L642.25 939.2H613.85V950H652.85L655.55 912.4H635.15C627.55 912.4 622.35 908.2 622.35 901.2C622.35 894.2 627.55 889.9 635.35 889.9C642.65 889.9 647.45 893.2 649.25 899.4L659.15 893.7C655.45 883.6 645.95 878.7 635.35 878.7C622.45 878.7 610.85 886.5 610.85 901.2C610.85 915.8 621.95 923.6 634.65 923.6Z" fill="#FF3B30"/>
<path d="M669.52 125.584C669.52 115.548 661.384 107.412 651.35 107.412C644.213 107.412 638.042 111.524 635.071 117.507C632.093 111.523 625.927 107.412 618.788 107.412C608.755 107.412 600.618 115.548 600.618 125.584C600.618 149.561 634.69 162.684 634.69 162.684C634.691 162.683 669.52 149.394 669.52 125.584Z" fill="#FF3B30"/>
<path d="M80.4804 924.416C80.4804 934.452 88.616 942.588 98.6496 942.588C105.787 942.588 111.958 938.476 114.929 932.493C117.907 938.477 124.073 942.588 131.212 942.588C141.245 942.588 149.382 934.452 149.382 924.416C149.382 900.439 115.31 887.316 115.31 887.316C115.309 887.317 80.4804 900.606 80.4804 924.416Z" fill="#FF3B30"/>
</svg>
