<svg width="750" height="1050" viewBox="0 0 750 1050" fill="none" xmlns="http://www.w3.org/2000/svg">
<rect width="750" height="1050" fill="white"/>
<path d="M0 50C0 22.3858 22.3858 0 50 0H700C727.614 0 750 22.3858 750 50V1000C750 1027.61 727.614 1050 700 1050H50C22.3858 1050 0 1027.61 0 1000V50Z" fill="white"/>
<path d="M270.722 279.329C270.323 279.329 269.922 279.339 269.529 279.357C270.471 276.671 270.99 273.786 270.99 270.784C270.99 256.483 259.395 244.883 245.091 244.883C230.785 244.883 219.19 256.483 219.19 270.784C219.19 273.786 219.707 276.671 220.649 279.357C220.255 279.339 219.857 279.329 219.458 279.329C205.152 279.329 193.559 290.923 193.559 305.223C193.559 319.529 205.152 331.122 219.458 331.122C227.894 331.122 235.374 327.081 240.1 320.838C237.274 331.789 233.516 343.197 229.449 346.877H260.727C256.664 343.198 252.912 331.805 250.081 320.858C254.811 327.088 262.294 331.12 270.721 331.12C285.019 331.12 296.617 319.527 296.617 305.221C296.618 290.923 285.02 279.329 270.723 279.329H270.722ZM246.282 296.649C246.244 296.77 246.058 296.654 246.058 296.654C246.132 296.654 246.208 296.654 246.282 296.649Z" fill="#1C1C1E"/>
<path d="M270.722 431.662C270.323 431.662 269.922 431.672 269.529 431.69C270.471 429.004 270.99 426.12 270.99 423.117C270.99 408.816 259.395 397.216 245.091 397.216C230.785 397.216 219.19 408.816 219.19 423.117C219.19 426.119 219.707 429.004 220.649 431.69C220.255 431.672 219.857 431.662 219.458 431.662C205.152 431.662 193.559 443.256 193.559 457.556C193.559 471.862 205.152 483.455 219.458 483.455C227.894 483.455 235.374 479.414 240.1 473.171C237.274 484.122 233.516 495.53 229.449 499.21H260.727C256.664 495.531 252.912 484.138 250.081 473.191C254.811 479.421 262.294 483.453 270.721 483.453C285.019 483.453 296.617 471.86 296.617 457.554C296.618 443.256 285.02 431.662 270.723 431.662H270.722ZM246.282 448.982C246.244 449.103 246.058 448.987 246.058 448.987C246.132 448.987 246.208 448.987 246.282 448.982Z" fill="#1C1C1E"/>
<path d="M219.278 617.338C219.677 617.338 220.078 617.328 220.471 617.31C219.529 619.996 219.01 622.88 219.01 625.883C219.01 640.184 230.605 651.784 244.909 651.784C259.215 651.784 270.81 640.184 270.81 625.883C270.81 622.881 270.293 619.996 269.351 617.31C269.745 617.328 270.143 617.338 270.542 617.338C284.848 617.338 296.441 605.744 296.441 591.444C296.441 577.138 284.848 565.545 270.542 565.545C262.106 565.545 254.626 569.586 249.9 575.829C252.726 564.878 256.484 553.47 260.551 549.79H229.273C233.336 553.469 237.088 564.862 239.919 575.809C235.189 569.579 227.706 565.547 219.279 565.547C204.981 565.547 193.383 577.14 193.383 591.446C193.382 605.744 204.98 617.338 219.277 617.338H219.278ZM243.718 600.018C243.756 599.897 243.942 600.013 243.942 600.013C243.868 600.013 243.792 600.013 243.718 600.018Z" fill="#1C1C1E"/>
<path d="M219.278 769.671C219.677 769.671 220.078 769.661 220.471 769.643C219.529 772.329 219.01 775.214 219.01 778.216C219.01 792.517 230.605 804.117 244.909 804.117C259.215 804.117 270.81 792.517 270.81 778.216C270.81 775.214 270.293 772.329 269.351 769.643C269.745 769.661 270.143 769.671 270.542 769.671C284.848 769.671 296.441 758.077 296.441 743.777C296.441 729.471 284.848 717.878 270.542 717.878C262.106 717.878 254.626 721.919 249.9 728.162C252.726 717.211 256.484 705.803 260.551 702.123H229.273C233.336 705.802 237.088 717.195 239.919 728.142C235.189 721.912 227.706 717.88 219.279 717.88C204.981 717.88 193.383 729.473 193.383 743.779C193.382 758.077 204.98 769.671 219.277 769.671H219.278ZM243.718 752.351C243.756 752.23 243.942 752.346 243.942 752.346C243.868 752.346 243.792 752.346 243.718 752.351Z" fill="#1C1C1E"/>
<path d="M400.722 352.329C400.323 352.329 399.922 352.339 399.529 352.357C400.471 349.671 400.99 346.786 400.99 343.784C400.99 329.483 389.395 317.883 375.091 317.883C360.785 317.883 349.19 329.483 349.19 343.784C349.19 346.786 349.707 349.671 350.649 352.357C350.255 352.339 349.857 352.329 349.458 352.329C335.152 352.329 323.559 363.923 323.559 378.223C323.559 392.529 335.152 404.122 349.458 404.122C357.894 404.122 365.374 400.081 370.1 393.838C367.274 404.789 363.516 416.197 359.449 419.877H390.727C386.664 416.198 382.912 404.805 380.081 393.858C384.811 400.088 392.294 404.12 400.721 404.12C415.019 404.12 426.617 392.527 426.617 378.221C426.618 363.923 415.02 352.329 400.723 352.329H400.722ZM376.282 369.649C376.244 369.77 376.058 369.654 376.058 369.654C376.132 369.654 376.208 369.654 376.282 369.649Z" fill="#1C1C1E"/>
<path d="M349.278 696.671C349.677 696.671 350.078 696.661 350.471 696.643C349.529 699.329 349.01 702.214 349.01 705.216C349.01 719.517 360.605 731.117 374.909 731.117C389.215 731.117 400.81 719.517 400.81 705.216C400.81 702.214 400.293 699.329 399.351 696.643C399.745 696.661 400.143 696.671 400.542 696.671C414.848 696.671 426.441 685.077 426.441 670.777C426.441 656.471 414.848 644.878 400.542 644.878C392.106 644.878 384.626 648.919 379.9 655.162C382.726 644.211 386.484 632.803 390.551 629.123H359.273C363.336 632.802 367.088 644.195 369.919 655.142C365.189 648.912 357.706 644.88 349.279 644.88C334.981 644.88 323.383 656.473 323.383 670.779C323.382 685.077 334.98 696.671 349.277 696.671H349.278ZM373.718 679.351C373.756 679.23 373.942 679.346 373.942 679.346C373.868 679.346 373.792 679.346 373.718 679.351Z" fill="#1C1C1E"/>
<path d="M530.722 279.329C530.323 279.329 529.922 279.339 529.529 279.357C530.471 276.671 530.99 273.786 530.99 270.784C530.99 256.483 519.395 244.883 505.091 244.883C490.785 244.883 479.19 256.483 479.19 270.784C479.19 273.786 479.707 276.671 480.649 279.357C480.255 279.339 479.857 279.329 479.458 279.329C465.152 279.329 453.559 290.923 453.559 305.223C453.559 319.529 465.152 331.122 479.458 331.122C487.894 331.122 495.374 327.081 500.1 320.838C497.274 331.789 493.516 343.197 489.449 346.877H520.727C516.664 343.198 512.912 331.805 510.081 320.858C514.811 327.088 522.294 331.12 530.721 331.12C545.019 331.12 556.617 319.527 556.617 305.221C556.618 290.923 545.02 279.329 530.723 279.329H530.722ZM506.282 296.649C506.244 296.77 506.058 296.654 506.058 296.654C506.132 296.654 506.208 296.654 506.282 296.649Z" fill="#1C1C1E"/>
<path d="M530.722 431.662C530.323 431.662 529.922 431.672 529.529 431.69C530.471 429.004 530.99 426.12 530.99 423.117C530.99 408.816 519.395 397.216 505.091 397.216C490.785 397.216 479.19 408.816 479.19 423.117C479.19 426.119 479.707 429.004 480.649 431.69C480.255 431.672 479.857 431.662 479.458 431.662C465.152 431.662 453.559 443.256 453.559 457.556C453.559 471.862 465.152 483.455 479.458 483.455C487.894 483.455 495.374 479.414 500.1 473.171C497.274 484.122 493.516 495.53 489.449 499.21H520.727C516.664 495.531 512.912 484.138 510.081 473.191C514.811 479.421 522.294 483.453 530.721 483.453C545.019 483.453 556.617 471.86 556.617 457.554C556.618 443.256 545.02 431.662 530.723 431.662H530.722ZM506.282 448.982C506.244 449.103 506.058 448.987 506.058 448.987C506.132 448.987 506.208 448.987 506.282 448.982Z" fill="#1C1C1E"/>
<path d="M479.278 617.338C479.677 617.338 480.078 617.328 480.471 617.31C479.529 619.996 479.01 622.88 479.01 625.883C479.01 640.184 490.605 651.784 504.909 651.784C519.215 651.784 530.81 640.184 530.81 625.883C530.81 622.881 530.293 619.996 529.351 617.31C529.745 617.328 530.143 617.338 530.542 617.338C544.848 617.338 556.441 605.744 556.441 591.444C556.441 577.138 544.848 565.545 530.542 565.545C522.106 565.545 514.626 569.586 509.9 575.829C512.726 564.878 516.484 553.47 520.551 549.79H489.273C493.336 553.469 497.088 564.862 499.919 575.809C495.189 569.579 487.706 565.547 479.279 565.547C464.981 565.547 453.383 577.14 453.383 591.446C453.382 605.744 464.98 617.338 479.277 617.338H479.278ZM503.718 600.018C503.756 599.897 503.942 600.013 503.942 600.013C503.868 600.013 503.792 600.013 503.718 600.018Z" fill="#1C1C1E"/>
<path d="M479.278 769.671C479.677 769.671 480.078 769.661 480.471 769.643C479.529 772.329 479.01 775.214 479.01 778.216C479.01 792.517 490.605 804.117 504.909 804.117C519.215 804.117 530.81 792.517 530.81 778.216C530.81 775.214 530.293 772.329 529.351 769.643C529.745 769.661 530.143 769.671 530.542 769.671C544.848 769.671 556.441 758.077 556.441 743.777C556.441 729.471 544.848 717.878 530.542 717.878C522.106 717.878 514.626 721.919 509.9 728.162C512.726 717.211 516.484 705.803 520.551 702.123H489.273C493.336 705.802 497.088 717.195 499.919 728.142C495.189 721.912 487.706 717.88 479.279 717.88C464.981 717.88 453.383 729.473 453.383 743.779C453.382 758.077 464.98 769.671 479.277 769.671H479.278ZM503.718 752.351C503.756 752.23 503.942 752.346 503.942 752.346C503.868 752.346 503.792 752.346 503.718 752.351Z" fill="#1C1C1E"/>
<path d="M98.4 101.3L80 107.8L82.8 117.6L96.9 113.6V171.3H108.4V101.3H98.4Z" fill="#1C1C1E"/>
<path d="M147.407 172.6C165.007 172.6 174.907 157.9 174.907 136.3C174.907 114.7 165.007 100 147.407 100C129.807 100 119.907 114.7 119.907 136.3C119.907 157.9 129.807 172.6 147.407 172.6ZM147.407 161.4C137.107 161.4 131.407 152.4 131.407 136.3C131.407 120.2 137.107 111.2 147.407 111.2C157.807 111.2 163.407 120.2 163.407 136.3C163.407 152.4 157.807 161.4 147.407 161.4Z" fill="#1C1C1E"/>
<path d="M651.6 948.7L670 942.2L667.2 932.4L653.1 936.4V878.7H641.6V948.7H651.6Z" fill="#1C1C1E"/>
<path d="M602.593 877.4C584.993 877.4 575.093 892.1 575.093 913.7C575.093 935.3 584.993 950 602.593 950C620.193 950 630.093 935.3 630.093 913.7C630.093 892.1 620.193 877.4 602.593 877.4ZM602.593 888.6C612.893 888.6 618.593 897.6 618.593 913.7C618.593 929.8 612.893 938.8 602.593 938.8C592.193 938.8 586.593 929.8 586.593 913.7C586.593 897.6 592.193 888.6 602.593 888.6Z" fill="#1C1C1E"/>
<path d="M651.369 124.391C651.114 124.391 650.859 124.397 650.609 124.409C651.209 122.7 651.539 120.864 651.539 118.953C651.539 109.853 644.161 102.471 635.058 102.471C625.954 102.471 618.575 109.853 618.575 118.953C618.575 120.864 618.905 122.7 619.504 124.409C619.253 124.397 619 124.391 618.746 124.391C609.642 124.391 602.265 131.769 602.265 140.869C602.265 149.973 609.642 157.35 618.746 157.35C624.114 157.35 628.874 154.779 631.882 150.806C630.084 157.775 627.692 165.034 625.104 167.376H645.008C642.423 165.035 640.035 157.785 638.233 150.819C641.243 154.783 646.005 157.349 651.368 157.349C660.466 157.349 667.847 149.971 667.847 140.868C667.848 131.769 660.467 124.391 651.369 124.391H651.369ZM635.816 135.413C635.791 135.49 635.673 135.416 635.673 135.416C635.721 135.416 635.769 135.416 635.816 135.413Z" fill="#1C1C1E"/>
<path d="M98.6314 925.609C98.8855 925.609 99.1407 925.603 99.3906 925.591C98.7911 927.3 98.4609 929.136 98.4609 931.047C98.4609 940.147 105.839 947.529 114.942 947.529C124.046 947.529 131.425 940.147 131.425 931.047C131.425 929.136 131.095 927.3 130.496 925.591C130.747 925.603 131 925.609 131.254 925.609C140.358 925.609 147.735 918.231 147.735 909.131C147.735 900.027 140.358 892.65 131.254 892.65C125.886 892.65 121.126 895.221 118.118 899.194C119.916 892.225 122.308 884.966 124.896 882.624H104.992C107.577 884.965 109.965 892.215 111.767 899.181C108.757 895.217 103.995 892.651 98.6321 892.651C89.5335 892.651 82.153 900.029 82.153 909.132C82.152 918.231 89.5327 925.609 98.631 925.609H98.6314ZM114.184 914.587C114.209 914.51 114.327 914.584 114.327 914.584C114.279 914.584 114.231 914.584 114.184 914.587Z" fill="#1C1C1E"/>
</svg>
