<svg width="750" height="1050" viewBox="0 0 750 1050" fill="none" xmlns="http://www.w3.org/2000/svg">
<rect width="750" height="1050" fill="white"/>
<path d="M0 50C0 22.3858 22.3858 0 50 0H700C727.614 0 750 22.3858 750 50V1000C750 1027.61 727.614 1050 700 1050H50C22.3858 1050 0 1027.61 0 1000V50Z" fill="white"/>
<path d="M245.125 241.294L298.956 295.125L245.125 348.956L191.294 295.125L245.125 241.294Z" fill="#FF3B30"/>
<path d="M245.125 469.794L298.956 523.625L245.125 577.456L191.294 523.625L245.125 469.794Z" fill="#FF3B30"/>
<path d="M244.875 805.706L191.044 751.875L244.875 698.044L298.706 751.875L244.875 805.706Z" fill="#FF3B30"/>
<path d="M375.125 355.544L428.956 409.375L375.125 463.206L321.294 409.375L375.125 355.544Z" fill="#FF3B30"/>
<path d="M374.875 691.456L321.044 637.625L374.875 583.794L428.706 637.625L374.875 691.456Z" fill="#FF3B30"/>
<path d="M505.125 241.294L558.956 295.125L505.125 348.956L451.294 295.125L505.125 241.294Z" fill="#FF3B30"/>
<path d="M504.875 577.206L451.044 523.375L504.875 469.544L558.706 523.375L504.875 577.206Z" fill="#FF3B30"/>
<path d="M504.875 805.706L451.044 751.875L504.875 698.044L558.706 751.875L504.875 805.706Z" fill="#FF3B30"/>
<path d="M129.25 134.9C134.05 131.8 137.25 126.8 137.25 120.1C137.25 106.6 126.65 100 115.05 100C103.35 100 92.85 106.6 92.85 120.1C92.85 126.8 96.05 131.8 100.75 134.9C94.35 138.5 90.45 144.6 90.45 151.9C90.45 164.9 100.45 172.6 115.05 172.6C129.65 172.6 139.55 164.9 139.55 151.9C139.55 144.5 135.75 138.5 129.25 134.9ZM115.05 110.9C120.85 110.9 125.75 114.1 125.75 120.6C125.75 126.8 120.85 130.3 115.05 130.3C109.15 130.3 104.35 126.8 104.35 120.6C104.35 114.1 109.15 110.9 115.05 110.9ZM115.05 161.7C107.45 161.7 101.95 157.9 101.95 150.8C101.95 143.6 107.45 139.9 115.05 139.9C122.55 139.9 128.05 143.6 128.05 150.8C128.05 157.9 122.55 161.7 115.05 161.7Z" fill="#FF3B30"/>
<path d="M620.75 915.1C615.95 918.2 612.75 923.2 612.75 929.9C612.75 943.4 623.35 950 634.95 950C646.65 950 657.15 943.4 657.15 929.9C657.15 923.2 653.95 918.2 649.25 915.1C655.65 911.5 659.55 905.4 659.55 898.1C659.55 885.1 649.55 877.4 634.95 877.4C620.35 877.4 610.45 885.1 610.45 898.1C610.45 905.5 614.25 911.5 620.75 915.1ZM634.95 939.1C629.15 939.1 624.25 935.9 624.25 929.4C624.25 923.2 629.15 919.7 634.95 919.7C640.85 919.7 645.65 923.2 645.65 929.4C645.65 935.9 640.85 939.1 634.95 939.1ZM634.95 888.3C642.55 888.3 648.05 892.1 648.05 899.2C648.05 906.4 642.55 910.1 634.95 910.1C627.45 910.1 621.95 906.4 621.95 899.2C621.95 892.1 627.45 888.3 634.95 888.3Z" fill="#FF3B30"/>
<path d="M635.08 100.823L669.336 135.079L635.08 169.335L600.824 135.079L635.08 100.823Z" fill="#FF3B30"/>
<path d="M114.92 949.177L80.6643 914.921L114.92 880.665L149.176 914.921L114.92 949.177Z" fill="#FF3B30"/>
</svg>
