<svg width="750" height="1050" viewBox="0 0 750 1050" fill="none" xmlns="http://www.w3.org/2000/svg">
<rect width="750" height="1050" fill="white"/>
<path d="M0 50C0 22.3858 22.3858 0 50 0H700C727.614 0 750 22.3858 750 50V1000C750 1027.61 727.614 1050 700 1050H50C22.3858 1050 0 1027.61 0 1000V50Z" fill="white"/>
<path d="M400.722 352.329C400.323 352.329 399.922 352.339 399.529 352.357C400.471 349.671 400.99 346.786 400.99 343.784C400.99 329.483 389.395 317.883 375.091 317.883C360.785 317.883 349.19 329.483 349.19 343.784C349.19 346.786 349.707 349.671 350.649 352.357C350.255 352.339 349.857 352.329 349.458 352.329C335.152 352.329 323.559 363.923 323.559 378.223C323.559 392.529 335.152 404.122 349.458 404.122C357.893 404.122 365.373 400.081 370.1 393.838C367.274 404.789 363.516 416.197 359.449 419.877H390.727C386.664 416.198 382.912 404.805 380.08 393.858C384.81 400.088 392.293 404.12 400.721 404.12C415.019 404.12 426.617 392.527 426.617 378.221C426.618 363.923 415.02 352.329 400.723 352.329H400.722ZM376.282 369.649C376.243 369.77 376.058 369.654 376.058 369.654C376.132 369.654 376.208 369.654 376.282 369.649Z" fill="#1C1C1E"/>
<path d="M349.278 696.671C349.677 696.671 350.078 696.661 350.471 696.643C349.529 699.329 349.01 702.214 349.01 705.216C349.01 719.517 360.605 731.117 374.909 731.117C389.215 731.117 400.81 719.517 400.81 705.216C400.81 702.214 400.293 699.329 399.351 696.643C399.745 696.661 400.143 696.671 400.542 696.671C414.848 696.671 426.441 685.077 426.441 670.777C426.441 656.471 414.848 644.878 400.542 644.878C392.107 644.878 384.627 648.919 379.9 655.162C382.726 644.211 386.484 632.803 390.551 629.123H359.273C363.336 632.802 367.088 644.195 369.92 655.142C365.19 648.912 357.707 644.88 349.279 644.88C334.981 644.88 323.383 656.473 323.383 670.779C323.382 685.077 334.98 696.671 349.277 696.671H349.278ZM373.718 679.351C373.757 679.23 373.942 679.346 373.942 679.346C373.868 679.346 373.792 679.346 373.718 679.351Z" fill="#1C1C1E"/>
<path d="M92.0501 171.3H138.15V160.2H109.15L124.95 144.4C131.65 137.6 136.85 130.3 136.85 121.6C136.85 107.7 125.95 100 114.45 100C105.15 100 96.3501 104.6 91.8501 114.2L101.55 119.9C104.25 114.3 108.75 111.2 114.55 111.2C120.55 111.2 125.35 115 125.35 122C125.35 127.3 121.45 132.4 116.45 137.4L92.0501 162.3V171.3Z" fill="#1C1C1E"/>
<path d="M657.95 878.7H611.85V889.8H640.85L625.05 905.6C618.35 912.4 613.15 919.7 613.15 928.4C613.15 942.3 624.05 950 635.55 950C644.85 950 653.65 945.4 658.15 935.8L648.45 930.1C645.75 935.7 641.25 938.8 635.45 938.8C629.45 938.8 624.65 935 624.65 928C624.65 922.7 628.55 917.6 633.55 912.6L657.95 887.7V878.7Z" fill="#1C1C1E"/>
<path d="M651.369 124.391C651.114 124.391 650.859 124.397 650.609 124.409C651.209 122.7 651.539 120.864 651.539 118.953C651.539 109.853 644.161 102.471 635.058 102.471C625.954 102.471 618.575 109.853 618.575 118.953C618.575 120.864 618.905 122.7 619.504 124.409C619.253 124.397 619 124.391 618.746 124.391C609.642 124.391 602.265 131.769 602.265 140.869C602.265 149.973 609.642 157.35 618.746 157.35C624.114 157.35 628.874 154.779 631.882 150.806C630.084 157.775 627.692 165.034 625.104 167.376H645.008C642.423 165.035 640.035 157.785 638.233 150.819C641.243 154.783 646.005 157.349 651.368 157.349C660.466 157.349 667.847 149.971 667.847 140.868C667.848 131.769 660.467 124.391 651.369 124.391H651.369ZM635.816 135.413C635.791 135.49 635.673 135.416 635.673 135.416C635.721 135.416 635.769 135.416 635.816 135.413Z" fill="#1C1C1E"/>
<path d="M98.6314 925.609C98.8855 925.609 99.1407 925.603 99.3906 925.591C98.7911 927.3 98.4609 929.136 98.4609 931.047C98.4609 940.147 105.839 947.529 114.942 947.529C124.046 947.529 131.425 940.147 131.425 931.047C131.425 929.136 131.095 927.3 130.496 925.591C130.747 925.603 131 925.609 131.254 925.609C140.358 925.609 147.735 918.231 147.735 909.131C147.735 900.027 140.358 892.65 131.254 892.65C125.886 892.65 121.126 895.221 118.118 899.194C119.916 892.225 122.308 884.966 124.896 882.624H104.992C107.577 884.965 109.965 892.215 111.767 899.181C108.757 895.217 103.995 892.651 98.6321 892.651C89.5335 892.651 82.153 900.029 82.153 909.132C82.152 918.231 89.5327 925.609 98.631 925.609H98.6314ZM114.184 914.587C114.209 914.51 114.327 914.584 114.327 914.584C114.279 914.584 114.231 914.584 114.184 914.587Z" fill="#1C1C1E"/>
</svg>
